<svg width="191" height="191" viewBox="0 0 191 191" fill="none" xmlns="http://www.w3.org/2000/svg">
<path d="M95.5 0C148.243 0 191 42.7568 191 95.5C191 148.243 148.243 191 95.5 191C42.7568 191 0 148.243 0 95.5C0 42.7568 42.7568 0 95.5 0Z" fill="#48B8E8"/>
<path d="M5.2551 138.229H185.745V144.413C185.745 147.814 182.964 150.597 179.561 150.597H11.4372C8.03616 150.597 5.25323 147.815 5.25323 144.413V138.229H5.2551Z" fill="#807D7D"/>
<path d="M70.7711 138.229H120.227V140.047C120.227 141.046 119.41 141.865 118.409 141.865H72.5874C71.5881 141.865 70.7696 141.046 70.7696 140.047V138.229H70.7711Z" fill="#666666"/>
<path d="M22.663 40.4032H168.335C170.114 40.4032 171.569 41.8592 171.569 43.6372V132.891C171.569 134.67 170.115 136.125 168.335 136.125H22.663C20.8846 136.125 19.429 134.669 19.429 132.891V43.6372C19.4286 41.8589 20.8832 40.4032 22.663 40.4032Z" fill="#807D7D"/>
<path d="M26.2278 46.8972H164.805V131.351H26.2278V46.8972Z" fill="white"/>
<path d="M35.6181 57.0146H114.551V107.397H35.6181V57.0146Z" fill="#ECF0F1"/>
<path d="M120.389 75.5062H139.16V87.4881H120.389V75.5062Z" fill="#C3CCCF"/>
<path d="M120.389 57.0146H139.16V68.9947H120.389V57.0146Z" fill="#C3CCCF"/>
<path d="M120.389 93.9974H139.16V105.977H120.389V93.9974Z" fill="#C3CCCF"/>
<path d="M70.5763 84.4556H72.3666H77.8012H79.5933L80.3237 92.0557L81.6193 93.0965L84.3556 94.8367L79.0367 107.398H71.1296L65.814 94.8367L68.5485 93.0965L69.8459 92.0557L70.5763 84.4556Z" fill="#F0B97D"/>
<path d="M67.6024 93.6583L60.1296 96.0428L68.3362 107.398H80.6419L87.8097 95.3486L82.5284 93.674L77.8799 96.9564H72.3058L67.6021 93.6568V93.6583H67.6024Z" fill="#F1F1F1"/>
<path d="M73.416 96.6561L74.0554 98.2326L73.3298 107.399H76.8395L76.1139 98.2326L76.7533 96.6561L75.0835 96.5904L73.4137 96.6561H73.416Z" fill="#FF5B61"/>
<path d="M67.73 93.6169L54.5126 97.8349C54.5126 97.8349 52.8018 98.7239 52.2866 101.429C51.9318 103.283 51.7009 105.166 51.4543 107.396H72.3599L67.73 93.6154V93.6169ZM98.7153 107.398C98.4691 105.168 98.2363 103.285 97.883 101.431C97.3678 98.7257 95.657 97.8364 95.657 97.8364L82.5277 93.6754L77.8478 107.399H98.7153V107.398Z" fill="#096389"/>
<path d="M67.73 93.6169L64.8784 94.5268L64.3304 101.76C64.3304 101.76 64.4819 102.354 64.9337 102.301L67.5077 103.268C67.5077 103.268 67.6748 103.437 67.5248 103.65L65.3246 105.159L66.5116 107.398H72.3595L67.73 93.6169ZM83.6576 107.398L84.8446 105.159L82.6426 103.65C82.4926 103.436 82.6597 103.268 82.6597 103.268L85.2322 102.301C85.6855 102.354 85.837 101.76 85.837 101.76L85.2908 94.551L82.5269 93.674L77.847 107.398H83.6576V107.398Z" fill="#81BEEB"/>
<path d="M64.5856 69.0036C64.5856 69.7101 64.3271 70.3992 64.348 71.08C61.9321 70.6301 63.0986 77.8082 64.4651 78.7938C64.5737 78.8729 64.8408 78.6972 65.0665 78.5543C65.5402 81.194 69.5878 88.2465 72.16 91.2152C72.8732 92.0389 77.2427 92.025 77.9511 91.2461C80.5856 88.3446 84.6279 81.2097 85.105 78.5543C85.3307 78.6972 85.5978 78.8729 85.7083 78.7938C87.0747 77.8082 88.2412 70.6319 85.8254 71.08C85.8444 70.401 85.5859 69.7101 85.5859 69.0036C85.4531 63.4314 80.4032 60.6503 75.0858 60.6246C69.7702 60.6485 64.7199 63.431 64.5856 69.0036Z" fill="#FED198"/>
<path d="M67.8233 61.8598C67.0615 61.7717 64.3084 62.6144 63.9794 65.5264C63.6504 68.4384 63.8056 71.121 63.8056 71.121C63.8056 71.121 65.4182 71.5295 65.6216 73.1817C65.823 74.8358 65.6783 74.8358 65.6783 74.8358L66.2606 74.7049L66.6777 71.8705C69.0898 70.3578 66.6605 68.1214 69.0726 67.5957C75.589 72.2409 81.3388 71.4448 83.9318 69.2603C83.9318 69.2603 83.3271 71.5467 83.7942 72.3599C84.2594 73.175 83.9818 74.4587 83.9818 74.4587L84.5884 74.4292C84.5884 74.4292 84.478 71.0643 85.8254 71.0796C90.9373 62.6387 74.7549 52.1542 67.8233 61.8598Z" fill="#666666"/>
<path d="M69.7855 90.9701C69.9731 90.9839 67.5782 93.6874 67.5782 93.6874L69.6184 100.669L75.0854 96.5904C72.079 95.1139 70.2835 93.2031 69.7855 90.9701Z" fill="white"/>
<path d="M80.3856 90.9701C80.198 90.9839 82.593 93.6874 82.593 93.6874L80.5528 100.669L75.0839 96.5904C78.0921 95.1139 79.8876 93.2028 80.3838 90.9701H80.3856Z" fill="white"/>
<path d="M72.11 84.6932L73.6055 83.6748C74.064 84.1038 76.2019 84.0971 76.6604 83.6696L78.0407 84.6932C78.7092 85.1894 79.4 85.3583 79.5724 86.1268L80.1204 88.5837C80.2927 89.3555 78.7677 91.9452 77.9287 91.9452H71.9999C71.1609 91.9452 70.0064 89.4727 70.1407 88.6938L70.5816 86.1264C70.7144 85.3494 71.4224 85.1614 72.1115 84.6928H72.11V84.6932ZM74.6997 85.2688L71.7981 86.792C71.7981 86.792 71.9324 88.4789 72.3099 89.006C72.6856 89.535 74.1621 88.906 74.1621 88.906C74.1621 88.906 74.1621 87.5843 74.593 87.6052C74.5963 87.6052 75.5562 87.6052 75.5595 87.6052C75.9904 87.5847 75.9904 88.906 75.9904 88.906C75.9904 88.906 77.4669 89.535 77.8426 89.006C78.2182 88.4789 78.3544 86.792 78.3544 86.792L75.4528 85.2688L75.0772 85.374L74.7015 85.2688H74.6997Z" fill="#666666"/>
<path d="M35.4395 110.795H114.525V107.437H35.4395V110.795Z" fill="#C8CACC"/>
<path d="M48.3443 117.183H104.191V118.942H48.3443V117.183ZM48.3443 122.534H82.434V124.294H48.3443V122.534Z" fill="#C8CACC"/>
<path d="M143.164 57.2403H159.801V58.9996H143.164V57.2403ZM143.164 61.0775H153.319V62.8367H143.164V61.0775Z" fill="#C8CACC"/>
<path d="M143.164 74.8876H159.801V76.6469H143.164V74.8876ZM143.164 78.7248H153.319V80.4841H143.164V78.7248Z" fill="#C8CACC"/>
<path d="M143.164 94.1235H159.801V95.8828H143.164V94.1235ZM143.164 97.9606H153.319V99.7199H143.164V97.9606Z" fill="#C8CACC"/>
<path d="M120.389 112.339H139.16V124.319H120.389V112.339Z" fill="#C3CCCF"/>
<path d="M143.164 112.465H159.801V114.224H143.164V112.465ZM143.164 116.304H153.319V118.063H143.164V116.304Z" fill="#C8CACC"/>
<path d="M164.805 46.8987H40.3409V52.2023H164.805V46.8987Z" fill="#ECF0F1"/>
<path d="M38.804 136.124H48.8803V138.229H38.804V136.124ZM142.12 136.124H152.196V138.229H142.12V136.124Z" fill="#666666"/>
</svg>
