<svg width="314" height="193" viewBox="0 0 314 193" fill="none" xmlns="http://www.w3.org/2000/svg">
<g clip-path="url(#clip0)">
<path d="M238.61 193C238.61 190.741 238.61 188.476 238.673 186.229C238.71 185.219 238.748 184.204 238.836 183.188C239.024 181.009 239.199 178.824 239.537 176.651C239.778 174.932 240.136 173.232 240.609 171.56C241.19 169.502 242.15 167.566 243.442 165.848C244.803 164.003 246.654 162.561 248.794 161.681C248.888 161.647 248.98 161.608 249.069 161.564C251.126 160.548 253.283 159.74 255.505 159.151C259.032 158.051 262.556 156.941 266.078 155.821C266.372 155.901 266.479 156.147 266.604 156.381C267.278 157.612 268.395 158.551 269.737 159.015C273.497 160.48 277.314 160.4 281.143 159.459C282.697 159.077 284.013 158.295 283.976 156.381C283.976 156.061 284.107 155.765 284.54 155.975C288.375 157.206 292.204 158.437 296.046 159.668C297.68 160.13 299.265 160.749 300.777 161.515C303.366 162.889 305.654 164.753 307.508 166.999C309.818 169.813 311.496 173.075 312.433 176.571C313.079 178.873 313.499 181.232 313.687 183.613C313.793 184.992 313.812 186.358 313.856 187.737C313.919 189.504 313.975 191.27 314.038 193.031L238.61 193Z" fill="#FFC122"/>
<path d="M204.926 155.396C208.928 156.549 212.933 157.698 216.939 158.843C219.315 159.548 221.5 160.763 223.338 162.401C224.232 163.14 225.079 163.931 225.876 164.771C228.035 167.199 229.687 170.021 230.739 173.075C231.363 174.807 231.796 176.6 232.03 178.424C232.255 180.178 232.537 181.92 232.75 183.681C232.882 184.813 232.901 185.97 233.033 187.109C233.189 188.906 233.252 190.71 233.22 192.514C233.22 192.674 233.22 192.84 233.22 193H159.804C159.804 191.689 159.804 190.378 159.804 189.067C159.804 187.171 159.967 185.275 160.143 183.385C160.289 181.818 160.498 180.26 160.77 178.713C161.205 176.26 161.894 173.857 162.825 171.542C163.729 169.421 164.95 167.443 166.447 165.676C168.913 162.586 172.214 160.239 175.973 158.905C179.207 157.76 182.421 156.559 185.643 155.39C186.081 155.334 186.2 155.704 186.351 155.962C186.939 156.885 187.82 157.592 188.858 157.975C191.145 158.885 193.615 159.27 196.077 159.102C197.442 159.091 198.803 158.959 200.144 158.708C202.024 158.283 203.829 157.704 204.531 155.63C204.535 155.586 204.55 155.544 204.574 155.507C204.598 155.47 204.631 155.439 204.669 155.416C204.707 155.393 204.75 155.38 204.795 155.376C204.839 155.373 204.884 155.379 204.926 155.396Z" fill="#FFC122"/>
<path d="M139.581 158.942C139.807 159.069 140.039 159.184 140.277 159.286C141.278 159.676 142.239 160.158 143.147 160.727C143.392 161.041 143.254 161.342 143.147 161.662C142.113 164.451 142.013 167.387 141.894 170.28C141.762 174.078 141.756 177.888 141.894 181.686C142.007 184.856 142.126 188.026 142.414 191.19C142.495 191.492 142.513 191.806 142.468 192.115C142.423 192.424 142.315 192.721 142.151 192.988H92.2354C91.9411 192.546 91.8291 192.011 91.9221 191.492C91.9221 187.238 91.9597 182.985 91.9221 178.732C91.8812 174.952 91.6154 171.179 91.1262 167.43C91.0071 166.522 90.8143 165.624 90.5496 164.746C90.399 164.414 90.3553 164.045 90.4243 163.687L90.8254 163.109C91.0417 162.745 91.3242 162.424 91.6588 162.161C94.0277 160.093 96.8917 158.972 99.8057 157.951C102.093 157.156 104.368 156.319 106.643 155.488C107.038 155.341 107.445 155.131 107.896 155.384C108.134 155.722 107.99 156.085 107.928 156.43C107.37 159.317 108.454 161.693 110.296 163.817C110.949 164.516 111.657 165.162 112.415 165.75C112.89 166.138 113.455 166.407 114.059 166.533C114.664 166.66 115.291 166.64 115.886 166.476C117.479 166.17 118.991 165.552 120.334 164.659C121.677 163.765 122.822 162.614 123.701 161.274C124.76 159.752 125.604 158.096 126.208 156.35C126.327 156.012 126.396 155.648 126.759 155.451C127.524 155.211 128.182 155.648 128.871 155.808C129.774 156.018 130.657 156.282 131.541 156.566C132.723 156.974 133.939 157.278 135.176 157.477C136.692 157.815 138.234 158.086 139.581 158.942Z" fill="#FFC122"/>
<path d="M45.5223 155.833H45.7104C45.8357 155.895 45.9798 155.888 46.0926 155.962L57.7427 159.711C57.962 159.779 58.1751 159.871 58.3694 159.957C59.9862 160.936 60.7884 162.561 61.6407 164.1C63.6962 167.793 64.561 171.794 64.8555 175.974C65.125 179.741 64.9558 183.508 65.031 187.275C65.0686 188.919 64.7239 190.538 64.8179 192.2C64.8319 192.348 64.8146 192.497 64.7671 192.637C64.7197 192.778 64.6431 192.908 64.5422 193.018H19.8534C19.7164 192.832 19.6262 192.617 19.5903 192.39C19.5543 192.164 19.5736 191.932 19.6466 191.714C20.315 187.466 20.8018 183.202 21.1067 178.922C21.464 175.138 21.4135 171.327 20.9563 167.553C20.8083 166.26 20.3186 165.028 19.5359 163.978C18.7532 162.929 17.7046 162.099 16.4943 161.57C15.7753 161.218 14.9852 161.029 14.1819 161.016C13.7554 161.063 13.3239 161.001 12.9285 160.837C12.8772 160.808 12.8398 160.76 12.8246 160.703C12.8093 160.647 12.8174 160.586 12.847 160.536C13.3152 160.29 13.8118 160.1 14.326 159.97L27.3172 155.882C27.3812 155.863 27.444 155.841 27.5052 155.815C27.9501 155.815 28.0003 156.208 28.1319 156.473C28.6871 157.456 29.5479 158.239 30.5885 158.708C32.3692 159.539 34.3077 159.994 36.2788 160.043C38.3876 160.159 40.5018 159.951 42.5456 159.428C43.0909 159.285 43.6169 159.078 44.1123 158.812C44.5573 158.614 44.9252 158.28 45.1612 157.859C45.3972 157.439 45.4887 156.955 45.4221 156.479C45.3881 156.371 45.3795 156.257 45.3968 156.145C45.4142 156.033 45.4571 155.926 45.5223 155.833Z" fill="#163994"/>
<path d="M12.8282 160.745C13.7241 160.655 14.6287 160.7 15.5104 160.881C16.5715 161.171 17.5581 161.679 18.4057 162.37C19.15 162.981 19.8001 163.694 20.3359 164.488C20.4729 164.711 20.5843 164.948 20.668 165.196C20.9426 166.068 21.1521 166.959 21.2947 167.861C21.5454 169.024 21.2947 170.218 21.6394 171.363C21.6979 172.901 21.656 174.441 21.5141 175.974C21.4419 176.69 21.423 177.41 21.4577 178.128C21.4948 178.619 21.446 179.112 21.3135 179.587C21.2792 179.682 21.2664 179.783 21.2759 179.883C21.2898 180.961 21.2059 182.038 21.0252 183.102C20.9592 184.039 20.8441 184.971 20.6806 185.897C20.5239 186.623 20.5176 187.386 20.4236 188.131C20.3296 188.876 20.2231 189.547 20.1166 190.255C20.01 190.963 19.916 191.547 19.8345 192.194C19.8189 192.454 19.8189 192.715 19.8345 192.975H0C0 192.914 0 192.846 0 192.785C0.0689352 190.193 0.112803 187.602 0.213073 185.016C0.269474 183.644 0.426145 182.271 0.532681 180.904C0.59535 180.086 0.664285 179.273 0.764555 178.442C0.980069 176.425 1.33179 174.424 1.81738 172.453C2.43822 169.857 3.62722 167.424 5.30175 165.325C6.33995 164.037 7.63693 162.972 9.11199 162.198C9.90787 161.785 10.7414 161.441 11.5561 161.065C11.7002 160.973 11.8945 161.004 12.0198 160.862C12.2749 160.757 12.553 160.717 12.8282 160.745Z" fill="#B4C2E8"/>
<path d="M142.163 193C142.183 192.15 142.13 191.299 142.007 190.458C141.946 189.904 141.929 189.346 141.957 188.79C141.9 187.06 141.681 185.336 141.737 183.594C141.544 182.431 141.485 181.25 141.562 180.073C141.562 176.889 141.562 173.709 141.562 170.532C141.587 169.063 141.706 167.598 141.919 166.143C141.994 165.565 142.007 164.98 142.101 164.389C142.262 163.223 142.602 162.088 143.11 161.022C143.123 160.924 143.123 160.825 143.11 160.727C144.026 161.318 144.888 161.988 145.685 162.727C146.036 163.078 146.487 163.312 146.838 163.669C148.315 165.146 149.595 166.801 150.649 168.593C152.165 171.217 153.225 174.072 153.782 177.039C154.039 178.319 154.196 179.612 154.409 180.904C154.449 181.654 154.551 182.4 154.716 183.133C154.74 183.193 154.753 183.258 154.753 183.324C154.684 184.376 155.048 185.398 154.979 186.451C154.963 186.581 154.963 186.714 154.979 186.844C155.33 188.9 155.117 190.969 155.167 193H142.163Z" fill="#E4B334"/>
<path d="M64.5484 193C64.5484 192.083 64.5484 191.153 64.5484 190.248C64.5351 189.889 64.5688 189.529 64.6487 189.177C64.7066 188.89 64.7297 188.596 64.7176 188.303C64.7176 184.959 64.7176 181.616 64.7176 178.276C64.7375 177.885 64.6973 177.492 64.5986 177.113C64.5452 176.889 64.5262 176.659 64.5422 176.429C64.4949 173.796 64.0752 171.181 63.2951 168.661C62.4359 165.869 61.0592 163.256 59.2342 160.954C58.9243 160.659 58.6432 160.335 58.3944 159.988C60.269 160.464 62.0472 161.251 63.6523 162.315C67.6567 164.858 70.7781 168.538 72.6013 172.865C73.616 175.182 74.3338 177.614 74.7383 180.104C74.9944 181.721 75.1597 183.351 75.2334 184.986C75.3462 187.177 75.4026 189.368 75.4151 191.56C75.4151 192.052 75.4151 192.544 75.4151 193.031L64.5484 193Z" fill="#B4C2E8"/>
<path d="M90.4242 163.663C90.8217 164.349 91.0813 165.103 91.1887 165.885C91.3893 166.974 91.5021 168.082 91.6776 169.172C91.853 170.262 91.7152 171.523 91.9972 172.681C92.0475 173.07 92.0601 173.464 92.0348 173.856C91.9918 174.642 92.0465 175.429 92.1977 176.202C92.2166 176.33 92.2166 176.461 92.1977 176.589V193H81.8073C81.8073 191.954 81.8073 190.907 81.8073 189.861C81.791 189.242 81.8371 188.624 81.9451 188.014C82.009 187.46 82.0257 186.902 81.9953 186.346C81.9617 185.888 82.0105 185.427 82.1394 184.986C82.1732 184.859 82.188 184.728 82.1833 184.598C82.3397 182.485 82.6539 180.387 83.1233 178.319C83.4461 176.785 83.8646 175.272 84.3767 173.789C85.4137 170.571 87.0242 167.559 89.1332 164.894C89.487 164.413 89.9239 163.996 90.4242 163.663Z" fill="#E4B334"/>
<path d="M180.259 16.6185C181.185 16.71 182.09 16.9513 182.935 17.3325C183.148 17.4064 183.336 17.5911 183.662 17.468C183.606 16.4029 183.729 15.336 184.026 14.3102C184.376 13.2824 184.959 12.3459 185.73 11.571C186.528 10.7706 187.511 10.171 188.594 9.82281C189.648 9.49378 190.763 9.3971 191.859 9.53966C192.948 9.66407 193.991 10.0441 194.899 10.6477C195.135 10.4381 195.307 10.1671 195.394 9.8659C196.268 7.89361 197.53 6.10981 199.106 4.61639C200.682 3.12296 202.543 1.94916 204.581 1.162C207.071 0.167082 209.774 -0.203129 212.446 0.0847889C215.964 0.403554 219.282 1.83326 221.903 4.15974C223.677 5.69957 225.105 7.5865 226.095 9.6997C226.585 10.7768 226.958 11.9012 227.211 13.0545C227.28 13.3684 227.399 13.4299 227.712 13.3315C228.439 13.0915 229.182 12.9043 229.937 12.7713C231.683 12.4906 233.468 12.5408 235.195 12.919C235.545 12.9929 235.947 12.919 236.235 13.2145C237.4 14.8026 238.742 16.2923 239.512 18.1389C241.862 23.6789 241.392 28.8741 237.632 33.62C236.116 35.5467 233.872 36.5008 231.466 37.0425C230.507 37.2579 230.501 37.2272 231.021 38.0889C232.136 39.9356 232.801 41.8315 232.306 43.9982C232.16 44.6046 231.921 45.1858 231.597 45.7218C229.279 49.7475 222.912 52.8622 217.654 48.2209C217.532 48.0753 217.36 47.9788 217.171 47.9501C216.958 48.2517 217.083 48.621 217.046 48.9534C216.745 51.7727 215.93 54.3703 213.668 56.3031C211.993 57.6299 209.995 58.5041 207.871 58.8392C206.137 59.2321 204.335 59.2357 202.599 58.8499C200.863 58.4641 199.237 57.6988 197.844 56.6109C195.916 55.0559 194.571 52.9136 194.021 50.5231C193.922 50.1756 193.846 49.8219 193.796 49.4643C193.714 48.9165 193.482 48.898 193.075 49.212C192.292 49.8195 191.453 50.3532 190.568 50.8062C187.028 52.616 183.675 51.9819 180.541 49.8891C179.47 49.2091 178.57 48.299 177.908 47.2273C177.247 46.1557 176.843 44.9505 176.725 43.7028C176.646 42.6217 176.754 41.5352 177.045 40.4896C177.671 37.8489 178.53 35.3005 180.729 33.4292C176.305 31.6934 174.243 27.3722 175.534 22.7309C176.153 20.4504 177.611 18.4765 179.626 17.191C179.884 17.0569 180.102 16.8597 180.259 16.6185Z" fill="#6EC9E6"/>
<path d="M7.16926 16.5706C7.17881 16.4942 7.20719 16.4211 7.25197 16.3578C7.29674 16.2945 7.35654 16.2429 7.4262 16.2075C8.67252 14.3383 10.4236 12.8464 12.4835 11.8986C14.2 11.0928 16.0362 10.5609 17.9232 10.3228C21.2062 9.93099 24.524 9.90828 27.8122 10.2551C29.8364 10.4274 31.8669 10.5813 33.8973 10.7352L40.6781 11.24C41.8124 11.3261 42.9467 11.3939 44.0747 11.4739C46.2743 11.6216 48.4615 11.7509 50.6611 11.9355C54.7847 12.2803 58.8958 12.7111 62.988 13.3144C64.0722 13.4744 65.1501 13.6899 66.2342 13.893C66.3593 13.9322 66.4793 13.986 66.5914 14.053C66.61 14.3826 66.7478 14.6947 66.98 14.9333C70.0006 18.7005 71.2853 23.114 71.8242 27.7737C72.526 33.4472 72.137 39.1996 70.6774 44.7321C69.0292 50.8507 64.9621 54.7348 59.065 56.9262C55.7882 58.0643 52.3546 58.7077 48.8813 58.8344C38.9108 59.45 29.2473 57.8188 19.7656 54.9872C16.2395 54.0087 13.0299 52.1537 10.4468 49.6011C7.97142 47.0958 6.60525 44.0612 5.77176 40.7126C5.03484 37.7479 4.68526 34.7031 4.73146 31.6517C4.73146 28.7709 4.58733 25.8778 5.10747 23.0339C5.48533 20.7958 6.17928 18.6204 7.16926 16.5706Z" fill="#733A7E"/>
<path d="M106.486 18.7497C106.789 18.61 107.124 18.5506 107.457 18.5773C109.124 18.5404 110.779 18.3927 112.433 18.1957H112.634C113.962 18.1157 115.304 18.1218 116.62 17.9372C117.81 17.771 119.02 17.9002 120.198 17.6232C120.265 17.6169 120.332 17.6169 120.398 17.6232C121.652 17.5494 122.905 17.5494 124.159 17.3709C125.412 17.1923 126.559 17.3278 127.737 17.0631C127.801 17.0541 127.867 17.0541 127.931 17.0631C129.232 17.0507 130.532 16.9644 131.823 16.8046C133.082 16.771 134.337 16.6642 135.583 16.4845C135.683 16.4784 135.784 16.4784 135.884 16.4845C137.137 16.4044 138.422 16.4044 139.644 16.2321C140.866 16.0597 142.044 16.1828 143.222 15.912C143.289 15.9087 143.356 15.9087 143.423 15.912C144.751 15.8381 146.086 15.8012 147.409 15.6658C148.474 15.555 149.533 15.4811 150.598 15.475C151.518 15.4706 152.429 15.6532 153.273 16.0112C154.118 16.3693 154.878 16.8951 155.505 17.5555C156.637 18.7366 157.342 20.2508 157.511 21.8644C157.551 22.1234 157.551 22.3871 157.511 22.6461C157.348 23.8772 157.141 25.0345 156.984 26.2348C156.828 27.4351 156.696 28.8324 156.527 30.1251C156.358 31.4177 156.163 32.7104 156 34.0092C155.894 34.7848 155.819 35.5666 155.737 36.3483C155.754 36.5664 155.694 36.7836 155.568 36.9639C155.067 39.1922 154.941 41.4759 154.271 43.6795C153.725 45.8854 152.844 47.9979 151.657 49.9459C149.596 53.0236 146.519 54.6733 143.084 55.7628C139.324 56.957 135.37 57.234 131.428 57.4494C126.96 57.6956 122.485 57.591 118.023 57.9542C114.134 58.3441 110.212 58.2904 106.336 57.7941C104.472 57.5916 102.678 56.9839 101.084 56.0152C98.9032 54.6056 97.7501 52.4819 96.8853 50.1674C96.0559 47.7283 95.5094 45.205 95.2559 42.6454C94.7859 39.1983 94.1342 35.7697 94.1655 32.2857C94.1347 29.8394 94.7043 27.4218 95.8262 25.2376C96.7462 23.4726 98.1793 22.0157 99.9435 21.0519C101.958 19.8885 104.178 19.1075 106.486 18.7497Z" fill="#8AD0F0"/>
<path d="M273.234 8.30379C273.624 8.10409 274.05 7.98271 274.488 7.94677C276.577 7.50032 278.705 7.25499 280.842 7.21427C282.445 7.19158 284.047 7.28003 285.636 7.47895C288.491 7.80299 291.293 8.47714 293.977 9.48565C298.547 11.1215 302.659 13.7936 305.978 17.2847C309.289 20.8359 311.575 25.1895 312.603 29.8973C313.276 32.9822 313.458 36.151 313.141 39.2907C312.883 42.1687 312.201 44.9947 311.117 47.6806C310.964 48.2489 310.723 48.7908 310.403 49.2872C307.879 51.1216 305.113 52.6105 302.181 53.713C298.536 55.0053 294.728 55.8026 290.863 56.0829C287.51 56.3326 284.138 56.1442 280.836 55.5228C270.59 53.6761 264.743 47.4036 262.449 37.6225C261.925 35.4528 261.668 33.2291 261.684 30.9992C261.797 24.7452 262.869 18.7189 266.98 13.616C268.635 11.6696 270.606 10.0057 272.814 8.69159C272.965 8.61772 273.291 8.61772 273.234 8.30379Z" fill="#755BA1"/>
<path d="M139.581 158.942L136.448 158.018C136.052 157.849 135.626 157.759 135.195 157.754C134.016 157.427 132.838 157.095 131.673 156.732C130.05 156.319 128.483 155.722 126.835 155.39C126.051 155.242 125.18 155.267 124.729 154.411C124.628 153.537 124.605 152.655 124.66 151.777C124.723 148.194 124.51 144.611 124.66 141.029C125.481 139.496 126.377 138.007 127.066 136.406C127.424 135.557 127.938 134.775 128.32 133.944C128.531 133.331 128.878 132.772 129.337 132.308C129.795 131.844 130.354 131.486 130.971 131.26C132.851 130.565 134.374 127.247 134.023 125.271C133.822 124.138 133.202 123.683 132.055 123.824C131.656 123.876 131.271 124.006 130.924 124.207C130.578 124.408 130.276 124.675 130.037 124.994C129.68 125.469 129.389 125.988 129.172 126.539C129.053 126.816 129.003 127.296 128.596 127.204C128.188 127.111 128.282 126.662 128.276 126.336C128.276 124.797 128.276 123.258 128.276 121.713C128.289 121.288 128.276 120.862 128.238 120.439C128.094 119.208 127.956 119.06 126.672 119.066C123.836 119.055 121.003 118.862 118.193 118.487C117.077 118.352 116.845 118.118 116.864 117.047C116.864 115.767 116.682 114.505 116.714 113.643C116.512 114.856 116.208 116.05 115.805 117.213C115.561 118.026 114.909 118.124 114.207 118.057C111.75 117.829 109.287 117.687 106.837 117.392C103.879 117.041 100.959 116.524 98.0635 115.939C96.572 115.637 95.7009 116.308 95.5568 117.786C95.0053 125.074 95.726 132.184 98.5273 139.022C99.0357 140.269 99.6088 141.489 100.244 142.679C100.993 144.213 102.153 145.52 103.599 146.457C105.045 147.395 106.723 147.929 108.454 148.003C108.857 147.959 109.263 148.066 109.588 148.305C109.778 148.687 109.847 149.115 109.789 149.536C109.826 150.909 109.789 152.281 109.789 153.654C109.789 155.027 109.313 155.408 107.871 155.39C107.473 155.425 107.084 155.532 106.724 155.704C105.17 156.264 103.591 156.836 102.062 157.409C100.257 158.061 98.4458 158.689 96.6535 159.385C95.3914 159.893 94.2013 160.559 93.1127 161.367C92.3419 161.921 91.5962 162.518 90.8379 163.096C90.8379 162.672 90.8003 162.247 90.8003 161.822C90.8003 149.712 90.8003 137.607 90.8003 125.505C90.8003 123.701 90.6123 121.904 90.6499 120.094C90.6818 116.386 91.2193 112.699 92.2479 109.131C93.3505 105.333 95.3032 101.825 97.9633 98.8637C98.7282 97.9575 99.5665 97.1134 100.47 96.3399C102.677 94.6262 105.247 93.419 107.99 92.8067C110.727 92.184 113.553 92.0258 116.344 92.3389C118.306 92.4972 120.255 92.783 122.178 93.1945C123.676 93.533 125.161 93.9024 126.634 94.3271C129.868 95.2663 132.677 97.2648 134.593 99.9902C136.203 102.252 137.399 104.773 138.127 107.438C138.729 109.521 139.148 111.65 139.381 113.803C139.656 115.983 139.769 118.181 139.719 120.377C139.437 129.333 139.657 138.284 139.594 147.24C139.594 150.933 139.594 154.59 139.594 158.264C139.6 158.48 139.588 158.708 139.581 158.942Z" fill="#FAE470"/>
<path d="M187.266 152.041C186.131 152.595 185.01 153.168 183.863 153.703C182.806 154.197 181.677 154.525 180.516 154.676C179.653 154.783 178.777 154.705 177.947 154.448C175.994 153.904 174.34 152.623 173.347 150.884C172.632 149.624 172.072 148.285 171.68 146.895C171.112 144.876 170.693 142.818 170.427 140.74C170.132 138.598 169.938 136.431 169.8 134.289C169.512 129.832 169.593 125.369 169.719 120.913C169.769 119.017 169.919 117.115 170.095 115.225C170.374 111.796 170.836 108.383 171.48 105.001C171.856 103.136 172.416 101.311 173.153 99.5531C174.141 97.1361 175.795 95.0368 177.928 93.4899C180.981 91.2336 184.525 89.702 188.281 89.0149C190.714 88.5644 193.2 88.4567 195.663 88.6948C200.812 89.1641 205.72 91.0531 209.823 94.144C213.925 97.2349 217.055 101.402 218.851 106.164C219.191 107.092 219.424 108.054 219.546 109.033C219.803 110.818 219.916 112.615 220.023 114.413C220.217 117.595 220.198 120.777 220.11 123.954C220.048 126.114 220.023 128.262 219.828 130.435C219.697 131.839 219.665 133.248 219.553 134.658C219.362 138.201 218.763 141.712 217.766 145.122C217.252 146.822 216.501 148.444 215.535 149.942C215.095 150.599 214.584 151.207 214.013 151.758C212.337 153.36 210.084 154.246 207.746 154.22C206.175 154.257 204.607 154.049 203.102 153.605C203.011 153.572 202.928 153.521 202.859 153.454C202.789 153.387 202.736 153.306 202.701 153.217C202.596 152.607 202.569 151.987 202.62 151.37C202.676 147.942 202.488 144.519 202.62 141.097C203.202 139.626 204.192 138.37 204.8 136.911C205.408 135.452 206.273 134.11 206.887 132.657C206.981 132.408 207.138 132.187 207.343 132.013C207.548 131.84 207.794 131.721 208.059 131.666C210.196 131.143 212.082 128.207 212.032 125.702C212.001 124.027 210.697 123.079 208.799 123.43C207.871 123.603 207.42 123.43 207.006 122.587C206.348 121.276 205.126 120.488 203.873 119.749C202.193 118.74 200.439 117.86 198.759 116.838C194.828 114.529 191.773 111.02 190.061 106.847C189.434 105.29 188.807 104.945 187.109 104.847C180.648 104.471 176.336 108.639 174.362 113.465C173.659 115.413 173.309 117.467 173.328 119.534C173.165 124.594 173.454 129.635 174.926 134.529C175.694 137.293 176.744 139.974 178.06 142.531C179.871 145.886 182.572 147.8 186.464 148.034C186.852 148.034 187.278 148.034 187.573 148.366C187.723 148.737 187.779 149.139 187.736 149.536C187.77 150.081 187.77 150.628 187.736 151.173C187.73 151.53 187.667 151.881 187.266 152.041Z" fill="#41A9CA"/>
<path d="M7.16923 16.5706C7.21526 16.5898 7.25269 16.6246 7.27457 16.6688C7.29646 16.7129 7.30134 16.7633 7.2883 16.8107C7.23604 17.0324 7.1626 17.2488 7.06896 17.457C6.32826 19.0685 5.7936 20.764 5.47719 22.5046C5.2594 23.1889 5.17021 23.9064 5.21398 24.6221C4.7941 27.6075 5.10744 30.5929 5.01344 33.5722C4.97415 33.874 5.00195 34.1806 5.09491 34.4709C5.21322 34.8131 5.25177 35.177 5.20771 35.5358C5.23323 36.3847 5.33812 37.2295 5.52106 38.0595C5.65266 38.9275 5.8156 39.7954 6.02867 40.6449C6.32642 41.8186 6.70755 42.9705 7.16923 44.0919C7.78882 45.6395 8.63314 47.0908 9.67597 48.4008C10.4288 49.3177 11.2891 50.1442 12.2391 50.863C13.5468 51.8779 14.9706 52.7394 16.4818 53.4299C18.2367 54.2426 20.0611 54.9017 21.9339 55.3996C22.7737 55.6151 23.5946 55.8736 24.4406 56.0644C25.8946 56.3845 27.361 56.68 28.8274 56.9693C29.6421 57.1293 30.4505 57.3202 31.2715 57.4433C32.4183 57.6156 33.5464 57.8926 34.712 57.9603C35.3054 58.0087 35.8955 58.0909 36.4792 58.2065C36.9698 58.291 37.4665 58.3363 37.9645 58.342C38.2991 58.3188 38.6352 58.3585 38.9546 58.4589C39.2776 58.541 39.6125 58.568 39.9448 58.5389C40.7118 58.4824 41.483 58.5405 42.2322 58.7113C42.4628 58.7455 42.6973 58.7455 42.9278 58.7113H46.337C47.0375 58.774 47.7438 58.7157 48.4238 58.5389C48.5535 58.5079 48.6889 58.5079 48.8187 58.5389C49.9168 58.5974 51.0181 58.5188 52.0962 58.305C53.8429 58.0966 55.5683 57.7424 57.2538 57.2463C58.4977 56.8798 59.7142 56.4294 60.8949 55.8982C62.0302 55.3481 63.1143 54.7013 64.1348 53.9654C65.2019 53.1583 66.1806 52.2444 67.0552 51.2385C67.6431 50.5267 68.1713 49.7691 68.6344 48.9733C69.551 47.4907 70.2017 45.8646 70.5583 44.1658C70.8591 42.8978 71.185 41.6236 71.3542 40.3371C71.5348 39.5725 71.619 38.7889 71.6049 38.0041C71.8053 36.8415 71.8747 35.6607 71.8117 34.4832C71.8321 34.2582 71.8741 34.0356 71.937 33.8184C72.0468 33.436 72.0468 33.0312 71.937 32.6488C71.8302 32.2705 71.7878 31.8774 71.8117 31.4855C71.8117 30.9622 71.8117 30.4329 71.8117 29.9096C71.8176 29.4854 71.7734 29.062 71.6801 28.6478C71.5685 28.0366 71.489 27.4203 71.4419 26.8011C71.0377 23.3476 69.9317 20.0089 68.1895 16.9831C67.8201 16.3683 67.401 15.7836 66.9361 15.2349C66.7035 14.8485 66.4165 14.4962 66.0838 14.1885C66.2426 14.0626 66.4443 14.001 66.6478 14.0161C67.475 14.1219 68.2855 14.3287 69.0605 14.6317C71.4259 15.3528 73.6384 16.4894 75.5906 17.9864C77.8349 19.7675 79.5834 22.0779 80.673 24.7021C81.537 26.7667 82.1328 28.9299 82.4465 31.1407C82.8597 33.9327 83.042 36.7529 82.9917 39.5738C82.9945 43.0604 82.4643 46.5277 81.4188 49.8597C80.6243 52.4406 79.3188 54.8421 77.5772 56.9262C76.1818 58.5683 74.4667 59.9202 72.5324 60.9027C71.7616 61.2966 70.9782 61.6659 70.176 61.9983C70.0372 62.0457 69.9197 62.1394 69.8441 62.2632C69.7685 62.3869 69.7396 62.5329 69.7624 62.6754C69.8541 64.0544 70.2519 65.397 70.9281 66.6088C71.6744 67.9351 72.7102 69.0829 73.9612 69.9697L74.5879 70.4376C74.5879 70.4376 74.5879 70.5545 74.5879 70.6161C74.5855 70.6313 74.579 70.6456 74.5691 70.6575C74.5592 70.6694 74.5462 70.6785 74.5315 70.6838C74.4679 70.7 74.4028 70.7103 74.3372 70.7146C71.8693 70.852 69.3974 70.524 67.0552 69.7481C65.9179 69.3654 64.8575 68.7904 63.9217 68.0492C62.9508 67.2873 62.1741 66.3136 61.6531 65.2054C61.2771 64.3805 61.3711 64.5406 60.5376 64.6391C59.3407 64.7745 58.1562 64.9591 56.9593 65.0761C55.6307 65.2115 54.3021 65.3408 52.9673 65.3962C48.9628 65.5624 44.952 65.5131 40.9412 65.3593C38.0084 65.2485 35.0755 65.0453 32.1677 64.8914C30.4317 64.7991 28.6958 64.7499 26.9662 64.6206C22.7937 64.3788 18.6823 63.5196 14.7709 62.0722C12.1415 61.1025 9.71099 59.6764 7.59538 57.8618C4.61118 55.2282 2.52211 51.7581 1.61055 47.9207C1.15751 46.1036 0.878469 44.2489 0.777058 42.3807C0.714389 41.2419 0.626654 40.0909 0.657988 38.9398C0.74712 32.8926 2.02384 26.9192 4.41809 21.3473C5.0763 19.845 5.86904 18.403 6.78696 17.0385C6.90482 16.8752 7.03247 16.719 7.16923 16.5706Z" fill="#60397E"/>
<path d="M57.116 130.743C56.8276 131.298 56.7018 131.92 56.7525 132.541C56.7914 133.846 56.7075 135.153 56.5018 136.443C56.4192 137.712 56.2327 138.971 55.9441 140.21C55.3853 142.402 54.4825 144.496 53.2681 146.415C53.0365 146.773 52.7767 147.113 52.491 147.431C52.1124 147.878 51.6928 148.29 51.2377 148.662C50.7104 148.932 50.1276 149.082 49.5331 149.099C48.8187 149.24 48.0854 149.333 47.3898 149.524C46.9454 149.662 46.4681 149.662 46.0237 149.524C45.8594 149.502 45.6928 149.502 45.5286 149.524C45.0774 149.813 44.6136 149.616 44.1687 149.524C39.0198 148.535 34.0275 146.879 29.3225 144.599C28.7453 144.32 28.2114 143.961 27.737 143.534C27.6994 143.442 27.6493 143.67 27.737 143.534C27.8247 143.399 27.7997 143.534 27.8122 143.596C27.9877 144.525 28.1632 145.442 27.6681 146.347C27.5923 146.259 27.5374 146.155 27.507 146.043C27.4767 145.932 27.4718 145.815 27.4926 145.701C27.4926 144.95 27.4926 144.193 27.4926 143.442C27.5098 143.279 27.4876 143.114 27.4277 142.961C27.3678 142.808 27.2719 142.671 27.1479 142.562C26.6591 142.143 26.5212 141.497 26.0638 141.041C25.3556 139.392 25.1739 137.613 24.8104 135.883C24.6475 135.083 24.3905 134.652 23.4505 134.769C22.9136 134.806 22.3746 134.735 21.8662 134.562C21.3578 134.388 20.8905 134.115 20.4925 133.759C18.9239 132.601 17.8496 130.912 17.4782 129.02C17.3516 128.538 17.3727 128.03 17.5388 127.561C17.705 127.091 18.0087 126.68 18.4119 126.379C18.8289 125.994 19.3398 125.722 19.8954 125.588C20.4509 125.454 21.0322 125.464 21.583 125.616C22.1315 125.808 22.5814 126.203 22.8363 126.717C23.3716 127.736 23.7919 128.81 24.0897 129.918C24.2213 130.343 24.2902 130.922 24.9545 130.768C25.6188 130.614 25.3744 130.048 25.2741 129.629C24.309 125.819 24.096 121.928 23.9518 118.026C23.9315 116.738 24.3286 115.478 25.0856 114.427C25.8426 113.375 26.9204 112.588 28.1632 112.178C30.1701 111.553 32.2295 111.104 34.3172 110.836C38.7353 110.116 43.1785 109.556 47.5653 108.669C49.2323 108.331 50.9494 108.282 52.6289 108.005C53.6943 107.832 53.9763 108.005 54.3022 109.07C54.9003 111.056 55.3919 113.071 55.7749 115.108C56.6521 119.685 57.1343 124.326 57.2162 128.983C57.2476 129.574 57.1598 130.152 57.116 130.743Z" fill="#FEC888" fill-opacity="0.65"/>
<path d="M266.103 143.214C265.557 142.482 265.018 141.749 264.473 141.023C263.976 139.298 263.586 137.544 263.308 135.772C263.201 135.046 262.938 134.658 262.054 134.763C261.503 134.82 260.945 134.762 260.418 134.592C259.891 134.422 259.406 134.145 258.996 133.778C257.279 132.362 255.994 130.7 255.957 128.373C255.96 127.71 256.203 127.07 256.643 126.567C257.083 126.065 257.69 125.732 258.357 125.628C259.786 125.289 260.675 125.689 261.409 127.007C261.936 127.958 262.33 128.975 262.581 130.029C262.687 130.491 262.806 130.971 263.47 130.811C264.135 130.651 263.872 130.195 263.778 129.783C263.044 126.756 262.638 123.661 262.568 120.55C262.557 120.026 262.511 119.504 262.43 118.986C261.998 116.179 263.245 114.123 265.77 112.615C266.061 112.453 266.36 112.305 266.667 112.172C267.417 111.896 268.215 111.765 269.017 111.784C275.26 111.748 281.49 111.224 287.648 110.214C288.933 109.993 290.205 109.722 291.477 109.433C292.618 109.174 292.906 109.34 293.207 110.448C294.149 113.97 294.821 117.557 295.218 121.177C295.575 123.708 295.676 126.267 295.519 128.816C295.352 129.382 295.285 129.971 295.319 130.558C295.319 131.174 295.319 131.79 295.319 132.405C295.354 132.83 295.309 133.258 295.187 133.667C295.145 133.792 295.13 133.924 295.143 134.055C295.157 135.102 295.073 136.149 294.892 137.182C294.751 139.005 294.35 140.799 293.702 142.512C293.175 143.997 292.443 145.403 291.527 146.692C291.164 147.16 290.806 147.634 290.412 148.071C289.892 148.637 289.173 148.987 288.4 149.05C287.41 149.16 286.445 149.413 285.467 149.585C285.306 149.614 285.142 149.63 284.978 149.634C284.721 149.634 284.471 149.376 284.22 149.579C283.969 149.782 284.151 150.102 283.932 150.287L283.8 150.207C283.437 149.517 282.735 149.48 282.089 149.364C277.295 148.404 272.637 146.872 268.221 144.802C267.371 144.49 266.634 143.937 266.103 143.214Z" fill="#FEC888" fill-opacity="0.65"/>
<path d="M273.234 8.30379C273.391 8.34688 273.573 8.30379 273.723 8.43305C272.695 9.09785 271.655 9.74418 270.677 10.4767C269.168 11.5583 267.831 12.855 266.71 14.3239C265.256 16.2847 264.142 18.4687 263.414 20.7872C262.971 22.1965 262.638 23.637 262.418 25.096C262.205 26.4872 262.098 27.8783 262.004 29.2756C261.876 30.275 261.876 31.2863 262.004 32.2857C262.104 32.7904 262.004 33.3383 262.042 33.8553C262.148 34.7971 262.273 35.7328 262.461 36.6561C262.742 38.1351 263.14 39.5902 263.652 41.008C264.49 43.3946 265.706 45.6362 267.256 47.6498C268.768 49.5689 270.64 51.186 272.77 52.4142C275.21 53.764 277.855 54.72 280.604 55.2457C281.682 55.4673 282.779 55.5166 283.844 55.769C284.144 55.8029 284.447 55.8029 284.746 55.769C285.179 55.7466 285.613 55.7923 286.031 55.9044C286.292 55.9634 286.56 55.9821 286.827 55.9598C287.56 55.9598 288.293 55.9598 289.033 55.9598C289.432 55.9908 289.834 55.9469 290.217 55.8305C290.375 55.7731 290.545 55.7521 290.712 55.769C291.71 55.8197 292.711 55.7432 293.689 55.5412C295.696 55.2631 297.677 54.835 299.618 54.2609C300.821 53.8731 302.024 53.4914 303.19 53.0298C304.452 52.5067 305.679 51.9043 306.862 51.2262C307.32 50.9615 307.79 50.7091 308.222 50.4075C308.885 50.0184 309.514 49.5757 310.102 49.0841C310.303 48.8871 310.34 49.1518 310.384 49.2934C309.533 51.4337 308.342 53.4282 306.856 55.2027C304.876 57.5206 302.467 59.4486 299.755 60.8842C296.615 62.5572 293.234 63.7506 289.728 64.4236C285.43 65.2532 281.037 65.5079 276.668 65.1807C275.269 65.1072 273.877 64.9406 272.501 64.6821C272.3 64.6452 272.1 64.6452 271.874 64.6083C271.729 64.5716 271.575 64.5875 271.44 64.653C271.306 64.7185 271.199 64.8294 271.141 64.9653C269.261 68.0431 266.341 69.5942 262.888 70.3267C261.583 70.6202 260.246 70.7545 258.908 70.7269C258.789 70.7269 258.645 70.7699 258.545 70.6468C258.444 70.5237 258.62 70.4129 258.708 70.3329C259.493 69.618 260.141 68.7692 260.619 67.8276C261.497 66.0964 262.152 64.2643 262.568 62.3738C262.643 62.0661 262.568 61.9737 262.286 61.8383C261.094 61.3257 259.931 60.7503 258.802 60.1148C256.763 58.9806 254.914 57.5461 253.318 55.8613C251.081 53.4483 249.535 50.496 248.837 47.3051C248.229 44.5112 248.123 41.6342 248.524 38.8044C249.216 33.8542 250.9 29.088 253.481 24.7821C255.546 21.1738 258.139 17.8825 261.177 15.0133C264.011 12.2534 267.436 10.1503 271.204 8.85778C271.858 8.60207 272.539 8.41633 273.234 8.30379Z" fill="#54559C"/>
<path d="M57.116 130.743C57.0596 130.669 56.9718 130.602 56.9468 130.515C56.9279 130.387 56.9279 130.256 56.9468 130.128C57.0408 128.022 56.7901 125.936 56.7337 123.843C56.7337 122.864 56.5081 121.891 56.4203 120.919C56.3263 119.842 56.1571 118.777 55.9879 117.712C55.5873 115.125 55.0306 112.564 54.321 110.042C54.1768 109.537 54.0264 109.033 53.8572 108.534C53.7256 108.165 53.5752 108.091 53.1616 108.183C51.7562 108.447 50.3381 108.64 48.9127 108.762C47.6969 108.91 46.4874 109.156 45.2779 109.377C43.3979 109.747 41.4739 110.03 39.5688 110.313C37.3002 110.652 35.0191 110.929 32.7693 111.396C31.6914 111.612 30.601 111.766 29.5419 112.055C29.0578 112.173 28.5808 112.316 28.113 112.486C27.2586 112.789 26.4856 113.279 25.8526 113.919C25.2196 114.559 24.7432 115.332 24.4595 116.179C24.3241 116.548 24.2562 116.938 24.2589 117.33C24.2589 118.247 24.2589 119.177 24.3091 120.082C24.4286 122.892 24.7596 125.691 25.2992 128.453C25.4559 129.155 25.6627 129.844 25.8382 130.546C25.9071 130.805 25.8382 130.903 25.5938 130.989C25.3494 131.076 25.2741 131.094 25.1112 131.131C24.284 131.309 24.1273 131.223 23.933 130.417C23.6797 129.263 23.2708 128.147 22.7173 127.099L22.429 126.582C22.253 126.28 21.9866 126.038 21.666 125.889C21.3455 125.741 20.9861 125.692 20.6367 125.751C19.8278 125.807 19.0627 126.133 18.4684 126.674C18.1714 126.919 17.9455 127.236 17.8135 127.594C17.6814 127.952 17.6479 128.337 17.7163 128.712C17.8831 129.802 18.2961 130.841 18.9251 131.754C19.554 132.667 20.3829 133.43 21.3511 133.987C21.7866 134.265 22.2787 134.446 22.793 134.517C23.3072 134.588 23.8311 134.548 24.3279 134.399C24.7164 134.289 24.7979 134.356 24.8793 134.732C25.2867 136.652 25.694 138.573 26.0888 140.5C26.1264 140.678 26.2518 140.869 26.0888 141.054C24.3443 139.564 22.7475 137.915 21.3198 136.129C19.025 133.345 17.2338 130.195 16.0243 126.816C15.2159 124.631 14.351 122.464 13.599 120.26C13.0413 118.713 12.6219 117.121 12.3457 115.502C11.9691 113.671 11.9947 111.782 12.4209 109.962C12.6657 109.112 12.9953 108.287 13.4048 107.5C13.5113 107.297 13.6304 107.094 13.7494 106.884C13.781 106.846 13.8038 106.802 13.8166 106.755C13.8293 106.707 13.8316 106.658 13.8233 106.609C13.815 106.561 13.7963 106.515 13.7684 106.474C13.7406 106.434 13.7042 106.399 13.6617 106.373C12.5086 105.561 11.274 105.062 9.81385 105.493C9.71985 105.247 9.93292 105.148 10.0457 105.025C10.6453 104.356 11.4466 103.893 12.3331 103.702C12.9034 103.585 12.9598 103.53 12.7906 102.957C12.598 102.324 12.6245 101.647 12.8658 101.03C13.0413 100.524 13.3571 100.075 13.7777 99.7347C14.1984 99.3944 14.7072 99.1759 15.2472 99.1038C15.2973 99.4546 15.0717 99.7193 14.984 100.039C14.8278 100.594 14.8031 101.177 14.9117 101.742C15.0203 102.308 15.2595 102.841 15.6107 103.302C15.6315 103.338 15.6616 103.367 15.6979 103.388C15.7342 103.409 15.7755 103.42 15.8175 103.42C15.8595 103.42 15.9007 103.409 15.9371 103.388C15.9734 103.367 16.0035 103.338 16.0243 103.302C16.3314 102.834 16.651 102.354 16.9142 101.88C18.1645 99.7775 19.8257 97.9386 21.8023 96.4692C23.0896 95.5297 24.5079 94.7771 26.0136 94.2348C26.5456 94.0371 27.1122 93.945 27.6806 93.9639C30.8516 94.0563 34.0227 94.0932 37.1937 93.9639C39.8629 93.8996 42.5188 93.5717 45.1212 92.9852C45.837 92.8245 46.5326 92.5872 47.1956 92.2773C48.0228 91.8711 48.7748 91.4032 48.9691 90.4307C48.9691 90.2829 49.132 90.2398 49.2761 90.2521C49.3093 90.2461 49.3433 90.2461 49.3764 90.2521C50.554 90.6019 51.6287 91.2247 52.5098 92.068C52.8489 92.3868 53.1059 92.7803 53.2596 93.2159C53.4132 93.6515 53.4591 94.1168 53.3935 94.5733C53.3496 94.8565 53.4561 94.9673 53.7005 94.8996C54.5763 94.6831 55.4118 94.332 56.1759 93.8593C56.7527 93.5512 57.2221 93.0804 57.5237 92.5076C57.8254 91.9349 57.9453 91.2865 57.868 90.6461C57.8304 90.4307 57.9119 90.3383 58.1375 90.3937C58.8219 90.7891 59.401 91.3384 59.827 91.9966C60.253 92.6547 60.5137 93.4029 60.5878 94.1794C60.9234 96.5476 60.7786 98.9576 60.1617 101.271C59.8822 102.386 59.4141 103.447 58.7767 104.41C58.6513 104.58 58.5709 104.778 58.5424 104.987C58.514 105.195 58.5385 105.407 58.6137 105.604C58.9441 106.671 59.1027 107.782 59.0838 108.897C59.0838 111.199 59.2906 113.477 59.4535 115.767C59.6081 117.466 59.5808 119.176 59.372 120.87C59.1778 122.23 59.0838 123.609 58.9208 124.969C58.749 126.999 58.1334 128.968 57.116 130.743Z" fill="#1B326D"/>
<path d="M180.259 16.6199L180.529 16.9154C180.38 17.0474 180.218 17.1649 180.046 17.2662C178.887 17.7956 178.129 18.7805 177.289 19.6546C176.869 20.1226 176.542 20.6632 176.324 21.2488C175.687 22.6594 175.387 24.1943 175.446 25.7362C175.495 27.5157 176.082 29.2408 177.132 30.6914C177.608 31.3664 178.221 31.937 178.933 32.3671C179.645 32.7973 180.44 33.0777 181.268 33.1905C181.337 33.3506 181.231 33.4244 181.124 33.5045C179.932 34.3612 179.017 35.5364 178.486 36.89C177.875 38.2721 177.425 39.7176 177.145 41.1989C177.116 41.8828 177.024 42.5627 176.869 43.2302C177.095 44.0119 177.101 44.8429 177.383 45.6185C177.807 46.751 178.479 47.7784 179.351 48.6286C180.326 49.6202 181.514 50.3857 182.829 50.8692C183.772 51.1897 184.74 51.4326 185.724 51.5955C186.024 51.6325 186.327 51.6325 186.626 51.5955C187.721 51.5336 188.796 51.2857 189.804 50.863C191.122 50.2286 192.364 49.4523 193.507 48.5486C193.599 48.4846 193.696 48.4271 193.796 48.3762C193.965 49.1272 194.103 49.8474 194.291 50.5552C194.68 52.047 195.361 53.45 196.296 54.6856C197.719 56.5413 199.733 57.876 202.018 58.4774C202.851 58.7011 203.702 58.8515 204.562 58.9268C205.125 59.0285 205.704 58.9905 206.248 58.816C206.375 58.7757 206.509 58.757 206.643 58.7606C208.847 58.5742 210.966 57.8414 212.803 56.6307C213.757 56.0199 214.551 55.1976 215.122 54.2301C215.818 53.0341 216.303 51.7314 216.557 50.3767C216.708 49.6395 216.775 48.888 216.757 48.1361C216.756 47.9304 216.768 47.7247 216.795 47.5206C216.795 47.3975 217.014 47.3051 217.102 47.379C217.309 47.5514 217.509 47.7237 217.697 47.9084C218.922 49.1383 220.526 49.9368 222.26 50.1798C223.823 50.4505 225.433 50.2286 226.86 49.5457C228.083 48.9467 229.206 48.1661 230.187 47.2313C230.959 46.4576 231.536 45.5175 231.873 44.4859C232.207 43.5256 232.276 42.4956 232.074 41.5005C231.808 40.1756 231.269 38.9185 230.488 37.8072C230.344 37.5917 230.206 37.364 230.081 37.1362C230.07 37.1139 230.064 37.0894 230.064 37.0646C230.064 37.0397 230.069 37.0152 230.08 36.9928C230.091 36.9703 230.107 36.9506 230.126 36.9349C230.146 36.9193 230.169 36.9081 230.194 36.9023C230.319 36.8645 230.451 36.8478 230.582 36.8531C231.516 36.8297 232.434 36.6203 233.283 36.2375C234.482 35.7486 235.604 35.0958 236.617 34.2985C236.78 34.1866 236.933 34.061 237.074 33.923C238.018 32.9042 238.785 31.7396 239.343 30.476C239.86 29.1673 240.23 27.8071 240.446 26.4195C240.607 25.319 240.654 24.2052 240.584 23.0955C240.534 22.2797 240.389 21.4722 240.152 20.6887C239.542 18.4388 238.427 16.3521 236.886 14.5824C236.579 14.2377 236.26 13.8807 236.009 13.5114C235.834 13.2713 236.084 13.2774 236.228 13.2344C239.028 14.0474 241.467 15.7626 243.153 18.1034C244.364 19.7407 245.181 21.6261 245.543 23.618C245.905 25.6099 245.803 27.6566 245.245 29.6042C244.686 31.5519 243.686 33.35 242.319 34.8634C240.951 36.3769 239.253 37.5664 237.35 38.3427C237.112 38.4412 236.818 38.4535 236.642 38.7059C236.686 39.0198 236.98 39.1614 237.175 39.3584C239 41.162 240.267 43.4374 240.828 45.9201C241.433 48.5734 241.2 51.3446 240.161 53.8645C239.121 56.3844 237.325 58.5333 235.01 60.0249C232.696 61.5165 229.974 62.28 227.207 62.2136C224.439 62.1471 221.758 61.254 219.521 59.6531C219.183 59.4192 218.932 59.0375 218.449 59.0006C218.299 59.3638 218.155 59.727 217.998 60.084C216.074 64.3928 212.809 67.2059 208.09 68.1539C206.091 68.5969 204.015 68.5726 202.027 68.0829C200.039 67.5932 198.197 66.6518 196.647 65.3346C193.967 63.1524 192.259 60.0301 191.884 56.6307C191.867 56.4941 191.842 56.3585 191.809 56.2245C191.439 56.2463 191.078 56.3449 190.75 56.5138C189.177 57.0738 187.509 57.3309 185.837 57.2709C182.668 57.1782 179.632 56.0027 177.251 53.9469C174.626 51.7058 172.969 48.5653 172.62 45.1658C172.271 41.7664 173.255 38.3641 175.371 35.6527C175.509 35.4681 175.641 35.2834 175.772 35.0926C175.772 35.0926 175.772 35.031 175.772 34.988C175.549 34.793 175.283 34.6517 174.995 34.5755C173.564 33.959 172.312 33.0018 171.353 31.7905C170.393 30.5793 169.756 29.1522 169.499 27.6383C169.218 26.1707 169.296 24.6584 169.727 23.2262C170.157 21.794 170.928 20.4828 171.976 19.4007C173.024 18.3186 174.319 17.4966 175.753 17.0024C177.188 16.5082 178.722 16.356 180.228 16.5583L180.259 16.6199Z" fill="#44BFE1"/>
<path d="M295.55 128.816C295.477 128.751 295.421 128.668 295.389 128.575C295.358 128.482 295.35 128.383 295.369 128.287V126.613C295.369 125.006 295.181 123.412 295.024 121.811C294.899 120.605 294.748 119.405 294.573 118.211C294.161 115.515 293.6 112.844 292.893 110.208C292.849 110.054 292.787 109.901 292.73 109.747C292.708 109.667 292.655 109.598 292.583 109.556C292.51 109.513 292.424 109.5 292.342 109.519C292.016 109.574 291.715 109.648 291.37 109.734C289.72 110.15 288.046 110.471 286.357 110.695C284.577 110.947 282.797 111.199 281.011 111.421C280.053 111.538 279.087 111.593 278.122 111.655C276.33 111.784 274.531 111.92 272.733 112.006C271.536 112.067 270.326 112.073 269.123 112.055C268.29 112.034 267.46 112.161 266.673 112.43C265.398 112.372 264.167 111.955 263.126 111.23C259.698 109.014 257.398 105.801 255.255 102.459C255.214 102.367 255.197 102.268 255.205 102.169C255.305 101.554 255.205 100.938 255.336 100.323C255.671 98.8401 256.412 97.4758 257.479 96.3769C258.737 95.0662 260.222 93.9864 261.866 93.1883C263.897 92.1875 266.031 91.4053 268.233 90.8554C270.618 90.2232 273.048 89.7704 275.503 89.5012C277.068 89.3627 278.644 89.3627 280.209 89.5012C282.008 89.6168 283.795 89.8658 285.555 90.246C288.797 90.9091 291.894 92.1347 294.698 93.8654C296.922 95.215 298.86 96.9726 300.407 99.0422C300.964 99.7813 301.374 100.617 301.617 101.504C301.806 102.171 301.822 102.875 301.662 103.549C301.502 104.224 301.172 104.848 300.702 105.364C300.001 106.168 299.15 106.832 298.195 107.321C297.669 107.598 297.13 107.863 296.584 108.109C296.461 108.157 296.356 108.243 296.285 108.354C296.214 108.464 296.18 108.594 296.19 108.725C296.19 109.119 296.246 109.507 296.252 109.901C296.302 113.594 296.365 117.318 296.252 121.024C296.215 122.495 296.165 123.972 296.096 125.443C296.068 126.586 295.884 127.721 295.55 128.816Z" fill="#2043A0"/>
<path d="M106.486 18.7497C106.405 18.8051 106.336 18.8974 106.248 18.9221C104.44 19.3594 102.682 19.9782 101.003 20.7687C99.1961 21.5601 97.6569 22.8414 96.5657 24.462C95.7125 25.7582 95.1309 27.2083 94.8549 28.7278C94.5448 30.2325 94.406 31.7665 94.4412 33.3013C94.4202 33.6607 94.4626 34.021 94.5666 34.3662C94.6187 34.4887 94.6402 34.6217 94.6293 34.754C94.529 35.7389 94.8361 36.6992 94.8486 37.6779C94.881 38.166 94.9586 38.6502 95.0805 39.1245C95.2309 39.8631 95.1933 40.6141 95.3875 41.3527C95.5103 42.025 95.5982 42.703 95.6508 43.3841C95.7761 44.2582 95.8889 45.1322 96.0706 45.9878C96.3196 47.2703 96.6481 48.5366 97.0545 49.7796C97.614 51.4622 98.4874 53.0277 99.6302 54.3963C100.356 55.2153 101.254 55.8704 102.262 56.3168C103.688 56.9482 105.203 57.3633 106.756 57.5479C107.852 57.7018 108.962 57.5848 110.039 57.751C111.096 57.8758 112.159 57.9272 113.223 57.9049C113.624 57.9336 114.027 57.894 114.414 57.788C114.672 57.725 114.938 57.7022 115.203 57.7203C115.974 57.7203 116.739 57.7203 117.509 57.7203C117.877 57.7301 118.244 57.6908 118.6 57.6033C118.926 57.5423 119.258 57.5155 119.59 57.5233C120.488 57.5829 121.39 57.525 122.272 57.3509C122.505 57.3198 122.741 57.3198 122.974 57.3509C124.472 57.3509 125.976 57.3509 127.48 57.3509C128.279 57.3813 129.079 57.3318 129.868 57.2032C130.531 57.127 131.201 57.1126 131.867 57.1601C132.598 57.2228 133.336 57.1646 134.048 56.9878C134.114 56.9753 134.182 56.9753 134.248 56.9878C135.475 56.9446 136.698 56.8212 137.908 56.6184C139.06 56.4781 140.202 56.2726 141.33 56.0029C143.671 55.4734 145.896 54.533 147.897 53.2267C150.134 51.7631 151.846 49.6466 152.792 47.1759C153.499 45.4122 154.065 43.597 154.484 41.7467C154.753 40.5156 154.948 39.3153 155.179 38.0965C155.261 37.6902 155.349 37.2778 155.43 36.8654C155.43 36.8654 155.487 36.8654 155.518 36.8654C155.449 36.9762 155.731 36.8654 155.606 36.9146C155.552 37.9938 155.433 39.0688 155.248 40.134C155.161 40.7495 155.073 41.3651 154.998 41.9806C154.778 43.8273 154.578 45.6185 154.371 47.4405C154.214 48.6717 154.008 49.9028 153.851 51.1339C153.694 52.365 153.544 53.7376 153.387 55.0365C153.299 55.7505 153.193 56.4584 153.105 57.1724C153.068 57.4309 153.036 57.6956 153.017 57.9542C152.962 59.1073 152.604 60.2269 151.98 61.2049C151.355 62.1829 150.484 62.9861 149.452 63.5372C148.014 64.3334 146.346 64.6345 144.714 64.3928C144.52 64.3471 144.323 64.3162 144.125 64.3005C142.621 64.3005 141.129 64.122 139.631 64.0543C137.964 63.9866 136.304 63.8327 134.618 63.7219H134.417C132.75 63.6419 131.083 63.5742 129.404 63.4757C127.875 63.3895 126.346 63.2602 124.817 63.1494C124.75 63.1433 124.683 63.1433 124.616 63.1494C123.081 63.1864 121.552 62.9771 120.022 62.9094C118.324 62.8293 116.632 62.6693 114.934 62.5708C113.235 62.4723 111.537 62.3985 109.839 62.3123C109.691 62.2871 109.539 62.3202 109.416 62.4043C109.293 62.4884 109.208 62.6168 109.181 62.7616C108.385 65.1192 106.705 66.7627 104.644 68.0861C102.78 69.256 100.751 70.148 98.6212 70.733C98.5022 70.4868 98.7152 70.3698 98.8092 70.2406C99.7426 68.9472 100.242 67.4001 100.238 65.8148C100.3 64.6674 100.226 63.5169 100.019 62.3861C99.8934 61.826 99.8934 61.8198 99.3482 61.6967C98.6602 61.5719 97.9606 61.5203 97.2613 61.5428C96.137 61.5403 95.0291 61.2776 94.0274 60.776C93.0257 60.2744 92.1584 59.5481 91.4958 58.6559C90.8211 57.7986 90.3887 56.7815 90.2425 55.7074C89.9103 53.4052 89.5844 51.1092 89.221 48.8132C88.8575 46.5172 88.4564 44.3628 88.0992 42.1345C87.7859 40.2324 87.5227 38.3181 87.2156 36.416C86.8521 34.1877 86.4636 31.9594 86.0875 29.7373C85.9434 28.8632 85.793 27.9953 85.6802 27.1212C85.6031 26.4686 85.6455 25.8078 85.8055 25.1699C86.1177 23.7816 86.8548 22.5203 87.9179 21.5553C88.981 20.5903 90.3191 19.9679 91.7528 19.7715C91.8196 19.7682 91.8865 19.7682 91.9533 19.7715C93.2067 19.6976 94.4224 19.6915 95.6445 19.5253C96.8665 19.3591 98.1136 19.4576 99.3231 19.2114H99.5237C100.821 19.1313 102.124 19.0698 103.415 18.9713C104.432 18.8248 105.458 18.7507 106.486 18.7497Z" fill="#87B3DD"/>
<path d="M255.198 102.182C255.458 102.391 255.671 102.651 255.825 102.945C256.675 104.264 257.604 105.532 258.607 106.743C259.302 107.66 260.087 108.508 260.951 109.273C261.916 110.168 263.002 110.928 264.179 111.532C264.688 111.771 265.221 111.957 265.77 112.086C266.104 112.108 266.422 112.233 266.679 112.443C265.636 112.892 264.709 113.565 263.966 114.413C263.119 115.316 262.669 116.51 262.712 117.737C262.831 119.429 262.863 121.134 263.026 122.833C263.145 124.064 263.283 125.295 263.464 126.527C263.627 127.694 263.865 128.849 264.179 129.986C264.26 130.269 264.323 130.552 264.398 130.872C264.106 130.967 263.809 131.047 263.508 131.112C262.831 131.223 262.587 131.303 262.436 130.429C262.247 129.327 261.872 128.264 261.327 127.284C261.221 127.081 261.095 126.884 260.995 126.668C260.841 126.355 260.592 126.097 260.282 125.928C259.973 125.76 259.617 125.689 259.265 125.726C258.793 125.734 258.328 125.836 257.897 126.025C257.466 126.214 257.079 126.488 256.759 126.828C256.455 127.138 256.275 127.544 256.251 127.973C256.181 128.762 256.315 129.556 256.64 130.281C257.22 131.652 258.177 132.837 259.403 133.704C259.86 134.067 260.399 134.319 260.974 134.436C261.55 134.554 262.146 134.535 262.712 134.381L262.806 134.35C263.157 134.283 263.276 134.35 263.37 134.713C263.464 135.077 263.565 135.544 263.633 135.945C263.878 137.465 264.26 138.967 264.599 140.463C264.642 140.647 264.718 140.844 264.479 140.974C262.001 138.816 259.811 136.359 257.962 133.661C256.809 132.009 255.857 130.23 255.123 128.361C254.083 125.694 253.076 123.026 252.102 120.359C251.408 118.547 250.949 116.657 250.736 114.733C250.421 112.353 250.463 109.941 250.862 107.574C251.061 106.388 251.564 105.271 252.322 104.328C253.08 103.385 254.07 102.647 255.198 102.182Z" fill="#203E8C"/>
<path d="M284.515 155.975C284.314 156.012 284.082 156.067 284.151 156.332C284.452 157.501 283.85 158.258 282.979 158.911C282.304 159.394 281.526 159.72 280.704 159.865C279.446 160.177 278.154 160.335 276.856 160.333C276.092 160.333 275.327 160.333 274.563 160.333C272.728 160.285 270.923 159.866 269.261 159.102C268.248 158.673 267.368 157.989 266.71 157.119C266.46 156.7 266.251 156.259 266.084 155.802C266.084 152.999 266.084 150.199 266.084 147.4C266.084 147.043 266.084 146.68 266.084 146.323C266.579 146.255 266.886 146.6 267.231 146.84C270.507 149.102 274.432 150.277 278.436 150.195C280.071 150.195 281.707 150.256 283.336 150.145C283.535 150.112 283.738 150.154 283.907 150.262L283.957 150.305C283.957 151.875 283.957 153.438 283.919 155.002C283.899 155.205 283.946 155.41 284.054 155.585C284.161 155.76 284.322 155.896 284.515 155.975Z" fill="#FEC888" fill-opacity="0.65"/>
<path d="M45.5223 155.833C45.67 156.163 45.74 156.521 45.727 156.882C45.7139 157.242 45.6183 157.595 45.4471 157.914C45.271 158.23 45.0298 158.506 44.739 158.726C44.1476 159.156 43.4805 159.475 42.7712 159.668C41.3656 160.072 39.9115 160.292 38.4471 160.32C37.6136 160.32 36.7801 160.37 35.9403 160.32C34.0755 160.225 32.2482 159.769 30.5634 158.978C29.8858 158.697 29.2739 158.283 28.7652 157.761C28.2565 157.239 27.8618 156.621 27.6054 155.944C27.5686 155.889 27.5243 155.839 27.4738 155.796C27.6241 155.434 27.6843 155.041 27.6493 154.651C27.6493 152.3 27.6493 149.954 27.6493 147.603C27.6493 147.246 27.6493 146.889 27.6493 146.532C28.1068 146.28 28.4076 146.624 28.7146 146.84C32.0146 149.11 35.9669 150.286 39.995 150.195C41.6306 150.195 43.26 150.275 44.8894 150.115C44.9887 150.098 45.0904 150.103 45.1877 150.128C45.2851 150.154 45.3757 150.199 45.4534 150.262C45.4534 151.758 45.4534 153.26 45.4534 154.756C45.516 155.119 45.516 155.476 45.5223 155.833Z" fill="#FEC888" fill-opacity="0.65"/>
<path d="M202.889 153.426L203.121 153.623C202.795 153.906 202.883 154.239 202.97 154.602C203.008 154.731 203.158 154.762 203.29 154.799C203.729 154.922 204.161 155.064 204.606 155.193C204.733 155.22 204.844 155.292 204.919 155.396C204.799 155.508 204.726 155.659 204.713 155.821C204.598 156.301 204.376 156.75 204.064 157.136C203.752 157.522 203.357 157.836 202.908 158.055C201.808 158.603 200.625 158.971 199.405 159.145C198.418 159.297 197.42 159.367 196.422 159.354C196.158 159.354 195.895 159.422 195.632 159.452C195.468 159.483 195.3 159.483 195.137 159.452C194.515 159.355 193.886 159.304 193.257 159.299C191.267 159.156 189.338 158.566 187.617 157.575C187.003 157.176 186.494 156.64 186.131 156.012C186 155.79 185.943 155.513 185.699 155.396C186.044 155.113 186.501 155.144 186.89 154.977C187.435 154.762 187.485 154.707 187.516 154.122C187.548 153.537 187.516 153.081 187.516 152.564C187.532 152.468 187.521 152.369 187.485 152.278C187.448 152.187 187.388 152.108 187.31 152.047C187.469 151.802 187.54 151.512 187.51 151.223C187.51 150.644 187.51 150.071 187.51 149.493C188.297 149.145 189.155 148.983 190.017 149.019C193.446 148.814 196.815 148.049 199.987 146.754C200.664 146.47 201.241 146.058 201.924 145.738C202.701 145.356 202.82 145.43 202.826 146.28C202.826 148.471 202.826 150.662 202.826 152.854C202.797 153.047 202.819 153.244 202.889 153.426Z" fill="#FEC888" fill-opacity="0.65"/>
<path d="M180.78 58.1142C181.58 58.1476 182.364 58.345 183.081 58.6938C183.799 59.0426 184.435 59.535 184.947 60.1394C185.58 60.8219 186.013 61.6599 186.2 62.5646C186.339 63.1235 186.313 63.7095 186.125 64.2545C185.938 64.7994 185.597 65.2807 185.141 65.6424C184.488 66.1681 183.65 66.4182 182.81 66.338C181.598 66.2166 180.451 65.7412 179.517 64.9731C178.584 64.205 177.905 63.1795 177.571 62.0291C177.434 61.5556 177.414 61.0566 177.514 60.5741C177.613 60.0915 177.829 59.6395 178.144 59.256C178.458 58.8725 178.861 58.5686 179.32 58.3699C179.779 58.1713 180.279 58.0836 180.78 58.1142Z" fill="#6EC9E6"/>
<path d="M283.888 150.262C283.418 150.429 282.92 150.502 282.421 150.478C280.992 150.478 279.562 150.478 278.129 150.478C275.59 150.462 273.078 149.968 270.727 149.025C269.071 148.349 267.524 147.441 266.134 146.329V143.208C266.319 143.282 266.495 143.375 266.66 143.485C267.951 144.466 269.403 145.224 270.953 145.726C273.397 146.667 275.879 147.498 278.379 148.286C279.194 148.539 280.046 148.705 280.886 148.902C281.726 149.099 282.453 149.179 283.23 149.327C283.794 149.419 283.888 149.517 283.888 150.262Z" fill="#E8CE8B"/>
<path d="M45.4848 150.262C44.7123 150.46 43.9122 150.533 43.1159 150.478C42.0192 150.478 40.9162 150.447 39.8195 150.478C38.0621 150.504 36.31 150.28 34.6181 149.813C32.2567 149.235 30.0464 148.174 28.1319 146.698C28.0041 146.594 27.8463 146.531 27.6807 146.52C27.6807 146.458 27.6807 146.403 27.6807 146.347V143.442C27.9251 143.263 28.0253 143.442 28.1444 143.516C29.3493 144.337 30.6494 145.015 32.0173 145.535C33.7908 146.273 35.6333 146.846 37.4507 147.474C38.6262 147.928 39.835 148.294 41.0666 148.569C42.32 148.797 43.5044 149.185 44.7703 149.296C45.0319 149.337 45.2897 149.399 45.5412 149.481L45.4848 150.262Z" fill="#E8CE8B"/>
<path d="M174.845 63.2418C175.866 63.2776 176.843 63.6625 177.606 64.3301C178.369 64.9976 178.871 65.9059 179.025 66.8981C179.073 67.4636 178.908 68.0267 178.562 68.4807C178.215 68.9346 177.711 69.2476 177.145 69.3603C176.434 69.4623 175.709 69.3782 175.042 69.1166C174.375 68.8551 173.791 68.4253 173.347 67.8707C173.027 67.5359 172.779 67.1407 172.618 66.709C172.458 66.2773 172.388 65.8181 172.413 65.3593C172.421 64.7978 172.65 64.2611 173.052 63.8618C173.454 63.4624 173.998 63.2314 174.569 63.2171L174.845 63.2418Z" fill="#6EC9E6"/>
<path d="M169.75 66.3749C170.438 66.4078 171.094 66.6694 171.611 67.1168C172.128 67.5641 172.475 68.1707 172.595 68.8371C172.654 69.2568 172.546 69.6826 172.294 70.0264C172.042 70.3702 171.665 70.6056 171.241 70.6838C170.882 70.7631 170.508 70.7461 170.157 70.6345C169.644 70.4871 169.176 70.2154 168.797 69.8444C168.418 69.4733 168.141 69.0148 167.989 68.5109C167.887 68.2667 167.85 68.0011 167.88 67.7388C167.911 67.4766 168.009 67.2263 168.165 67.0112C168.32 66.7961 168.529 66.6233 168.771 66.5088C169.013 66.3943 169.281 66.3419 169.549 66.3564L169.75 66.3749Z" fill="#6FC9E6"/>
<path d="M12.8282 160.745C12.5963 160.985 12.3018 160.911 12.0198 160.905C12.1164 160.785 12.2392 160.688 12.3791 160.621C12.519 160.554 12.6725 160.518 12.8282 160.517V160.745Z" fill="#7A95CB"/>
<path d="M58.1813 90.3876C58.0936 90.4737 58.0059 90.5599 57.9119 90.6399C57.8116 90.523 57.7113 90.3814 57.9119 90.2706C58.1124 90.1598 58.1124 90.2768 58.1813 90.3876Z" fill="#9B9BCC"/>
<path d="M12.0324 160.899C11.9321 161.096 11.7566 161.108 11.5686 161.102C11.619 161.029 11.6892 160.972 11.7711 160.936C11.853 160.9 11.9435 160.887 12.0324 160.899Z" fill="#7A95CB"/>
<path d="M46.0926 155.962C46.023 155.98 45.9495 155.978 45.8815 155.955C45.8134 155.932 45.7539 155.889 45.7103 155.833C45.7792 155.805 45.8559 155.803 45.9262 155.827C45.9965 155.851 46.0556 155.899 46.0926 155.962Z" fill="#B5E1F7"/>
<path d="M15.2473 99.1047C15.2473 99.026 15.2727 98.9949 15.3234 99.0115C15.3234 99.0115 15.3234 99.0674 15.3234 99.0736C15.296 99.0765 15.2684 99.0765 15.241 99.0736L15.2473 99.1047Z" fill="#5F78BA"/>
<path d="M107.859 155.378C108.205 155.183 108.576 155.034 108.962 154.934C109.124 154.899 109.267 154.806 109.363 154.673C109.459 154.539 109.501 154.376 109.482 154.214C109.482 153.1 109.482 151.986 109.482 150.872C109.482 150.416 109.482 149.954 109.482 149.499C110.199 149.144 110.999 148.982 111.8 149.031C116.043 148.717 120.129 147.868 123.87 145.769C124.666 145.326 124.785 145.418 124.785 146.384C124.785 148.816 124.785 151.241 124.785 153.672C124.719 153.993 124.752 154.325 124.879 154.627L126.86 155.242C126.997 155.451 126.784 155.501 126.684 155.605C126.408 156.412 126.114 157.206 125.794 157.994C125.041 159.851 123.952 161.559 122.579 163.035C120.571 165.267 117.752 166.637 114.727 166.851C113.963 166.918 113.202 166.698 112.596 166.236C110.925 165.089 109.534 163.592 108.523 161.853C108.127 161.07 107.828 160.244 107.633 159.391C107.295 157.987 107.614 156.689 107.859 155.378Z" fill="#FEC888" fill-opacity="0.65"/>
<path d="M126.722 155.593C126.784 155.476 126.841 155.353 126.897 155.23C127.255 155.273 127.605 155.365 127.938 155.501L131.698 156.615C131.735 156.775 131.698 156.879 131.516 156.781C130.831 156.664 130.156 156.493 129.498 156.27C128.821 156.116 128.157 155.895 127.493 155.654C127.24 155.599 126.98 155.578 126.722 155.593Z" fill="#8BC9EA"/>
<path d="M131.535 156.781L131.716 156.609C132.725 156.916 133.734 157.224 134.743 157.532C134.907 157.56 135.058 157.637 135.176 157.754C134.915 157.768 134.653 157.745 134.399 157.686C133.49 157.415 132.581 157.169 131.679 156.904C131.604 156.886 131.604 156.824 131.535 156.781Z" fill="#79C2E6"/>
<path d="M218.963 13.4067C218.669 13.2774 218.374 13.1482 218.086 13.0066C217.078 12.4869 215.952 12.2284 214.815 12.2556C214.187 12.2272 213.559 12.2477 212.935 12.3172C211.286 12.6242 209.759 13.383 208.53 14.506C207.302 15.6289 206.421 17.0702 205.991 18.6635C205.501 20.5487 205.696 22.5429 206.543 24.302C206.649 24.5359 206.756 24.7759 206.85 25.0222C206.85 25.0529 206.793 25.1268 206.756 25.1637C206.741 25.1713 206.725 25.1752 206.709 25.1752C206.692 25.1752 206.676 25.1713 206.662 25.1637C206.491 25.0631 206.336 24.941 206.198 24.8006C205.111 23.6395 204.357 22.2166 204.011 20.6764C203.904 20.0977 203.785 19.5253 203.735 18.9405C203.741 18.2888 203.836 17.6408 204.017 17.0138C204.285 15.7262 204.868 14.522 205.715 13.5052C206.865 12.0982 208.437 11.0836 210.209 10.6059C211.223 10.3054 212.287 10.2009 213.342 10.2982C214.006 10.3444 214.66 10.4811 215.285 10.7044C216.752 11.1728 218.042 12.0626 218.988 13.259C218.988 13.259 218.995 13.3205 218.963 13.4067Z" fill="#44BFE1"/>
<path d="M203.898 34.9572C203.949 34.0194 204.368 33.1375 205.067 32.4966C205.766 31.8557 206.69 31.5057 207.646 31.5201C208.603 31.5344 209.516 31.912 210.194 32.5735C210.873 33.235 211.265 34.1291 211.287 35.068C211.289 35.5538 211.19 36.035 210.998 36.4825C210.805 36.93 210.523 37.3345 210.167 37.6716C209.81 38.0088 209.388 38.2715 208.926 38.444C208.464 38.6164 207.97 38.6951 207.476 38.6751C206.502 38.6413 205.581 38.2324 204.911 37.5367C204.242 36.841 203.878 35.9144 203.898 34.9572Z" fill="white"/>
<path d="M199.536 35.5789C199.497 36.5138 199.091 37.3976 198.404 38.0455C197.717 38.6933 196.801 39.0551 195.848 39.0551C194.896 39.0551 193.98 38.6933 193.292 38.0455C192.605 37.3976 192.199 36.5138 192.16 35.5789C192.14 35.0906 192.22 34.6033 192.396 34.1462C192.572 33.6892 192.84 33.2718 193.185 32.9192C193.529 32.5666 193.943 32.286 194.401 32.0944C194.858 31.9027 195.351 31.8039 195.848 31.8039C196.346 31.8039 196.838 31.9027 197.296 32.0944C197.753 32.286 198.167 32.5666 198.511 32.9192C198.856 33.2718 199.124 33.6892 199.3 34.1462C199.476 34.6033 199.557 35.0906 199.536 35.5789Z" fill="white"/>
<path d="M219.302 30.9376C221.445 30.833 223.006 32.8335 222.999 34.5447C222.976 35.503 222.579 36.4159 221.892 37.096C221.204 37.776 220.277 38.1715 219.302 38.2011C218.305 38.2011 217.348 37.812 216.643 37.1194C215.938 36.4268 215.542 35.4873 215.542 34.5078C215.542 34.0287 215.641 33.5545 215.832 33.1135C216.022 32.6726 216.301 32.2737 216.652 31.9407C217.003 31.6077 217.418 31.3473 217.873 31.175C218.329 31.0027 218.814 30.9219 219.302 30.9376Z" fill="white"/>
<path d="M198.508 49.8597C198.555 49.236 198.66 48.6178 198.822 48.013C198.876 47.8251 198.897 47.6294 198.884 47.4344C198.771 46.561 198.561 45.7024 198.258 44.8737C198.11 44.5447 197.925 44.2329 197.706 43.9442C196.812 42.6643 195.508 41.7135 194.003 41.2419C192.988 40.965 191.921 40.9323 190.891 41.1466C189.861 41.3609 188.899 41.8159 188.087 42.4731L187.855 42.6516C187.623 42.5038 187.786 42.3561 187.855 42.2515C188.386 41.4569 189.093 40.7901 189.923 40.3002C190.519 39.9389 191.174 39.6807 191.859 39.5369C193.108 39.2804 194.403 39.344 195.619 39.7215C197.149 40.2453 198.422 41.3155 199.185 42.7193C199.691 43.5783 199.943 44.5589 199.912 45.5508C199.903 45.682 199.903 45.8136 199.912 45.9448C200.1 47.3359 199.467 48.4931 198.809 49.6381C198.747 49.7427 198.609 49.7981 198.502 49.8781L198.508 49.8597Z" fill="#44BFE1"/>
<path d="M198.503 49.8597C198.503 49.8597 198.471 49.9389 198.458 49.9389C198.446 49.9389 198.408 49.8962 198.509 49.8658L198.503 49.8597Z" fill="#44BFE1"/>
<path d="M51.833 28.617H63.057C63.3574 28.5954 63.659 28.5954 63.9594 28.617C64.3847 28.6666 64.7771 28.8662 65.0638 29.1787C65.3505 29.4912 65.512 29.8953 65.5181 30.3159C65.5242 30.7365 65.3746 31.145 65.0971 31.4654C64.8197 31.7858 64.4332 31.9964 64.0095 32.0579C63.7772 32.0917 63.5422 32.1041 63.3076 32.0948H40.2582C39.9988 32.1107 39.7384 32.1003 39.4811 32.0641C39.0772 31.9883 38.7128 31.7766 38.4507 31.4654C38.1886 31.1542 38.0452 30.7629 38.0452 30.359C38.0452 29.9551 38.1886 29.5638 38.4507 29.2526C38.7128 28.9414 39.0772 28.7296 39.4811 28.6539C39.7803 28.6169 40.0822 28.6046 40.3835 28.617H51.833Z" fill="white"/>
<path d="M30.8704 36.8777H41.2797C41.5468 36.8623 41.8147 36.8623 42.0818 36.8777C42.5001 36.9198 42.8899 37.1051 43.1832 37.401C43.4765 37.697 43.6545 38.0848 43.6861 38.4966C43.7076 38.8923 43.5907 39.2833 43.3547 39.6046C43.1187 39.926 42.7779 40.1584 42.3889 40.2632C42.0329 40.3518 41.6646 40.383 41.2985 40.3556H20.574C20.309 40.3709 20.0432 40.3709 19.7781 40.3556C19.326 40.3209 18.9045 40.1174 18.6004 39.787C18.2962 39.4565 18.1326 39.0241 18.143 38.5787C18.1534 38.1334 18.3372 37.7089 18.6565 37.3925C18.9757 37.0761 19.4063 36.8919 19.8596 36.8777C20.0915 36.8777 20.3234 36.8777 20.5615 36.8777H30.8704Z" fill="white"/>
<path d="M56.1384 36.8777H63.1509C63.3828 36.8777 63.621 36.8777 63.8528 36.8777C64.2911 36.9012 64.7052 37.0823 65.0162 37.3866C65.3271 37.6909 65.5131 38.097 65.5386 38.5274C65.5556 38.9409 65.4216 39.3468 65.1607 39.6719C64.8999 39.9969 64.5294 40.2198 64.116 40.3002C63.8871 40.3453 63.6539 40.366 63.4204 40.3617H48.7999C48.534 40.3669 48.2685 40.3379 48.0103 40.2755C47.5936 40.1878 47.226 39.9489 46.9809 39.6066C46.7358 39.2642 46.6312 38.8437 46.688 38.4289C46.7258 38.0339 46.9032 37.6644 47.1894 37.3845C47.4755 37.1045 47.8524 36.9318 48.2547 36.8961C48.5218 36.8807 48.7897 36.8807 49.0568 36.8961L56.1384 36.8777Z" fill="white"/>
<path d="M26.352 28.617H32.2617C32.5266 28.5985 32.7926 28.5985 33.0576 28.617C33.4786 28.6698 33.8663 28.8697 34.1496 29.1802C34.433 29.4906 34.5931 29.8909 34.6007 30.3078C34.6083 30.7246 34.4629 31.1303 34.1911 31.4505C33.9192 31.7707 33.5391 31.9842 33.1202 32.0518C32.9133 32.0864 32.7034 32.1009 32.4935 32.0948H20.0977C19.8314 32.1118 19.5641 32.0827 19.3081 32.0087C18.9463 31.8993 18.6301 31.6779 18.4069 31.3775C18.1837 31.0772 18.0654 30.714 18.0696 30.3421C18.0739 29.9703 18.2004 29.6098 18.4304 29.3144C18.6604 29.019 18.9815 28.8046 19.3457 28.7032C19.669 28.6229 20.0032 28.5938 20.3359 28.617H26.352Z" fill="white"/>
<path d="M26.3646 44.6644C28.3386 44.6644 30.3064 44.6644 32.2742 44.6644C32.5736 44.6571 32.8731 44.6715 33.1704 44.7075C33.5687 44.7746 33.9298 44.9786 34.1892 45.283C34.4487 45.5875 34.5895 45.9725 34.5867 46.3695C34.5913 46.7828 34.4434 47.1838 34.1704 47.4984C33.8974 47.8129 33.5177 48.0198 33.1014 48.0807C32.8677 48.0961 32.6332 48.0961 32.3995 48.0807H20.2857C20.0519 48.093 19.8176 48.093 19.5839 48.0807C19.1683 48.0198 18.7881 47.8164 18.5106 47.5066C18.233 47.1968 18.076 46.8005 18.0673 46.388C18.0619 45.9748 18.2106 45.5739 18.4854 45.261C18.7601 44.948 19.1419 44.7446 19.5588 44.689C19.8593 44.6706 20.1607 44.6706 20.4612 44.689C22.429 44.6583 24.3968 44.6644 26.3646 44.6644Z" fill="white"/>
<path d="M45.3218 48.1053H40.3083C40.0764 48.1053 39.8383 48.1053 39.6064 48.1053C39.257 48.0755 38.9253 47.9416 38.6554 47.7216C38.3855 47.5016 38.1904 47.206 38.0961 46.8742C38.0172 46.6422 37.9917 46.3959 38.0213 46.153C38.0509 45.9101 38.135 45.6767 38.2674 45.4695C38.3998 45.2623 38.5774 45.0865 38.7872 44.9548C38.9971 44.823 39.234 44.7386 39.4811 44.7075C39.711 44.6715 39.9439 44.6571 40.1767 44.6644C43.6193 44.6644 47.0618 44.6644 50.5044 44.6644C50.736 44.6489 50.9684 44.6489 51.2 44.6644C51.6169 44.7263 51.9973 44.933 52.2722 45.2471C52.547 45.5611 52.6981 45.9615 52.6978 46.3756C52.6825 46.7899 52.5189 47.1856 52.2358 47.493C51.9526 47.8004 51.5681 47.9998 51.1499 48.0561C50.8828 48.0715 50.6149 48.0715 50.3478 48.0561L45.3218 48.1053Z" fill="white"/>
<path d="M59.723 48.1053H56.2261C55.9924 48.1207 55.7579 48.1207 55.5242 48.1053C55.108 48.0464 54.7287 47.8384 54.4592 47.5214C54.1896 47.2044 54.0489 46.8007 54.064 46.388C54.0529 45.9924 54.1885 45.6064 54.4456 45.3018C54.7027 44.9971 55.0638 44.7947 55.4615 44.7321C55.7252 44.6963 55.9914 44.6819 56.2574 44.689C58.6263 44.689 60.9889 44.689 63.3515 44.689C63.5207 44.689 63.6899 44.689 63.8528 44.689C64.3149 44.689 64.758 44.8693 65.0848 45.1902C65.4115 45.5112 65.595 45.9464 65.595 46.4003C65.595 46.8541 65.4115 47.2894 65.0848 47.6103C64.758 47.9312 64.3149 48.1115 63.8528 48.1115C62.9567 48.1423 62.0543 48.1115 61.1518 48.1115L59.723 48.1053Z" fill="white"/>
<path d="M7.43255 16.2013C7.43255 16.2013 7.50867 16.239 7.50867 16.2453C7.50867 16.2515 7.46427 16.2955 7.42621 16.2076L7.43255 16.2013Z" fill="#60397E"/>
<path d="M121.577 35.2896H101.911C101.611 35.3112 101.309 35.3112 101.009 35.2896C100.75 35.2655 100.503 35.1747 100.292 35.0263C100.08 34.878 99.9126 34.6774 99.8057 34.4449C99.6988 34.2123 99.6564 33.9562 99.6828 33.7024C99.7092 33.4486 99.8035 33.2062 99.9561 32.9997C100.116 32.7905 100.333 32.6304 100.583 32.5381C100.987 32.4084 101.412 32.3542 101.836 32.378H141.317C141.518 32.378 141.718 32.378 141.944 32.378C142.315 32.3954 142.666 32.5441 142.934 32.7966C143.151 32.952 143.315 33.1677 143.405 33.4157C143.496 33.6636 143.508 33.9326 143.442 34.1877C143.376 34.4764 143.22 34.7376 142.995 34.9342C142.77 35.1309 142.488 35.253 142.188 35.2834C141.888 35.305 141.586 35.305 141.286 35.2834L121.577 35.2896Z" fill="white"/>
<path d="M121.708 38.4412H141.261C141.562 38.4258 141.863 38.4258 142.163 38.4412C142.506 38.4617 142.831 38.602 143.078 38.8368C143.325 39.0716 143.478 39.3854 143.511 39.7215C143.539 40.0594 143.446 40.3963 143.248 40.674C143.05 40.9517 142.759 41.1526 142.427 41.2419C142.172 41.3189 141.909 41.3684 141.643 41.3897C141.409 41.402 141.175 41.402 140.941 41.3897H102.244C101.744 41.4226 101.242 41.3748 100.758 41.2481C100.42 41.1812 100.12 40.994 99.9137 40.7224C99.7078 40.4508 99.6113 40.1141 99.6428 39.7769C99.6801 39.4312 99.8398 39.1092 100.094 38.8673C100.348 38.6254 100.681 38.479 101.034 38.4535C101.335 38.4381 101.636 38.4381 101.936 38.4535L121.708 38.4412Z" fill="white"/>
<path d="M121.508 47.3113H101.861C101.56 47.3113 101.235 47.3113 100.959 47.3113C100.745 47.2826 100.539 47.2082 100.357 47.0935C100.175 46.9787 100.021 46.8264 99.9053 46.647C99.7895 46.4676 99.715 46.2656 99.687 46.055C99.6589 45.8444 99.6781 45.6303 99.743 45.4277C99.8156 45.1897 99.9598 44.9788 100.157 44.8228C100.353 44.6668 100.594 44.573 100.846 44.5536C101.08 44.5381 101.314 44.5381 101.548 44.5536H141.656C141.819 44.5536 141.988 44.5536 142.157 44.5536C142.384 44.5583 142.606 44.6174 142.804 44.7258C143.003 44.8342 143.171 44.9887 143.295 45.1756C143.418 45.3626 143.493 45.5764 143.514 45.7985C143.534 46.0205 143.498 46.244 143.41 46.4495C143.318 46.6974 143.154 46.9131 142.938 47.0697C142.721 47.2262 142.463 47.3167 142.195 47.3297C141.894 47.3482 141.593 47.3482 141.292 47.3297L121.508 47.3113Z" fill="white"/>
<path d="M278.486 37.5486C278.481 37.0729 278.572 36.6009 278.753 36.1598C278.935 35.7187 279.203 35.3172 279.544 34.9785C279.884 34.6398 280.289 34.3705 280.735 34.1862C281.182 34.0019 281.661 33.9062 282.146 33.9046C282.645 33.8844 283.144 33.9636 283.612 34.1375C284.079 34.3114 284.506 34.5763 284.867 34.9164C285.228 35.2565 285.515 35.6647 285.711 36.1165C285.907 36.5683 286.008 37.0544 286.008 37.5456C286.008 38.0367 285.907 38.5228 285.711 38.9746C285.515 39.4264 285.228 39.8346 284.867 40.1747C284.506 40.5148 284.079 40.7797 283.612 40.9536C283.144 41.1275 282.645 41.2067 282.146 41.1865C281.662 41.1849 281.183 41.0894 280.737 40.9055C280.291 40.7216 279.886 40.4529 279.546 40.1148C279.206 39.7768 278.937 39.376 278.755 38.9356C278.573 38.4952 278.482 38.0239 278.486 37.5486Z" fill="white"/>
<path d="M297.575 37.007C297.581 37.7272 297.369 38.4331 296.967 39.0351C296.564 39.6371 295.988 40.1082 295.313 40.3886C294.637 40.669 293.892 40.7462 293.172 40.6103C292.452 40.4744 291.789 40.1316 291.268 39.6253C290.746 39.119 290.389 38.4721 290.242 37.7664C290.096 37.0607 290.165 36.328 290.443 35.6613C290.72 34.9945 291.193 34.4237 291.801 34.0211C292.409 33.6185 293.125 33.4023 293.858 33.3998C294.838 33.3949 295.779 33.772 296.476 34.4483C297.173 35.1246 297.568 36.0448 297.575 37.007Z" fill="white"/>
<path d="M274.149 38.0103C274.158 38.7286 273.949 39.4333 273.549 40.0349C273.15 40.6365 272.577 41.1079 271.904 41.3893C271.231 41.6706 270.488 41.7493 269.77 41.6153C269.051 41.4813 268.389 41.1407 267.868 40.6366C267.347 40.1326 266.99 39.4878 266.843 38.7842C266.695 38.0806 266.764 37.3498 267.04 36.6846C267.316 36.0194 267.787 35.4497 268.394 35.0479C269 34.6461 269.714 34.4303 270.445 34.4278C270.929 34.4204 271.409 34.5077 271.859 34.6844C272.308 34.8612 272.716 35.1239 273.061 35.4573C273.406 35.7907 273.679 36.1881 273.866 36.6264C274.053 37.0647 274.149 37.5351 274.149 38.0103Z" fill="white"/>
<path d="M109.463 148.348C107.967 148.326 106.486 148.064 105.076 147.572C103.661 147.055 102.42 146.162 101.491 144.993C100.163 143.3 99.1061 141.417 98.358 139.41C97.4505 137.189 96.7193 134.903 96.1709 132.571C95.8325 131.039 95.6319 129.494 95.4126 127.93C95.2309 126.588 95.2434 125.246 95.1306 123.91C94.9928 122.505 95.0117 121.089 95.187 119.688C95.252 119.074 95.2708 118.457 95.2434 117.841C95.2603 117.448 95.3605 117.063 95.5374 116.71C95.7144 116.357 95.9643 116.044 96.2712 115.791C96.4138 115.65 96.5934 115.55 96.7902 115.502C96.987 115.454 97.1933 115.461 97.3867 115.521C99.5863 116.044 101.817 116.425 104.055 116.752C105.371 116.961 106.699 117.072 108.021 117.226L110.898 117.552H110.998C112.133 117.601 113.261 117.663 114.395 117.761C115.529 117.86 115.379 117.761 115.598 116.881C115.893 115.742 116.225 114.603 116.507 113.465C116.572 113.177 116.702 112.907 116.889 112.677C116.964 113.809 117.039 114.942 117.096 116.075C117.096 116.598 117.096 117.121 117.146 117.644C117.146 117.995 117.29 118.112 117.629 118.161C118.092 118.229 118.556 118.303 119.02 118.34C120.079 118.432 121.144 118.481 122.21 118.592C124.002 118.783 125.807 118.771 127.605 118.801C128.151 118.801 128.232 118.894 128.339 119.417C128.476 120.059 128.545 120.713 128.545 121.368C128.545 122.944 128.545 124.52 128.545 126.096V127.179C128.752 126.879 128.909 126.549 129.009 126.2C129.356 125.269 129.994 124.469 130.833 123.917C131.537 123.527 132.358 123.396 133.152 123.547C133.41 123.604 133.635 123.759 133.778 123.978C134.124 124.424 134.321 124.963 134.342 125.523C134.379 126.477 134.194 127.426 133.803 128.299C133.469 129.124 132.999 129.89 132.412 130.565C131.79 131.308 130.915 131.804 129.949 131.962C129.813 131.97 129.681 132.016 129.57 132.094C129.459 132.173 129.373 132.28 129.322 132.405C128.74 133.636 128.132 134.824 127.536 136.037C127.204 136.714 126.91 137.397 126.571 138.087C126.136 139.082 125.56 140.013 124.86 140.85C124.698 141.805 123.833 142.192 123.206 142.697C120.198 145.258 116.864 147.283 112.941 148.163C111.838 148.434 110.654 148.877 109.463 148.348Z" fill="#FEC888" fill-opacity="0.65"/>
<path d="M109.463 148.348C110.96 148.325 112.449 148.118 113.894 147.732C114.601 147.541 115.291 147.292 115.955 146.988C118.054 146.059 120.041 144.903 121.877 143.54C122.711 142.925 123.369 142.137 124.234 141.571C124.475 141.358 124.686 141.113 124.861 140.844C124.861 144.353 124.861 147.86 124.861 151.364V154.608C124.553 154.356 124.673 153.993 124.673 153.691C124.673 151.463 124.673 149.24 124.673 147.012V145.781C124.372 145.67 124.234 145.861 124.083 145.96C123.046 146.61 121.933 147.137 120.768 147.529C119.202 148.112 117.585 148.551 115.937 148.84C115.261 149.013 114.566 149.1 113.868 149.099C112.878 149.425 111.819 149.179 110.81 149.45C110.383 149.513 109.95 149.529 109.519 149.499C109.488 149.111 109.475 148.723 109.463 148.348Z" fill="#E8CE8B"/>
<path d="M187.454 148.348C186.183 148.312 184.921 148.128 183.694 147.8C181.915 147.298 180.353 146.239 179.244 144.784C178.092 143.254 177.154 141.579 176.455 139.804C175.618 137.776 174.92 135.695 174.369 133.575C173.921 131.797 173.598 129.991 173.404 128.17C173.108 125.435 172.997 122.684 173.071 119.934C173.101 118.703 173.17 117.492 173.278 116.302C173.347 115.817 173.469 115.34 173.642 114.88C174.402 112.215 175.863 109.792 177.878 107.857C179.56 106.288 181.662 105.22 183.938 104.779C185.225 104.577 186.532 104.532 187.83 104.644C188.354 104.64 188.865 104.805 189.286 105.113C189.707 105.42 190.014 105.854 190.161 106.349C190.261 106.663 190.405 106.964 190.518 107.266C191.096 108.701 191.902 110.037 192.906 111.224C193.464 111.92 194.015 112.621 194.629 113.268C196.152 114.834 197.913 116.158 199.85 117.195C201.247 117.964 202.645 118.74 204.023 119.54C204.624 119.892 205.198 120.287 205.74 120.722C206.542 121.322 207.163 122.124 207.539 123.043C207.702 123.467 207.727 123.48 208.197 123.283C208.888 123.023 209.646 122.989 210.359 123.184C210.924 123.299 211.43 123.604 211.789 124.047C212.149 124.49 212.339 125.043 212.327 125.609C212.336 126.561 212.137 127.503 211.744 128.373C211.356 129.32 210.766 130.174 210.014 130.879C209.486 131.435 208.79 131.81 208.028 131.95C207.864 131.96 207.706 132.017 207.574 132.113C207.442 132.209 207.341 132.34 207.282 132.491C206.304 134.543 205.318 136.585 204.324 138.616C203.913 139.405 203.426 140.153 202.87 140.85C202.508 141.594 201.952 142.231 201.26 142.697C197.769 145.59 193.946 147.862 189.303 148.483C188.69 148.665 188.032 148.616 187.454 148.348Z" fill="#FEC888" fill-opacity="0.65"/>
<path d="M187.454 148.348C190.459 148.282 193.399 147.473 196.002 145.996C197.687 145.078 199.287 144.015 200.783 142.82C201.065 142.592 201.31 142.315 201.573 142.069C202.005 141.657 202.438 141.257 202.87 140.838C202.87 142.377 202.87 143.916 202.87 145.455C202.87 148.114 202.87 150.771 202.87 153.426C202.594 153.155 202.701 152.811 202.701 152.491C202.701 150.527 202.701 148.569 202.701 146.606V145.639C202.343 145.796 201.995 145.975 201.661 146.175C200.804 146.74 199.869 147.182 198.884 147.486C197.051 148.169 195.147 148.652 193.207 148.927C192.029 149.074 190.85 149.247 189.66 149.32C188.933 149.37 188.212 149.505 187.479 149.493L187.454 148.348Z" fill="#E8CE8B"/>
</g>
<defs>
<clipPath id="clip0">
<rect width="314" height="193" fill="white"/>
</clipPath>
</defs>
</svg>
