<svg width="182" height="182" viewBox="0 0 182 182" fill="none" xmlns="http://www.w3.org/2000/svg">
<path d="M91.0004 182C141.121 182 182 141.121 182 91.0004C182 40.8796 141.121 0 91.0004 0C40.8789 0 0 40.8796 0 91.0004C0 141.121 40.8789 182 91.0004 182Z" fill="#48B8E8"/>
<path d="M54.4294 48.1728V148.629L76.5364 129.21V28.7539H73.6599L72.1289 29.9223H57.5966L57.592 28.7343L55.2015 28.7539L33.0934 48.1717H54.4284L54.4294 48.1728Z" fill="#145795"/>
<path d="M36.1394 48.1728H51.9194L72.1288 29.9223H56.3489L36.1394 48.1728Z" fill="white"/>
<path d="M60.0152 43.2666L57.3972 43.2264L51.9205 48.1728H36.1405L41.8746 42.9932L39.0383 42.9513L33.0941 48.1728V148.629H54.429L60.0141 143.723V43.2666H60.0152Z" fill="#FBB429"/>
<path d="M88.7552 48.1728V148.629L110.861 129.21V28.7539V28.7528H107.985L106.455 29.923H91.9239L91.9192 28.735L89.5276 28.7528L67.4196 48.1717H88.7545H88.7556V48.1728H88.7552Z" fill="#034684"/>
<path d="M70.4657 48.1728H86.2453L106.455 29.9223H90.6751L70.4657 48.1728Z" fill="white"/>
<path d="M94.3403 43.2666L91.7223 43.2264L86.2456 48.1728H70.466L76.2 42.9932L73.3638 42.9513L67.4196 48.1728V148.629H88.7545L94.3396 143.723V43.2666H94.3403Z" fill="#FBB429"/>
<path d="M135.413 25.185L119.045 49.6359L144.885 146.711L161.253 122.26L135.413 25.185L132.634 25.9254L131.455 27.4479L117.412 31.186L117.103 30.04L114.797 30.673L98.4279 55.124L119.044 49.6359L135.413 25.185Z" fill="#145795"/>
<path d="M101.37 54.3409L116.62 50.2821L131.454 27.4479L116.206 31.5066L101.371 54.3419V54.3409H101.37Z" fill="white"/>
<path d="M123.18 43.4578L120.639 44.0938L116.62 50.2821L101.372 54.3409L105.581 47.8617L102.83 48.5499L98.429 55.125L124.269 152.2L144.887 146.712L149.022 140.536L123.181 43.4589L123.18 43.4578Z" fill="#FBB429"/>
<path d="M140.201 52.1682L138.903 47.2294L129.756 62.185L131.053 67.1239L140.201 52.1675V52.1682Z" fill="white"/>
<path d="M135.26 49.3636L134.571 46.1544L128.398 56.2494L129.088 59.4578L135.261 49.3639H135.26V49.3636Z" fill="white"/>
</svg>
