<svg width="182" height="182" viewBox="0 0 182 182" fill="none" xmlns="http://www.w3.org/2000/svg">
<g clip-path="url(#clip0)">
<path d="M91.0013 182C141.122 182 182.001 141.121 182.001 90.9996C182.001 40.8793 141.122 0 91.0013 0C40.8804 0 0.000999451 40.8793 0.000999451 90.9996C0.000999451 141.121 40.8804 182 91.0013 182Z" fill="#48B8E8"/>
<path d="M77.7019 127.122L73.8099 140.932L60.7276 150.847V152.972H91.0007H121.273V150.847L108.191 140.932L104.299 127.122L91.0007 126.946L77.7019 127.122Z" fill="#C8CACC"/>
<path d="M60.7276 151.91V152.972H91.0007H121.272V151.91H60.7276Z" fill="white"/>
<path d="M23.4545 18.7645H158.545C162.983 18.7645 166.615 22.396 166.615 26.8336V110.051H15.3858V26.8336C15.3858 22.396 19.0169 18.7645 23.4545 18.7645Z" fill="#666666"/>
<path d="M20.8646 104.571H161.135V26.8336C161.135 25.4196 159.959 24.2433 158.545 24.2433H23.4545C22.0408 24.2433 20.8646 25.4196 20.8646 26.8336V104.571Z" fill="#A9D9E9"/>
<path d="M65.2765 110.051H128.724L80.7543 65.4183L58.1017 87.906L65.2765 110.051Z" fill="#DFF7FB"/>
<path d="M65.2765 110.051H128.724L122.835 104.571H63.5013L65.2765 110.051Z" fill="#807D7D"/>
<path d="M73.9495 81.2175C76.955 78.2333 76.9201 73.3247 73.8702 70.2534C71.8071 68.175 68.893 67.4705 66.2924 68.1562L63.7611 65.6064C63.4586 65.3021 62.9692 65.2946 62.6716 65.5904L58.6819 69.5514C58.384 69.8471 58.3875 70.3366 58.6893 70.6409L61.0731 73.0414C60.1684 75.7376 60.8097 78.866 62.9862 81.0582C66.0354 84.1302 70.944 84.2009 73.9495 81.2175Z" fill="white"/>
<path d="M64.0565 59.8844L58.2869 54.0725C56.3123 52.0826 53.069 52.0719 51.0794 54.0462L46.945 58.1497C44.9554 60.1258 44.9437 63.3694 46.9187 65.3583L52.6897 71.1712C51.3564 76.306 52.6375 82.4026 58.1021 87.9078L80.755 65.419C75.2897 59.9128 69.2027 58.588 64.0565 59.8844Z" fill="#FBB429"/>
<path d="M47.0531 58.0424L46.945 58.1494C44.9554 60.1254 44.9437 63.3691 46.9187 65.3579L52.6897 71.1709C51.3564 76.3056 52.6375 82.4023 58.1021 87.9074L58.7906 87.2239C53.7789 81.6878 52.6385 75.6694 53.9662 70.5581L47.9072 64.4557C46.1843 62.7203 45.902 60.0764 47.0531 58.0424Z" fill="#F5A209"/>
<path d="M166.615 110.051V118.876C166.615 123.316 162.612 126.946 157.719 126.946H24.281C19.3887 126.946 15.3858 123.316 15.3858 118.876V110.051H166.615Z" fill="white"/>
<path d="M51.7367 61.0038L28.3067 101.602V148.488H36.1832L32.8677 101.602L54.7486 62.5788C55.5576 60.8015 52.7928 59.4454 51.7367 61.0038Z" fill="#0E7886"/>
<path d="M0.00390625 160.503H181.996V152.972H0.00390625V160.503Z" fill="#807D7D"/>
<path d="M59.8656 148.488H18.8477C15.8209 148.488 12.1606 153.067 15.1895 153.067H62.3048C65.3334 153.067 62.8938 148.488 59.8656 148.488Z" fill="#FBB429"/>
<path d="M30.5874 98.4279C28.783 98.4279 27.3203 99.8903 27.3203 101.695C27.3203 103.499 28.783 104.962 30.5874 104.962C32.3917 104.962 33.8541 103.499 33.8541 101.695C33.8541 99.8903 32.3917 98.4279 30.5874 98.4279Z" fill="#FBB429"/>
<path d="M30.5874 100.082C29.6969 100.082 28.975 100.804 28.975 101.695C28.975 102.585 29.6969 103.307 30.5874 103.307C31.4782 103.307 32.1994 102.585 32.1994 101.695C32.1994 100.804 31.4782 100.082 30.5874 100.082Z" fill="white"/>
<path d="M54.814 147.087L46.3841 145.685V148.488H54.814V147.087Z" fill="#FF5B61"/>
<path d="M79.3488 130.877H94.5103C95.3591 130.877 96.0534 131.571 96.0534 132.42V151.428C96.0534 152.277 95.3591 152.972 94.5103 152.972H79.3488C78.5 152.972 77.8054 152.277 77.8054 151.428V132.42C77.805 131.571 78.4996 130.877 79.3488 130.877Z" fill="white"/>
<path d="M96.0537 135.22H100.321C101.732 135.22 102.885 136.22 102.885 137.442V147.941C102.885 149.163 101.732 150.163 100.321 150.163H96.0537V148.396H100.321C100.562 148.396 101.089 148.239 101.089 147.941V137.442C101.089 137.144 100.561 136.987 100.321 136.987H96.0537V135.22Z" fill="#ECF0F1"/>
<path d="M93.9749 152.972V130.877H94.5099C95.3588 130.877 96.0534 131.56 96.0534 132.395V151.453C96.0534 152.29 95.3588 152.972 94.5099 152.972H93.9749Z" fill="#ECF0F1"/>
<path d="M83.8391 141.226H88.4336V145.308H83.8391V141.226Z" fill="#20D0C2"/>
<path d="M83.8391 141.226H88.4336L88.178 140.379H84.2141L83.8391 141.226Z" fill="#15BDB1"/>
<path d="M86.3249 130.877V140.784C86.3234 140.918 86.0053 140.925 86.0032 140.784V130.877H86.3249Z" fill="#FBB429"/>
<path d="M14.5771 163.235H167.423V160.504H14.5771V163.235Z" fill="#666666"/>
<path d="M91 120.695C92.4041 120.695 93.5491 119.55 93.5491 118.146C93.5491 116.742 92.4038 115.597 91 115.597C89.5959 115.597 88.4509 116.743 88.4509 118.146C88.4506 119.55 89.5959 120.695 91 120.695Z" fill="#D0D1D4"/>
<path d="M126.68 71.6014C125.585 70.7305 124.206 70.0551 122.988 69.4575C122.26 69.101 121.573 68.7647 121.074 68.4462C119.91 67.7047 119.062 65.8069 119.183 64.2154C119.234 63.5354 119.492 62.6379 120.425 62.2255C121.418 61.7869 122.166 62.5771 122.412 62.8366C122.929 63.3829 123.382 64.177 123.653 65.0163C123.859 65.6497 123.892 66.0998 123.872 66.3376C123.509 66.2853 123.151 66.4954 123.028 66.8537C122.889 67.2586 123.106 67.6994 123.51 67.838C124.149 68.0563 124.736 67.8963 125.091 67.4125C125.619 69.0416 126.275 70.5495 127.038 71.9056C126.924 71.8033 126.806 71.7023 126.68 71.6014ZM137.244 99.6376H143.728V98.9575C141.822 98.8349 139.333 94.5721 139.183 92.268L138.326 79.0712C141.185 78.7168 143.796 76.976 145.886 74.2748C145.804 74.5965 145.764 74.9278 145.765 75.2684C145.772 76.327 146.351 77.2277 147.316 77.6802C147.718 77.8679 148.148 77.96 148.573 77.96C149.22 77.96 149.854 77.7463 150.357 77.3315C151.478 76.408 151.6 75.2527 151.141 74.5901C150.752 74.0292 150.045 73.8874 149.422 74.2464C149.051 74.4597 148.924 74.9335 149.137 75.3039C149.272 75.5389 149.512 75.6765 149.763 75.691C149.696 75.8126 149.577 75.9669 149.371 76.1357C149.003 76.4396 148.442 76.4962 147.974 76.2765C147.728 76.1624 147.318 75.878 147.315 75.2606C147.31 74.3865 147.773 73.6094 148.772 72.8149C149.734 72.0485 151.034 71.4115 152.181 70.8499C152.948 70.4742 153.673 70.1187 154.246 69.7529C155.051 69.24 155.761 68.3694 156.242 67.3016C156.711 66.2615 156.927 65.124 156.849 64.0985C156.731 62.5401 155.963 61.372 154.688 60.8075C153.31 60.2004 151.855 60.6558 150.696 62.0588C150.654 62.1096 150.613 62.1612 150.572 62.2138C150.768 60.7798 150.874 59.2943 150.879 57.7701H137.242H123.607C123.611 59.294 123.718 60.7798 123.913 62.2138C123.873 62.1612 123.832 62.1093 123.789 62.0588C122.63 60.6561 121.174 60.2004 119.798 60.8075C118.522 61.372 117.754 62.5401 117.636 64.0985C117.558 65.1244 117.774 66.2619 118.243 67.3016C118.725 68.3694 119.434 69.24 120.239 69.7529C120.813 70.1187 121.537 70.4742 122.305 70.8499C123.452 71.4119 124.752 72.0485 125.715 72.8149C126.714 73.6094 127.177 74.3865 127.171 75.2606C127.167 75.878 126.757 76.1627 126.513 76.2765C126.044 76.4962 125.483 76.4393 125.115 76.1357C124.909 75.9669 124.79 75.8126 124.722 75.691C124.975 75.6765 125.214 75.5389 125.35 75.3039C125.563 74.9335 125.435 74.4597 125.064 74.2464C124.441 73.8874 123.734 74.0289 123.346 74.5901C122.887 75.2531 123.008 76.4084 124.129 77.3315C124.632 77.7463 125.266 77.96 125.913 77.96C126.339 77.96 126.768 77.8679 127.17 77.6802C128.135 77.2277 128.715 76.327 128.721 75.2684C128.723 74.9278 128.682 74.5965 128.6 74.2748C130.691 76.976 133.302 78.7168 136.16 79.0712L135.303 92.268C135.154 94.5721 132.664 98.8345 130.758 98.9575V99.6376H137.244ZM147.808 71.6014C147.682 71.7023 147.564 71.8033 147.45 71.9056C148.213 70.5495 148.869 69.0416 149.397 67.4125C149.753 67.8959 150.339 68.0563 150.977 67.838C151.383 67.6994 151.598 67.2586 151.46 66.8537C151.338 66.4954 150.978 66.285 150.617 66.3376C150.596 66.1001 150.63 65.6501 150.835 65.0163C151.106 64.177 151.559 63.3829 152.077 62.8366C152.322 62.5771 153.07 61.7869 154.063 62.2255C154.996 62.6379 155.254 63.5354 155.306 64.2154C155.427 65.8069 154.579 67.7044 153.415 68.4462C152.914 68.7651 152.227 69.101 151.5 69.4575C150.283 70.0551 148.902 70.7308 147.808 71.6014Z" fill="#FBB429"/>
<path d="M148.025 57.7701C148.025 57.7701 150.671 75.6796 137.84 78.8433L138.627 92.2441C138.595 95.8091 141.524 99.6379 143.728 99.6379V98.9579C141.823 98.8352 139.333 94.5725 139.184 92.2683L138.327 79.0715C141.168 78.7196 143.765 76.9967 145.851 74.3221C145.863 74.3033 145.875 74.2873 145.886 74.2752C145.886 74.2752 146.885 73.1039 147.626 71.751C147.566 71.8022 147.507 71.8541 147.45 71.9056C147.667 71.5196 147.876 71.1208 148.075 70.7106C148.743 69.1209 149.397 67.4125 149.397 67.4125C149.792 66.1538 150.317 64.0455 150.574 62.2134C150.77 60.7795 150.876 59.294 150.88 57.7697H148.025V57.7701Z" fill="#F5A209"/>
<path d="M146.586 111.489H127.903V101.01C127.903 100.254 128.519 99.6375 129.274 99.6375H145.214C145.97 99.6375 146.586 100.254 146.586 101.01L146.586 111.489Z" fill="#666666"/>
<path d="M148.317 113.605H126.17V111.834C126.17 111.147 126.729 110.587 127.417 110.587H147.071C147.759 110.587 148.317 111.146 148.317 111.834V113.605Z" fill="#666666"/>
<path d="M151.215 57.7701H123.273C122.939 57.7701 122.667 57.4982 122.667 57.1629V57.1505C122.667 56.8156 122.939 56.544 123.273 56.544H151.215C151.549 56.544 151.821 56.8156 151.821 57.1505V57.1629C151.821 57.4982 151.549 57.7701 151.215 57.7701Z" fill="#FBB429"/>
<path d="M111.123 125.435H160.427V127.098C158.093 130.073 158.478 133.383 160.427 135.862V137.525H111.123C103.422 137.525 103.421 125.435 111.123 125.435Z" fill="#20D0C2"/>
<path d="M160.427 135.862C158.437 132.941 158.286 130.02 160.427 127.098H111.123C108.804 127.098 106.903 129.073 106.903 131.48C106.903 133.887 108.805 135.862 111.123 135.862H160.427V135.862Z" fill="white"/>
<path d="M159.954 127.803C160.097 127.568 160.255 127.333 160.427 127.098H111.123C106.408 127.098 105.086 133.856 109.841 135.652C106.594 134.072 107.806 128.683 111.214 127.803H159.954Z" fill="#ECF0F1"/>
<path d="M159.467 128.638H107.92C108.016 128.523 108.115 128.412 108.222 128.307H159.634C159.575 128.417 159.519 128.528 159.467 128.638ZM107.489 129.262C107.428 129.369 107.37 129.48 107.318 129.593H159.098C159.131 129.482 159.168 129.372 159.208 129.262H107.489ZM107.083 130.216C107.051 130.325 107.023 130.436 107 130.547H158.883C158.9 130.437 158.919 130.327 158.94 130.216H107.083ZM106.914 131.171C106.906 131.273 106.903 131.376 106.903 131.48V131.502H158.818C158.817 131.392 158.82 131.282 158.825 131.171H106.914V131.171ZM106.949 132.126C106.965 132.238 106.985 132.348 107.01 132.457H158.896C158.879 132.347 158.864 132.237 158.853 132.126H106.949ZM107.196 133.081C107.24 133.193 107.287 133.304 107.339 133.411H159.118C159.084 133.302 159.053 133.191 159.024 133.081H107.196ZM107.702 134.035C107.782 134.15 107.867 134.26 107.956 134.366H159.493C159.441 134.257 159.392 134.146 159.345 134.035H107.702ZM108.607 134.99C108.763 135.112 108.928 135.223 109.101 135.321H160.036C159.963 135.212 159.894 135.102 159.827 134.99H108.607Z" fill="#ECF0F1"/>
<path d="M164.655 137.525H107.464V139.649C110.172 143.451 109.724 147.68 107.464 150.848V152.972H164.655C173.589 152.973 173.589 137.525 164.655 137.525Z" fill="#FF5B61"/>
<path d="M107.464 150.848C109.772 147.115 109.947 143.382 107.464 139.65H164.655C167.345 139.65 169.551 142.174 169.551 145.249C169.551 148.325 167.344 150.848 164.655 150.848H107.464Z" fill="white"/>
<path d="M108.012 140.551C107.846 140.251 107.664 139.949 107.464 139.649H164.655C170.125 139.649 171.658 148.285 166.142 150.579C169.909 148.559 168.502 141.675 164.549 140.551H108.012Z" fill="#ECF0F1"/>
<path d="M108.578 141.617H168.371C168.26 141.469 168.143 141.328 168.02 141.195H108.384C108.452 141.335 108.517 141.476 108.578 141.617ZM168.87 142.414C168.941 142.552 169.008 142.693 169.069 142.837H109.005C108.966 142.696 108.924 142.555 108.878 142.414H168.87ZM169.341 143.634C169.378 143.773 169.41 143.914 169.438 144.057H109.253C109.235 143.916 109.213 143.775 109.187 143.634H169.341ZM169.538 144.854C169.546 144.984 169.551 145.116 169.551 145.25L169.55 145.277H109.331C109.331 145.137 109.329 144.995 109.323 144.855H169.538V144.854ZM169.496 146.074C169.478 146.216 169.455 146.358 169.427 146.497H109.24C109.26 146.356 109.277 146.215 109.291 146.074H169.496ZM169.21 147.294C169.159 147.438 169.104 147.579 169.045 147.717H108.982C109.022 147.576 109.057 147.436 109.091 147.294H169.21ZM168.624 148.514C168.531 148.661 168.432 148.802 168.328 148.937H108.547C108.607 148.797 108.665 148.656 108.718 148.514H168.624ZM167.574 149.733C167.392 149.889 167.201 150.031 167.001 150.156H107.917C108.002 150.017 108.082 149.877 108.16 149.733H167.574Z" fill="#ECF0F1"/>
<path d="M155.965 113.324H117.897V114.987C119.699 117.962 119.402 121.271 117.897 123.751V125.414H155.965C161.914 125.414 161.914 113.324 155.965 113.324Z" fill="#FBB429"/>
<path d="M117.897 123.751C119.434 120.83 119.55 117.908 117.897 114.987H155.966C157.756 114.987 159.225 116.962 159.225 119.37C159.225 121.777 157.756 123.751 155.966 123.751H117.897Z" fill="white"/>
<path d="M118.262 115.693C118.152 115.457 118.031 115.222 117.897 114.987H155.966C159.607 114.987 160.628 121.745 156.955 123.541C159.463 121.96 158.527 116.572 155.895 115.693H118.262Z" fill="#ECF0F1"/>
<path d="M118.639 116.527H158.44C158.366 116.411 158.288 116.301 158.207 116.196H118.51C118.555 116.306 118.598 116.416 118.639 116.527ZM158.772 117.15C158.819 117.258 158.863 117.368 158.904 117.482H118.923C118.897 117.371 118.869 117.261 118.839 117.15H158.772ZM159.085 118.106C159.11 118.215 159.132 118.324 159.149 118.436H119.088C119.076 118.326 119.061 118.216 119.044 118.106H159.085ZM159.217 119.06C159.222 119.162 159.225 119.266 159.225 119.37L159.225 119.391H119.14C119.14 119.281 119.138 119.171 119.134 119.06H159.217ZM159.19 120.015C159.177 120.127 159.161 120.237 159.143 120.346H119.08C119.093 120.236 119.104 120.125 119.113 120.015H159.19ZM158.998 120.969C158.965 121.082 158.928 121.192 158.888 121.301H118.907C118.933 121.191 118.958 121.08 118.98 120.969H158.998ZM158.608 121.924C158.546 122.039 158.481 122.15 158.411 122.256H118.618C118.659 122.146 118.696 122.036 118.733 121.924H158.608ZM157.91 122.88C157.789 123.001 157.661 123.112 157.528 123.21H118.199C118.255 123.101 118.309 122.991 118.36 122.88H157.91Z" fill="#ECF0F1"/>
<path d="M53.0715 61.1339C52.5276 61.1339 52.0868 61.5746 52.0868 62.1189C52.0868 62.6624 52.5276 63.1032 53.0715 63.1032C53.6157 63.1032 54.0565 62.6624 54.0565 62.1189C54.0565 61.5746 53.6157 61.1339 53.0715 61.1339Z" fill="white"/>
</g>
<defs>
<clipPath id="clip0">
<rect width="182" height="182" fill="white"/>
</clipPath>
</defs>
</svg>
