<svg width="25" height="30" viewBox="0 0 25 30" fill="none" xmlns="http://www.w3.org/2000/svg">
<g clip-path="url(#clip0)" filter="url(#filter0_d)">
<g opacity="0.1">
<g opacity="0.1">
<path opacity="0.1" d="M18.0018 10.7931V2.24013C18.0018 2.02844 17.8496 1.89574 17.6091 1.89574H4.43223C4.19481 1.89574 4 2.02844 4 2.24013V18.6003C4.00774 18.7135 4.05677 18.8193 4.13709 18.8962C4.21741 18.9731 4.32296 19.0153 4.43223 19.0142H9.88075C10.7665 18.2054 11.634 17.267 12.5046 16.3792C14.3491 14.515 16.1329 12.613 18.0018 10.7931ZM15.9776 4.73934C15.9776 5.03318 15.8559 5.2733 15.7067 5.2733H6.29508C6.14288 5.2733 6.02113 5.03318 6.02113 4.73934V4.67931C6.02113 4.38547 6.14288 4.14534 6.29508 4.14534H15.7067C15.8559 4.14534 15.9776 4.38547 15.9776 4.67931V4.73934ZM15.9776 7.3207C15.9776 7.6177 15.8559 7.85782 15.7067 7.85782H6.29508C6.14288 7.85782 6.02113 7.6177 6.02113 7.3207V7.26698C6.02113 6.97315 6.14288 6.72986 6.29508 6.72986H15.7067C15.8559 6.72986 15.9776 6.97315 15.9776 7.26698V7.3207ZM15.9776 9.90522C15.9776 10.2022 15.8559 10.4423 15.7067 10.4423H6.29508C6.14288 10.4423 6.02113 10.2022 6.02113 9.90522V9.84834C6.02113 9.55135 6.14288 9.31122 6.29508 9.31122H15.7067C15.8559 9.31122 15.9776 9.55135 15.9776 9.84834V9.90522Z" fill="#686868"/>
<path opacity="0.1" d="M20.7413 12.6761C21.0791 12.2654 21.1552 11.7283 20.6713 11.1311C20.4782 10.9458 20.2343 10.8277 19.9735 10.7931C19.7127 10.7586 19.448 10.8093 19.2163 10.9384H19.198C19.1554 10.9637 19.1128 10.9858 19.0671 11.0174C19.0671 11.0174 19.0184 11.0174 19.0428 11.0427C19.0063 11.0427 19.0428 11.0427 19.0032 11.0427H18.9636L17.0886 12.9321L16.9882 13.03L12.0662 17.9652C11.9474 18.0851 11.8384 18.2151 11.7405 18.3539L9.82291 22.0095L13.3386 20.1137C13.3781 20.1327 13.5669 19.9905 13.7738 19.7978L18.6927 14.8499L18.7871 14.752L20.7413 12.7741V12.7267C20.7422 12.7099 20.7422 12.693 20.7413 12.6761ZM18.7749 13.0648C18.483 12.7816 18.1304 12.5748 17.7461 12.4613L18.9332 11.2607C19.3237 11.3557 19.6874 11.5439 19.9955 11.8104C20.2786 12.0716 20.4729 12.4207 20.5495 12.8057L19.2711 14.1106C19.2298 13.7087 19.0478 13.3366 18.7597 13.0648H18.7749ZM18.6775 14.3823L13.7891 19.2733L13.646 19.4281C13.4753 19.584 13.3668 19.8003 13.3416 20.0348L11.4422 21.0616C11.4358 20.9711 11.4113 20.8829 11.3702 20.8027C11.3291 20.7226 11.2724 20.6522 11.2037 20.596C11.135 20.5398 11.0558 20.4991 10.971 20.4765C10.8863 20.4538 10.798 20.4497 10.7117 20.4645L11.7984 18.3949C12.0751 18.38 12.3389 18.2687 12.5472 18.079C12.5776 18.0474 12.5319 18.079 12.5624 18.06L17.5939 13.0269C17.6639 12.9573 17.7004 12.9163 17.74 12.8752C17.8131 12.9036 17.8952 12.9416 17.9805 12.9826L17.8861 13.0774L12.7115 18.2212C12.5821 18.3466 12.4677 18.4877 12.3706 18.6414C12.1545 19.0047 12.1667 19.2386 12.3706 19.4724C12.5746 19.7062 12.9063 19.6525 13.2838 19.4028C13.3821 19.339 13.4739 19.2648 13.5577 19.1817L18.7597 13.9368L18.8693 13.8231C18.913 13.9037 18.9497 13.9883 18.9789 14.0758L18.6775 14.3823Z" fill="#686868"/>
</g>
</g>
<path d="M20.7413 11.7283C21.0791 11.3175 21.1552 10.7804 20.6713 10.1833C20.4782 9.99795 20.2343 9.87978 19.9735 9.84524C19.7127 9.81069 19.448 9.86148 19.2163 9.99052H19.198C19.1554 10.0158 19.1128 10.0379 19.0671 10.0695C19.0671 10.0695 19.0184 10.0695 19.0428 10.0948C19.0063 10.0948 19.0428 10.0948 19.0032 10.0948H18.9636L17.0886 11.9842L16.9882 12.0822L12.0662 17.0174C11.9474 17.1372 11.8384 17.2672 11.7405 17.406L9.82291 21.0616L13.3386 19.1659C13.3781 19.1848 13.5669 19.0427 13.7738 18.8499L18.6927 13.9021L18.7871 13.8041L20.7413 11.8262V11.7788C20.7422 11.762 20.7422 11.7451 20.7413 11.7283ZM18.7749 12.1169C18.483 11.8338 18.1304 11.6269 17.7461 11.5134L18.9332 10.3128C19.3237 10.4078 19.6874 10.596 19.9955 10.8626C20.2786 11.1238 20.4729 11.4728 20.5495 11.8578L19.2711 13.1627C19.2298 12.7609 19.0478 12.3887 18.7597 12.1169H18.7749ZM18.6775 13.4344L13.7891 18.3254L13.646 18.4803C13.4753 18.6361 13.3668 18.8524 13.3416 19.0869L11.4422 20.1137C11.4358 20.0232 11.4113 19.935 11.3702 19.8549C11.3291 19.7747 11.2724 19.7043 11.2037 19.6481C11.135 19.592 11.0558 19.5513 10.971 19.5286C10.8863 19.506 10.798 19.5019 10.7117 19.5166L11.7984 17.4471C12.0751 17.4321 12.3389 17.3208 12.5472 17.1311C12.5776 17.0995 12.5319 17.1311 12.5624 17.1122L17.5939 12.079C17.6639 12.0095 17.7004 11.9684 17.74 11.9273C17.8131 11.9558 17.8952 11.9937 17.9805 12.0348L17.8861 12.1295L12.7115 17.2733C12.5821 17.3987 12.4677 17.5398 12.3706 17.6935C12.1545 18.0569 12.1667 18.2907 12.3706 18.5245C12.5746 18.7583 12.9063 18.7046 13.2838 18.455C13.3821 18.3911 13.4739 18.317 13.5577 18.2338L18.7597 12.9889L18.8693 12.8752C18.913 12.9559 18.9497 13.0405 18.9789 13.128L18.6775 13.4344Z" fill="#C7D6E9"/>
<path d="M18.0018 8.89731V0.344392C18.0018 0.132701 17.8496 0 17.6091 0H4.43223C4.19481 0 4 0.132701 4 0.344392V16.7046C4.00774 16.8177 4.05677 16.9235 4.13709 17.0004C4.21741 17.0774 4.32296 17.1196 4.43223 17.1185H9.88075C10.7665 16.3096 11.634 15.3712 12.5046 14.4834C14.3491 12.6193 16.1329 10.7172 18.0018 8.89731ZM15.9776 2.8436C15.9776 3.13744 15.8559 3.37757 15.7067 3.37757H6.29508C6.14288 3.37757 6.02113 3.13744 6.02113 2.8436V2.79621C6.02113 2.50237 6.14288 2.26224 6.29508 2.26224H15.7067C15.8559 2.26224 15.9776 2.50237 15.9776 2.79621V2.8436ZM15.9776 5.42496C15.9776 5.72196 15.8559 5.96209 15.7067 5.96209H6.29508C6.14288 5.96209 6.02113 5.72196 6.02113 5.42496V5.37125C6.02113 5.07741 6.14288 4.83412 6.29508 4.83412H15.7067C15.8559 4.83412 15.9776 5.07741 15.9776 5.37125V5.42496ZM15.9776 8.00948C15.9776 8.30648 15.8559 8.5466 15.7067 8.5466H6.29508C6.14288 8.5466 6.02113 8.30648 6.02113 8.00948V7.95261C6.02113 7.65561 6.14288 7.41548 6.29508 7.41548H15.7067C15.8559 7.41548 15.9776 7.65561 15.9776 7.95261V8.00948Z" fill="url(#paint0_linear)"/>
<path d="M20.7413 10.7804C21.0791 10.3697 21.1552 9.83254 20.6713 9.23539C20.4782 9.05008 20.2343 8.93192 19.9735 8.89737C19.7127 8.86282 19.448 8.91361 19.2163 9.04266H19.198C19.1554 9.06793 19.1128 9.09005 19.0671 9.12164C19.0671 9.12164 19.0184 9.12164 19.0428 9.14692C19.0063 9.14692 19.0428 9.14692 19.0032 9.14692H18.9636L17.0886 11.0363L16.9882 11.1343L12.0662 16.0695C11.9474 16.1894 11.8384 16.3194 11.7405 16.4581L9.82291 20.1137L13.3386 18.218C13.3781 18.237 13.5669 18.0948 13.7738 17.9021L18.6927 12.9542L18.7871 12.8562L20.7413 10.8784V10.831C20.7422 10.8141 20.7422 10.7972 20.7413 10.7804ZM18.7749 11.169C18.483 10.8859 18.1304 10.679 17.7461 10.5656L18.9332 9.36493C19.3237 9.45992 19.6874 9.64817 19.9955 9.91469C20.2786 10.1759 20.4729 10.525 20.5495 10.91L19.2711 12.2149C19.2298 11.813 19.0478 11.4408 18.7597 11.169H18.7749ZM18.6775 12.4866L13.7891 17.3776L13.646 17.5324C13.4753 17.6882 13.3668 17.9045 13.3416 18.139L11.4422 19.1659C11.4358 19.0753 11.4113 18.9872 11.3702 18.907C11.3291 18.8268 11.2724 18.7564 11.2037 18.7003C11.135 18.6441 11.0558 18.6034 10.971 18.5807C10.8863 18.5581 10.798 18.554 10.7117 18.5687L11.7984 16.4992C12.0751 16.4842 12.3389 16.3729 12.5472 16.1833C12.5776 16.1517 12.5319 16.1833 12.5624 16.1643L17.5939 11.1311C17.6639 11.0616 17.7004 11.0205 17.74 10.9795C17.8131 11.0079 17.8952 11.0458 17.9805 11.0869L17.8861 11.1817L12.7115 16.3254C12.5821 16.4509 12.4677 16.5919 12.3706 16.7457C12.1545 17.109 12.1667 17.3428 12.3706 17.5766C12.5746 17.8104 12.9063 17.7567 13.2838 17.5071C13.3821 17.4432 13.4739 17.3691 13.5577 17.2859L18.7597 12.0411L18.8693 11.9273C18.913 12.008 18.9497 12.0926 18.9789 12.1801L18.6775 12.4866Z" fill="#041D5B" fill-opacity="0.43"/>
</g>
<defs>
<filter id="filter0_d" x="0" y="0" width="25" height="30" filterUnits="userSpaceOnUse" color-interpolation-filters="sRGB">
<feFlood flood-opacity="0" result="BackgroundImageFix"/>
<feColorMatrix in="SourceAlpha" type="matrix" values="0 0 0 0 0 0 0 0 0 0 0 0 0 0 0 0 0 0 127 0"/>
<feOffset dy="4"/>
<feGaussianBlur stdDeviation="2"/>
<feColorMatrix type="matrix" values="0 0 0 0 0 0 0 0 0 0 0 0 0 0 0 0 0 0 0.25 0"/>
<feBlend mode="normal" in2="BackgroundImageFix" result="effect1_dropShadow"/>
<feBlend mode="normal" in="SourceGraphic" in2="effect1_dropShadow" result="shape"/>
</filter>
<linearGradient id="paint0_linear" x1="11.0009" y1="0" x2="11.0009" y2="17.1185" gradientUnits="userSpaceOnUse">
<stop stop-color="#7890E4"/>
<stop offset="1" stop-color="#2F4AA7"/>
</linearGradient>
<clipPath id="clip0">
<rect width="17" height="22" fill="white" transform="translate(4)"/>
</clipPath>
</defs>
</svg>
