<svg width="20" height="28" viewBox="0 0 20 28" fill="none" xmlns="http://www.w3.org/2000/svg">
<path d="M2.36666 16.0583C2.48444 15.5537 2.55119 15.0661 2.71648 14.61C3.52997 12.3621 5.19503 10.967 7.67515 10.4094C7.93506 10.351 8.13255 10.4054 8.32335 10.5918C9.40618 11.6501 11.138 11.6808 12.2758 10.6648C12.4517 10.5075 12.6397 10.4732 12.8678 10.5356C15.4347 11.2396 17.3389 13.3948 17.5646 15.8591C17.5701 15.9189 17.5811 15.9784 17.5925 16.0587H17.8088C18.3648 16.0587 18.9208 16.0587 19.477 16.0587C19.8233 16.0587 19.9988 16.2174 19.9992 16.5364C19.9992 17.3879 19.9992 18.2394 19.9992 19.0908C19.9992 19.3915 19.8139 19.559 19.4853 19.559C18.8833 19.559 18.2813 19.559 17.6793 19.559H17.4319C17.3974 19.8254 17.3624 20.0772 17.3322 20.3297C17.1354 21.978 16.9391 23.6264 16.7433 25.2751C16.6522 26.0415 16.5623 26.8078 16.4685 27.5741C16.4323 27.869 16.2722 27.9993 15.9479 27.9996C13.5398 27.9996 11.1326 27.9996 8.72617 27.9996C7.20206 27.9996 5.67794 27.9996 4.15383 27.9996C3.71332 27.9996 3.57669 27.9018 3.52565 27.496C3.3686 26.2225 3.22255 24.9478 3.06943 23.6739C2.91789 22.4122 2.76464 21.1503 2.60969 19.8882C2.57042 19.5598 2.56179 19.5598 2.20726 19.5598C1.65132 19.5598 1.09538 19.5598 0.539055 19.5561C0.173534 19.5532 0 19.3901 0 19.0489C0 18.2156 0 17.3826 0 16.5499C0 16.2232 0.176675 16.0592 0.530025 16.058C1.15192 16.0565 1.77264 16.0583 2.36666 16.0583ZM4.4365 27.1085H15.5607C15.5721 27.0413 15.5847 26.9819 15.5918 26.9224C15.7396 25.6663 15.8875 24.4101 16.0354 23.1539C16.1925 21.8314 16.3495 20.5088 16.5065 19.1861C16.5529 18.7952 16.6993 18.6697 17.1312 18.6679C17.7068 18.6653 18.2823 18.6661 18.8587 18.6642C18.9207 18.6642 18.9827 18.6566 19.0467 18.6522V16.9502H0.96229V18.6653H1.16527C1.73416 18.6653 2.30384 18.6628 2.87274 18.6653C3.29872 18.6653 3.45812 18.8113 3.50091 19.2032C3.60561 20.1457 3.71476 21.088 3.82835 22.0303C3.98068 23.3167 4.13433 24.6028 4.28928 25.8886C4.33874 26.2925 4.38782 26.6969 4.4365 27.1085ZM16.6216 16.0481C16.6177 15.9751 16.6196 15.9142 16.6102 15.8547C16.2816 13.7484 15.0488 12.3 12.9358 11.4899C12.818 11.445 12.7453 11.4746 12.6554 11.5406C11.9657 12.0505 11.1036 12.3161 10.2228 12.2901C9.34206 12.2641 8.49984 11.9482 7.84633 11.3987C7.75446 11.3224 7.68104 11.3126 7.56836 11.3432C5.72021 11.8458 4.43899 12.9272 3.7247 14.5874C3.52301 15.0525 3.40778 15.546 3.38391 16.047L16.6216 16.0481Z" fill="black"/>
<path d="M10.273 10.2627C8.6127 10.2627 7.17888 9.22519 6.68458 7.621C6.67848 7.60361 6.67388 7.58579 6.67084 7.56772C6.64454 7.35534 6.51812 7.23127 6.31749 7.11559C5.60844 6.70432 5.22957 5.73728 5.46081 4.99905C5.54391 4.70764 5.74736 4.45848 6.02696 4.3057C6.08232 4.27541 6.12472 4.18601 6.12865 4.12324C6.1628 3.55761 6.21306 2.99418 6.41407 2.45483C6.70578 1.67134 7.21421 1.08163 8.12115 0.865233C8.14553 0.85666 8.17078 0.850424 8.19653 0.846622C8.56126 0.83239 8.84708 0.756852 9.04417 0.398865C9.21339 0.0952517 9.61542 0.0244572 9.97231 0.00621115C11.6829 -0.0802749 13.9769 0.733862 14.5297 3.14452C14.5988 3.44595 14.6106 3.75832 14.6562 4.06485C14.666 4.12981 14.6868 4.21885 14.7366 4.24731C15.0947 4.46627 15.2565 4.79068 15.3032 5.16509C15.3778 5.7621 15.2411 6.32079 14.832 6.79336C14.6856 6.96305 14.4752 7.09406 14.271 7.20718C14.1587 7.26885 14.099 7.3287 14.0657 7.44036C13.7704 8.43988 13.2019 9.25694 12.2204 9.79227C11.6425 10.1127 11.0131 10.2751 10.273 10.2627ZM7.07916 4.25826C7.07916 4.35533 7.07719 4.45276 7.07916 4.5502C7.08622 4.85381 6.95156 5.01875 6.62726 5.06473C6.45098 5.08955 6.37285 5.17895 6.36146 5.32821C6.34771 5.43663 6.35154 5.54635 6.37285 5.65372C6.46315 6.00659 6.60645 6.34706 7.02537 6.44997C7.31669 6.52296 7.44311 6.66564 7.50239 6.92875C7.57306 7.24185 7.65472 7.56079 7.79646 7.84981C8.54242 9.37079 10.584 9.86489 11.9923 8.87706C12.7174 8.36909 13.0759 7.66333 13.2353 6.85467C13.2899 6.5766 13.434 6.45763 13.7284 6.42516C13.8313 6.41384 13.9577 6.37662 14.0221 6.30875C14.3303 5.98397 14.4441 5.60044 14.3299 5.1775C14.3122 5.11144 14.2074 5.03518 14.1297 5.01912C13.8156 4.95453 13.6978 4.79287 13.6919 4.49144C13.6817 4.08091 13.677 3.66016 13.5784 3.26349C13.1466 1.52099 11.5133 0.887128 10.1882 0.875451C9.85335 0.872532 9.7387 0.984927 9.70494 1.29547C9.69471 1.40259 9.64158 1.50223 9.55608 1.57468C9.47058 1.64712 9.35892 1.68709 9.24323 1.68667C9.12544 1.68667 9.00766 1.67718 8.88988 1.67718C8.11094 1.67718 7.619 1.98955 7.34731 2.66538C7.14158 3.17737 7.09918 3.71635 7.07916 4.25826Z" fill="#C7D6E9"/>
<path d="M4.4365 27.1085C4.38703 26.6969 4.33795 26.2926 4.28966 25.8886C4.13628 24.6026 3.9829 23.3165 3.82952 22.0303C3.71802 21.0888 3.60887 20.1464 3.50208 19.2032C3.45811 18.8102 3.29871 18.6661 2.8739 18.6654C2.30462 18.6654 1.73533 18.6654 1.16644 18.6654H0.96228V16.9502H19.0463V18.6522C18.9823 18.6566 18.9203 18.6643 18.8583 18.6643C18.2823 18.6661 17.7067 18.6643 17.1308 18.6679C16.6989 18.6697 16.5525 18.7953 16.5061 19.1861C16.3491 20.5091 16.1921 21.8317 16.035 23.1539C15.8861 24.4099 15.7382 25.6661 15.5914 26.9224C15.5843 26.9819 15.5717 27.0414 15.5603 27.1085H4.4365ZM10.0147 23.8242H13.0178C13.4956 23.8242 13.9734 23.8268 14.4508 23.821C14.7461 23.8173 14.9349 23.6363 14.9337 23.3758C14.9337 23.0893 14.7241 22.9335 14.3448 22.9335H8.65196C7.64452 22.9335 6.63669 22.9309 5.62886 22.9335C5.26962 22.9335 5.06193 23.1083 5.0631 23.3849C5.06428 23.6615 5.27472 23.8228 5.63553 23.8228C7.09683 23.824 8.55682 23.825 10.0155 23.8257L10.0147 23.8242ZM10.0029 21.1122C11.475 21.1122 12.9469 21.1122 14.4186 21.1122C14.7378 21.1122 14.9322 20.9436 14.9353 20.6819C14.9388 20.41 14.7441 20.2396 14.4147 20.2367C13.9243 20.2327 13.4332 20.2338 12.9432 20.2338C10.497 20.2338 8.05035 20.2338 5.60334 20.2338C5.26412 20.2338 5.06035 20.4071 5.06703 20.6848C5.07292 20.9538 5.27668 21.1129 5.60726 21.1129C7.07301 21.1131 8.5385 21.1134 10.0037 21.1136L10.0029 21.1122Z" fill="url(#paint0_linear)"/>
<path d="M16.6216 16.0481H3.38391C3.40777 15.5471 3.52301 15.0535 3.7247 14.5884C4.43689 12.9278 5.71812 11.8464 7.56836 11.3443C7.68104 11.3137 7.75446 11.3235 7.84633 11.3998C8.49983 11.9493 9.34206 12.2652 10.2228 12.2912C11.1036 12.3172 11.9657 12.0516 12.6554 11.5417C12.7453 11.4757 12.8184 11.4461 12.9357 11.491C15.0488 12.3011 16.2816 13.7495 16.6102 15.8558C16.6196 15.9142 16.6177 15.9751 16.6216 16.0481Z" fill="#C7D6E9"/>
<path d="M10.0155 23.8257C8.55657 23.8257 7.09749 23.8257 5.63829 23.8257C5.27748 23.8257 5.06704 23.667 5.06586 23.3878C5.06468 23.1086 5.27238 22.9378 5.63161 22.9364C6.63905 22.932 7.64689 22.9364 8.65472 22.9364H14.3476C14.7268 22.9364 14.9365 23.0922 14.9365 23.3787C14.9365 23.6392 14.7488 23.8202 14.4536 23.8239C13.9762 23.8297 13.4984 23.8272 13.0206 23.8272H10.0155V23.8257Z" fill="black"/>
<path d="M10.0037 21.1136C8.53799 21.1136 7.07224 21.1136 5.60649 21.1136C5.27592 21.1136 5.07215 20.9545 5.06626 20.6855C5.05959 20.4078 5.26257 20.2345 5.60257 20.2345C8.04932 20.2345 10.4966 20.2345 12.9444 20.2345C13.4352 20.2345 13.9259 20.2345 14.4159 20.2374C14.7453 20.2403 14.94 20.4108 14.9365 20.6826C14.9334 20.9443 14.7402 21.1125 14.4198 21.1129C12.9468 21.1153 11.4747 21.1155 10.0037 21.1136Z" fill="black"/>
<defs>
<linearGradient id="paint0_linear" x1="10.0043" y1="16.9502" x2="10.0043" y2="27.1085" gradientUnits="userSpaceOnUse">
<stop stop-color="#7890E4"/>
<stop offset="1" stop-color="#2F4AA7"/>
</linearGradient>
</defs>
</svg>
