<svg width="20" height="26" viewBox="0 0 20 26" fill="none" xmlns="http://www.w3.org/2000/svg">
<g clip-path="url(#clip0)">
<g opacity="0.1">
<path opacity="0.1" d="M2.66269 24.4527C2.66269 24.4527 6.09733 25.9929 9.74827 25.9444H10.2927C13.9213 25.9817 17.356 24.4527 17.356 24.4527C19.0006 24.7026 20.0186 23.2706 20.0186 23.2706L19.5711 19.8359C19.284 16.7257 16.4199 16.1887 15.8419 16.0097C15.2638 15.8307 13.1941 15.2638 12.907 14.6149C12.813 14.2663 12.7889 13.9026 12.8361 13.5447C13.5451 12.6387 14.0995 11.6219 14.477 10.5351C14.8984 10.8298 15.0662 10.4643 15.0662 10.4643C16.3901 8.53253 15.5696 7.74566 15.3906 7.60022C15.2116 7.45478 15.0177 7.70837 15.0177 7.70837L14.9991 7.76431C15.2527 2.61047 10.8596 2.25992 10.3412 2.23755C10.2283 2.24614 10.1148 2.24614 10.0019 2.23755C9.88892 2.24644 9.77545 2.24644 9.6625 2.23755C9.15532 2.25992 4.74361 2.61047 4.9972 7.76431L4.97856 7.70837C4.97856 7.70837 4.79955 7.45851 4.60563 7.60022C4.41171 7.74193 3.60246 8.53253 4.92635 10.4643C4.92635 10.4643 5.09789 10.8372 5.5193 10.5351C5.8956 11.6216 6.44876 12.6385 7.15644 13.5447C7.20716 13.9025 7.18304 14.2669 7.08558 14.6149C6.80216 15.2564 4.72497 15.8307 4.15439 16.0097C3.58381 16.1887 0.745851 16.7257 0.447511 19.8359L0 23.2706C0 23.2706 1.01809 24.7026 2.66269 24.4527Z" fill="url(#paint0_linear)"/>
</g>
<path d="M2.66269 23.334C2.66269 23.334 6.09733 24.8741 9.74827 24.8257H10.2927C13.9213 24.8629 17.356 23.334 17.356 23.334C19.0006 23.5838 20.0186 22.1518 20.0186 22.1518L19.5711 18.7171C19.284 15.6069 16.4199 15.0699 15.8419 14.8909C15.2638 14.7119 13.1941 14.1451 12.907 13.4962C12.813 13.1476 12.7889 12.7838 12.8361 12.4259C13.5451 11.5199 14.0995 10.5031 14.477 9.41637C14.8984 9.71098 15.0662 9.34551 15.0662 9.34551C16.3901 7.41376 15.5696 6.62689 15.3906 6.48144C15.2116 6.336 15.0177 6.58959 15.0177 6.58959L14.9991 6.64553C15.2527 1.4917 10.8596 1.14115 10.3412 1.11877C10.2283 1.12737 10.1148 1.12737 10.0019 1.11877C9.88892 1.12766 9.77545 1.12766 9.6625 1.11877C9.15532 1.14115 4.74361 1.4917 4.9972 6.64553L4.97856 6.58959C4.97856 6.58959 4.79955 6.33973 4.60563 6.48144C4.41171 6.62316 3.60246 7.41376 4.92635 9.34551C4.92635 9.34551 5.09789 9.71844 5.5193 9.41637C5.8956 10.5028 6.44876 11.5197 7.15644 12.4259C7.20716 12.7837 7.18304 13.1482 7.08558 13.4962C6.80216 14.1376 4.72497 14.7119 4.15439 14.8909C3.58381 15.0699 0.745851 15.6069 0.447511 18.7171L0 22.1518C0 22.1518 1.01809 23.5838 2.66269 23.334Z" fill="#C7D6E9"/>
<path d="M2.66269 22.2152C2.66269 22.2152 6.09733 23.7554 9.74827 23.7069H10.2927C13.9213 23.7442 17.356 22.2152 17.356 22.2152C19.0006 22.465 20.0186 21.033 20.0186 21.033L19.5711 17.5984C19.284 14.4882 16.4199 13.9511 15.8419 13.7721C15.2638 13.5931 13.1941 13.0263 12.907 12.3774C12.813 12.0288 12.7889 11.6651 12.8361 11.3071C13.5451 10.4012 14.0995 9.3843 14.477 8.2976C14.8984 8.59221 15.0662 8.22674 15.0662 8.22674C16.3901 6.29498 15.5696 5.50811 15.3906 5.36267C15.2116 5.21723 15.0177 5.47082 15.0177 5.47082L14.9991 5.52676C15.2527 0.372926 10.8596 0.0223755 10.3412 0C10.2283 0.00859069 10.1148 0.00859069 10.0019 0C9.88892 0.00888782 9.77545 0.00888782 9.6625 0C9.15532 0.0223755 4.74361 0.372926 4.9972 5.52676L4.97856 5.47082C4.97856 5.47082 4.79955 5.22096 4.60563 5.36267C4.41171 5.50438 3.60246 6.29498 4.92635 8.22674C4.92635 8.22674 5.09789 8.59966 5.5193 8.2976C5.8956 9.38406 6.44876 10.4009 7.15644 11.3071C7.20716 11.6649 7.18304 12.0294 7.08558 12.3774C6.80216 13.0188 4.72497 13.5931 4.15439 13.7721C3.58381 13.9511 0.745851 14.4882 0.447511 17.5984L0 21.033C0 21.033 1.01809 22.465 2.66269 22.2152Z" fill="url(#paint1_linear)"/>
</g>
<defs>
<linearGradient id="paint0_linear" x1="10.0093" y1="2.23755" x2="10.0093" y2="25.9455" gradientUnits="userSpaceOnUse">
<stop stop-color="#7890E4"/>
<stop offset="1" stop-color="#2F4AA7"/>
</linearGradient>
<linearGradient id="paint1_linear" x1="10.0093" y1="0" x2="10.0093" y2="23.708" gradientUnits="userSpaceOnUse">
<stop stop-color="#7890E4"/>
<stop offset="1" stop-color="#2F4AA7"/>
</linearGradient>
<clipPath id="clip0">
<rect width="20" height="25.9556" fill="white"/>
</clipPath>
</defs>
</svg>
