<svg width="28" height="29" viewBox="0 0 28 29" fill="none" xmlns="http://www.w3.org/2000/svg">
<g filter="url(#filter0_d)">
<path d="M21.8426 17.7519H21.5548V19.6669V20.1274L23.9939 17.7519H23.7879H21.8426Z" fill="#C7D6E9"/>
<path d="M8.59239 4.18352V2.23826C8.58274 2.17444 8.55053 2.11621 8.50161 2.07412C8.45268 2.03204 8.39029 2.0089 8.32575 2.0089C8.26121 2.0089 8.19882 2.03204 8.14989 2.07412C8.10097 2.11621 8.06876 2.17444 8.05911 2.23826V4.16231C7.94862 4.2091 7.85451 4.28764 7.7887 4.38797C7.72289 4.4883 7.68835 4.60591 7.68945 4.72589C7.68945 4.88903 7.75425 5.04548 7.8696 5.16083C7.98496 5.27618 8.14141 5.34099 8.30454 5.34099C8.46767 5.34099 8.62412 5.27618 8.73948 5.16083C8.85483 5.04548 8.91963 4.88903 8.91963 4.72589C8.92042 4.6141 8.89027 4.50427 8.83252 4.40855C8.77477 4.31283 8.69166 4.23495 8.59239 4.18352Z" fill="#C7D6E9"/>
<path d="M12.2102 4.15019V2.23826C12.2006 2.17444 12.1684 2.11621 12.1194 2.07412C12.0705 2.03204 12.0081 2.0089 11.9436 2.0089C11.879 2.0089 11.8166 2.03204 11.7677 2.07412C11.7188 2.11621 11.6866 2.17444 11.6769 2.23826V4.19867C11.5849 4.25181 11.5085 4.32821 11.4553 4.42022C11.4021 4.51222 11.374 4.61659 11.3739 4.72286C11.3761 4.83213 11.4078 4.93878 11.4657 5.0315C11.5236 5.12422 11.6054 5.19957 11.7026 5.24956C11.7998 5.29956 11.9087 5.32234 12.0178 5.3155C12.1268 5.30866 12.232 5.27244 12.3222 5.21069C12.4124 5.14894 12.4842 5.06395 12.53 4.96473C12.5758 4.8655 12.5939 4.75573 12.5825 4.64704C12.571 4.53836 12.5303 4.4348 12.4648 4.34733C12.3993 4.25986 12.3113 4.19175 12.2102 4.15019Z" fill="#C7D6E9"/>
<path d="M15.8008 4.15322V2.23826C15.7911 2.17444 15.7589 2.11621 15.71 2.07412C15.6611 2.03204 15.5987 2.0089 15.5341 2.0089C15.4696 2.0089 15.4072 2.03204 15.3583 2.07412C15.3094 2.11621 15.2771 2.17444 15.2675 2.23826V4.19261C15.1495 4.26188 15.0583 4.36906 15.009 4.49672C14.9596 4.62437 14.9549 4.76497 14.9957 4.89563C15.0364 5.02629 15.1202 5.13932 15.2333 5.2163C15.3465 5.29329 15.4824 5.32971 15.6188 5.31963C15.7553 5.30955 15.8844 5.25356 15.985 5.16078C16.0856 5.068 16.1519 4.9439 16.173 4.80867C16.1941 4.67344 16.1688 4.53506 16.1012 4.41604C16.0336 4.29703 15.9277 4.20439 15.8008 4.15322Z" fill="#C7D6E9"/>
<path d="M19.5004 4.16837V2.23826C19.4934 2.17283 19.4625 2.1123 19.4135 2.06832C19.3646 2.02433 19.3011 2 19.2353 2C19.1695 2 19.106 2.02433 19.0571 2.06832C19.0081 2.1123 18.9772 2.17283 18.9702 2.23826V4.17443C18.8469 4.23441 18.7476 4.33439 18.6885 4.45808C18.6294 4.58176 18.614 4.72182 18.6448 4.8554C18.6755 4.98898 18.7507 5.10818 18.8579 5.19353C18.9652 5.27889 19.0982 5.32537 19.2353 5.32537C19.3724 5.32537 19.5054 5.27889 19.6127 5.19353C19.7199 5.10818 19.7951 4.98898 19.8258 4.8554C19.8566 4.72182 19.8412 4.58176 19.7821 4.45808C19.723 4.33439 19.6237 4.23441 19.5004 4.17443V4.16837Z" fill="#C7D6E9"/>
<path d="M22.5456 2.84123H20.0367V3.44723C20.5458 3.69266 20.6579 4.30775 20.6427 4.71983C20.6516 4.91096 20.6216 5.1019 20.5546 5.2811C20.4875 5.46031 20.3848 5.62406 20.2527 5.76244C20.1206 5.90083 19.9617 6.01099 19.7858 6.08625C19.6099 6.16151 19.4206 6.20031 19.2292 6.20031C19.0379 6.20031 18.8486 6.16151 18.6727 6.08625C18.4967 6.01099 18.3379 5.90083 18.2058 5.76244C18.0737 5.62406 17.971 5.46031 17.9039 5.2811C17.8369 5.1019 17.8069 4.91096 17.8157 4.71983C17.8006 4.30169 18.0218 3.65933 18.3611 3.46844V2.8382H16.3886V3.4442C16.931 3.79568 16.9946 4.15928 16.9946 4.73498C16.9946 5.10974 16.8459 5.4692 16.5812 5.73448C16.3165 5.99976 15.9574 6.1492 15.5826 6.15C15.2067 6.14527 14.8475 5.99362 14.5819 5.72748C14.3164 5.46134 14.1655 5.10185 14.1616 4.72589C14.1468 4.49239 14.1884 4.25876 14.2828 4.04468C14.3772 3.8306 14.5216 3.64232 14.7039 3.49571V2.8382H12.789V3.4442C12.9848 3.59123 13.1389 3.78676 13.2362 4.01151C13.3334 4.23627 13.3704 4.48249 13.3434 4.72589C13.3523 4.91702 13.3223 5.10796 13.2553 5.28717C13.1882 5.46637 13.0855 5.63012 12.9534 5.7685C12.8213 5.90689 12.6625 6.01705 12.4865 6.09231C12.3106 6.16757 12.1213 6.20637 11.9299 6.20637C11.7386 6.20637 11.5493 6.16757 11.3734 6.09231C11.1974 6.01705 11.0386 5.90689 10.9065 5.7685C10.7744 5.63012 10.6717 5.46637 10.6046 5.28717C10.5376 5.10796 10.5076 4.91702 10.5164 4.72589C10.5007 4.484 10.5483 4.24219 10.6546 4.02433C10.7609 3.80647 10.9221 3.62009 11.1225 3.48359V2.8382H9.15294V3.46238C9.35143 3.6023 9.5074 3.79434 9.60364 4.0173C9.69989 4.24026 9.73266 4.48548 9.69835 4.72589C9.7072 4.91702 9.6772 5.10796 9.61015 5.28717C9.54311 5.46637 9.44042 5.63012 9.3083 5.7685C9.17617 5.90689 9.01735 6.01705 8.84144 6.09231C8.66553 6.16757 8.47618 6.20637 8.28485 6.20637C8.09351 6.20637 7.90417 6.16757 7.72825 6.09231C7.55234 6.01705 7.39352 5.90689 7.2614 5.7685C7.12927 5.63012 7.02658 5.46637 6.95954 5.28717C6.8925 5.10796 6.86249 4.91702 6.87135 4.72589C6.87135 4.28048 7.0077 3.69872 7.47735 3.46541V2.84123H5.27453C5.10457 2.83245 4.93468 2.85956 4.77589 2.92079C4.61711 2.98203 4.473 3.07602 4.35295 3.19664C4.2329 3.31726 4.1396 3.46181 4.07912 3.62088C4.01864 3.77995 3.99234 3.94998 4.00192 4.11989V18.567C4.00192 19.3275 4.514 20.2092 5.27453 20.2092H20.7276V16.9338H24V4.11989C24 3.35936 23.3061 2.84123 22.5456 2.84123ZM9.64684 16.9338H7.18647V14.4219H9.64684V16.9338ZM9.64684 13.4917H7.18647V10.992H9.64684V13.4917ZM9.64684 10.1345H7.19556V7.67409H9.65593L9.64684 10.1345ZM10.6286 7.67409H13.092V10.1345H10.6376L10.6286 7.67409ZM10.6286 11.0344H13.092V13.4917H10.6376L10.6286 11.0344ZM13.098 16.9338H10.6498V14.4219H13.1071L13.098 16.9338ZM16.6007 16.9338H14.0707V14.4219H16.6098L16.6007 16.9338ZM16.6007 13.4917H14.0676V11.0344H16.6189L16.6007 13.4917ZM16.6007 10.1345H14.0555V7.68924H16.6007V10.1345ZM20.1549 16.9338L17.5885 16.958V14.4219H20.1549V16.9338ZM20.1337 13.4917H17.5885V11.0162L20.1276 10.992L20.1337 13.4917ZM20.1337 10.1345H17.5885V7.71045L20.1367 7.68318L20.1337 10.1345Z" fill="url(#paint0_linear)"/>
</g>
<defs>
<filter id="filter0_d" x="-3" y="0" width="33" height="29" filterUnits="userSpaceOnUse" color-interpolation-filters="sRGB">
<feFlood flood-opacity="0" result="BackgroundImageFix"/>
<feColorMatrix in="SourceAlpha" type="matrix" values="0 0 0 0 0 0 0 0 0 0 0 0 0 0 0 0 0 0 127 0"/>
<feOffset dy="4"/>
<feGaussianBlur stdDeviation="2"/>
<feColorMatrix type="matrix" values="0 0 0 0 0 0 0 0 0 0 0 0 0 0 0 0 0 0 0.25 0"/>
<feBlend mode="normal" in2="BackgroundImageFix" result="effect1_dropShadow"/>
<feBlend mode="normal" in="SourceGraphic" in2="effect1_dropShadow" result="shape"/>
</filter>
<linearGradient id="paint0_linear" x1="14" y1="2.8382" x2="14" y2="20.2092" gradientUnits="userSpaceOnUse">
<stop stop-color="#7890E4"/>
<stop offset="1" stop-color="#2F4AA7"/>
</linearGradient>
</defs>
</svg>
