<svg width="20" height="17" viewBox="0 0 20 17" fill="none" xmlns="http://www.w3.org/2000/svg">
<g clip-path="url(#clip0)">
<path d="M6.0404 6.0584H11.511C11.8804 6.0584 12.1541 6.25876 12.236 6.59165C12.25 6.65959 12.256 6.72895 12.2537 6.79828C12.255 7.88967 12.255 8.98088 12.2537 10.0719C12.2537 10.5345 11.9668 10.8165 11.5034 10.8165H6.0404V10.9835C6.0404 11.666 6.0404 12.3485 6.0404 13.0312C6.0404 13.3646 5.87447 13.6346 5.5948 13.7304C5.30782 13.8285 5.05032 13.7737 4.82987 13.5525C3.85971 12.5795 2.88833 11.6079 1.91573 10.6375C1.35917 10.081 0.801562 9.5258 0.242911 8.97201C0.0154152 8.74556 -0.0646779 8.4818 0.0561139 8.17734C0.0927528 8.08938 0.146491 8.00957 0.214213 7.94254C1.75207 6.40051 3.29132 4.85978 4.83196 3.32035C5.05215 3.0999 5.31225 3.0472 5.59793 3.14947C5.87421 3.24809 6.03779 3.50715 6.03883 3.82492C6.04118 4.51601 6.03883 5.20763 6.03883 5.89847L6.0404 6.0584Z" fill="#C7D6E9"/>
<path d="M18.6058 15.4934C18.6097 15.4319 18.6165 15.3766 18.6165 15.3213C18.6165 10.7338 18.6165 6.14647 18.6165 1.55935C18.6165 1.37829 18.6165 1.37672 18.4401 1.37672H8.2133C8.03798 1.37672 8.03746 1.37672 8.0372 1.55935C8.0372 2.4508 8.0385 3.34226 8.0372 4.23346C8.0372 4.55201 7.83892 4.81316 7.54647 4.89482C7.23549 4.98169 6.91512 4.86481 6.76067 4.58592C6.69936 4.47665 6.66518 4.35425 6.66101 4.22903C6.65397 3.04641 6.65553 1.86354 6.65736 0.680931C6.65635 0.591562 6.67315 0.502887 6.70677 0.420075C6.74038 0.337264 6.79015 0.261974 6.85317 0.198595C6.91618 0.135216 6.99118 0.0850151 7.0738 0.0509205C7.15641 0.0168258 7.24499 -0.000480774 7.33436 9.6743e-06C11.3305 9.6743e-06 15.3264 9.6743e-06 19.3222 9.6743e-06C19.4116 -0.00129105 19.5004 0.0153656 19.5833 0.0489934C19.6662 0.0826212 19.7415 0.132537 19.8047 0.195785C19.868 0.259033 19.9179 0.334328 19.9515 0.417212C19.9851 0.500096 20.0018 0.588885 20.0005 0.678322C20.0005 5.8481 20.0005 11.0181 20.0005 16.1882C20.0005 16.5594 19.7383 16.8438 19.3712 16.8743C19.3063 16.8798 19.2408 16.8824 19.1761 16.8824C15.2758 16.8824 11.3755 16.8813 7.47524 16.879C7.32341 16.879 7.15852 16.8555 7.0226 16.7929C6.78337 16.6828 6.66023 16.4673 6.65918 16.2041C6.65466 15.0129 6.65466 13.8215 6.65918 12.6299C6.65918 12.2519 6.97982 11.949 7.35889 11.9516C7.73796 11.9542 8.0372 12.2524 8.0372 12.6458C8.04007 13.5284 8.0372 14.4113 8.0372 15.2939C8.0372 15.358 8.04372 15.422 8.04737 15.4921L18.6058 15.4934Z" fill="url(#paint0_linear)"/>
</g>
<defs>
<linearGradient id="paint0_linear" x1="13.3282" y1="-6.10352e-05" x2="13.3282" y2="16.8824" gradientUnits="userSpaceOnUse">
<stop stop-color="#7890E4"/>
<stop offset="1" stop-color="#2F4AA7"/>
</linearGradient>
<clipPath id="clip0">
<rect width="20" height="16.8834" fill="white"/>
</clipPath>
</defs>
</svg>
