<svg width="19" height="20" viewBox="0 0 19 20" fill="none" xmlns="http://www.w3.org/2000/svg">
<ellipse cx="9" cy="10.5" rx="9" ry="8.5" fill="#C7D6E9"/>
<path d="M18.6385 9.31938C18.638 7.28002 17.9684 5.29716 16.7323 3.67509C15.4962 2.05303 13.762 0.881401 11.7958 0.340012C9.8296 -0.201377 7.74008 -0.0826102 5.8479 0.678086C3.95573 1.43878 2.36545 2.79937 1.32112 4.55105C0.276797 6.30273 -0.163866 8.34871 0.066761 10.375C0.297387 12.4013 1.18656 14.2959 2.59782 15.7681C4.00908 17.2403 5.86444 18.2087 7.87917 18.5247C9.89389 18.8407 11.9567 18.4869 13.7509 17.5175C15.2204 18.3614 17.9868 20.0004 17.9868 20.0004L16.892 14.7446C18.0296 13.1646 18.6407 11.2664 18.6385 9.31938ZM13.8682 13.1741H5.01515C4.78873 13.1741 4.57159 13.0841 4.41149 12.924C4.25139 12.7639 4.16145 12.5468 4.16145 12.3204C4.16145 12.0939 4.25139 11.8768 4.41149 11.7167C4.57159 11.5566 4.78873 11.4667 5.01515 11.4667H13.8682C14.0946 11.4667 14.3118 11.5566 14.4718 11.7167C14.6319 11.8768 14.7219 12.0939 14.7219 12.3204C14.7219 12.5468 14.6319 12.7639 14.4718 12.924C14.3118 13.0841 14.0946 13.1741 13.8682 13.1741ZM13.8682 10.0688H5.01515C4.78873 10.0688 4.57159 9.97887 4.41149 9.81877C4.25139 9.65867 4.16145 9.44153 4.16145 9.21512C4.16145 8.9887 4.25139 8.77156 4.41149 8.61146C4.57159 8.45136 4.78873 8.36142 5.01515 8.36142H13.8682C14.0946 8.36142 14.3118 8.45136 14.4718 8.61146C14.6319 8.77156 14.7219 8.9887 14.7219 9.21512C14.7219 9.44153 14.6319 9.65867 14.4718 9.81877C14.3118 9.97887 14.0946 10.0688 13.8682 10.0688ZM13.8682 6.96357H5.01515C4.78873 6.96357 4.57159 6.87363 4.41149 6.71353C4.25139 6.55343 4.16145 6.33628 4.16145 6.10987C4.16145 5.88346 4.25139 5.66631 4.41149 5.50621C4.57159 5.34611 4.78873 5.25617 5.01515 5.25617H13.8682C14.0946 5.25617 14.3118 5.34611 14.4718 5.50621C14.6319 5.66631 14.7219 5.88346 14.7219 6.10987C14.7219 6.33628 14.6319 6.55343 14.4718 6.71353C14.3118 6.87363 14.0946 6.96357 13.8682 6.96357Z" fill="url(#paint0_linear)"/>
<defs>
<linearGradient id="paint0_linear" x1="9.32274" y1="0.00575256" x2="9.32274" y2="20.0004" gradientUnits="userSpaceOnUse">
<stop stop-color="#7890E4"/>
<stop offset="1" stop-color="#2F4AA7"/>
</linearGradient>
</defs>
</svg>
