<svg width="191" height="191" viewBox="0 0 191 191" fill="none" xmlns="http://www.w3.org/2000/svg">
<g clip-path="url(#clip0)">
<path d="M95.5004 191.001C148.1 191.001 191 148.1 191 95.5004C191 42.9015 148.1 0.00100708 95.5004 0.00100708C42.9008 0.00100708 0 42.9015 0 95.5004C0 148.1 42.9008 191.001 95.5004 191.001Z" fill="#48B8E8"/>
<path d="M86.9893 67.6882H175.507C178.333 67.6882 180.646 70.0011 180.646 72.8277V121.75C180.646 124.577 178.333 126.889 175.507 126.889H86.9893C84.1627 126.889 81.8499 124.577 81.8499 121.75V72.8277C81.8499 70.0011 84.1627 67.6882 86.9893 67.6882Z" fill="#666666"/>
<path d="M86.6804 71.5329H175.817V123.045H86.6804V71.5329Z" fill="white"/>
<path d="M104.263 126.889H110.751V128.88H104.263V126.889ZM151.747 126.889H158.234V128.88H151.747V126.889Z" fill="#666666"/>
<path d="M142.936 86.9408H140.328H132.419H129.812L128.748 98.0009L126.861 99.5162L122.878 102.051L131.766 123.046H140.981L149.869 102.051L145.887 99.5162L143.998 98.002L142.936 86.9408Z" fill="#F0B97D"/>
<path d="M147.266 100.335L158.143 103.806L144.239 123.046H129.899L117.852 102.795L125.537 100.359L132.305 105.137H140.419L147.266 100.335Z" fill="#ECF0F1"/>
<path d="M138.802 104.699L137.871 106.992L139.141 123.046H133.604L134.874 106.992L133.943 104.699L136.372 104.601L138.802 104.699Z" fill="#00526C"/>
<path d="M147.079 100.275L166.319 106.417C166.319 106.417 168.81 107.711 169.561 111.65C170.214 115.067 170.581 118.554 171.067 123.047H139.429L147.079 100.275ZM101.678 123.046C102.165 118.552 102.532 115.066 103.185 111.65C103.936 107.711 106.427 106.416 106.427 106.416L125.537 100.359L133.273 123.046H101.678Z" fill="#096389"/>
<path d="M147.079 100.275L151.229 101.6L152.027 112.13C152.027 112.13 151.806 112.996 151.147 112.918L147.402 114.326C147.402 114.326 147.157 114.572 147.376 114.882L150.581 117.078L147.415 123.047H139.428L147.079 100.275ZM125.332 123.046L122.165 117.078L125.37 114.881C125.589 114.571 125.344 114.326 125.344 114.326L121.599 112.918C120.94 112.996 120.721 112.13 120.721 112.13L121.515 101.634L125.537 100.359L133.274 123.046H125.332Z" fill="#81BEEB"/>
<path d="M151.657 64.4472C151.657 65.4749 152.032 66.481 152.005 67.4674C155.521 66.8153 153.823 77.261 151.833 78.6972C151.676 78.8117 151.286 78.5566 150.958 78.3477C150.268 82.1889 144.378 92.4563 140.632 96.7773C139.591 97.977 133.23 97.9565 132.201 96.8225C128.365 92.6003 122.481 82.2109 121.788 78.3477C121.46 78.5566 121.07 78.8117 120.912 78.6972C118.923 77.261 117.224 66.8153 120.742 67.4674C120.713 66.481 121.088 65.4749 121.088 64.4472C121.284 56.3353 128.633 52.2855 136.373 52.2508C144.112 52.2859 151.463 56.3353 151.657 64.4472Z" fill="#FED198"/>
<path d="M146.945 54.0485C148.054 53.9198 152.059 55.1471 152.54 59.3853C153.022 63.6243 152.793 67.5301 152.793 67.5301C152.793 67.5301 150.445 68.1225 150.149 70.5279C149.854 72.934 150.065 72.934 150.065 72.934L149.215 72.7426L148.61 68.6182C145.098 66.4184 148.636 63.1587 145.123 62.3958C135.638 69.1562 127.269 67.999 123.495 64.8188C123.495 64.8188 124.376 68.1448 123.697 69.3311C123.017 70.517 123.423 72.3864 123.423 72.3864L122.541 72.3442C122.541 72.3442 122.7 67.445 120.743 67.467C113.3 55.1807 136.858 39.9194 146.945 54.0485Z" fill="#666666"/>
<path d="M144.089 96.4218C143.814 96.4412 147.301 100.375 147.301 100.375L144.333 110.54L136.373 104.601C140.751 102.453 143.364 99.6707 144.089 96.4218Z" fill="white"/>
<path d="M128.656 96.4218C128.931 96.4412 125.444 100.375 125.444 100.375L128.414 110.54L136.373 104.601C131.995 102.453 129.382 99.6707 128.656 96.4218Z" fill="white"/>
<path d="M153.524 69.64C155.189 61.3345 151.971 55.531 146.917 52.3131C143.788 50.3199 139.953 49.3037 136.131 49.2869C132.313 49.2694 128.512 50.2487 125.444 52.2456C120.581 55.4116 117.559 61.1778 119.254 69.6404L117.961 69.8981C116.14 60.8126 119.438 54.5864 124.729 51.1432C128.015 49.0038 132.071 47.9548 136.136 47.9731C140.198 47.991 144.28 49.0758 147.623 51.2051C153.108 54.6976 156.608 60.9648 154.818 69.8981L153.524 69.64Z" fill="#002642"/>
<path d="M119.267 68.1505C118.464 68.2441 117.885 68.9775 117.979 69.7807L119.123 79.5317C119.217 80.3345 119.95 80.9143 120.753 80.8199C121.556 80.7259 122.136 79.9925 122.041 79.1893L120.897 69.4382C120.804 68.6358 120.07 68.0564 119.267 68.1505Z" fill="#807D7D"/>
<path d="M116.559 69.9754L117.982 69.8086L119.099 79.331L117.665 79.5C116.887 79.5911 116.177 79.0296 116.086 78.2518L115.301 71.5672C115.21 70.783 115.775 70.0675 116.559 69.9754Z" fill="#002642"/>
<path d="M153.479 68.1505C154.281 68.2441 154.861 68.9775 154.766 69.7807L153.623 79.5317C153.529 80.3345 152.795 80.9143 151.992 80.8199C151.189 80.7259 150.61 79.9925 150.705 79.1893L151.848 69.4382C151.942 68.6358 152.676 68.0564 153.479 68.1505Z" fill="#807D7D"/>
<path d="M156.188 69.9754L154.763 69.8086L153.646 79.331L155.081 79.5C155.859 79.5911 156.569 79.0296 156.66 78.2518L157.444 71.5672C157.537 70.783 156.971 70.0675 156.188 69.9754Z" fill="#002642"/>
<path d="M154.229 78.5245C153.293 82.6676 150.814 85.7769 147.586 87.8324C145.19 89.3585 142.381 90.3116 139.48 90.6828V92.0064C142.627 91.627 145.685 90.6015 148.293 88.9411C151.889 86.6513 154.631 83.1689 155.59 78.5249L154.229 78.5245Z" fill="#002642"/>
<path d="M135.724 89.4701H140.203C140.523 89.4701 140.786 89.7312 140.786 90.0517V92.3787C140.786 92.6984 140.524 92.9603 140.203 92.9603H135.724C135.404 92.9603 135.143 92.6984 135.143 92.3787V90.0517C135.143 89.7316 135.404 89.4701 135.724 89.4701Z" fill="#666666"/>
<path d="M80.6979 128.88H188.247V132.516C188.247 134.515 186.434 136.151 184.216 136.151H84.7283C82.5113 136.151 80.6979 134.515 80.6979 132.516V128.88Z" fill="#807D7D"/>
<path d="M81.0444 133.987H187.901C187.271 135.259 185.853 136.151 184.217 136.151H84.7283C83.0917 136.151 81.6745 135.259 81.0444 133.987Z" fill="#666666"/>
<path d="M36.2378 51.1332C36.2378 53.0372 35.5435 64.0473 35.5958 65.8737C29.0812 64.6658 33.5358 84.0173 37.2189 86.6726C37.5069 86.8815 38.2321 86.4122 38.8401 86.0257C39.8075 91.4159 44.9977 98.3867 51.1059 104.93L48.5629 126.254L64.5576 125.286L80.5528 126.254L78.0157 104.979C84.1639 98.4799 89.2854 91.4189 90.2538 86.0261C90.8623 86.4126 91.5853 86.8819 91.8744 86.673C95.5586 84.018 100.012 64.6662 93.4982 65.8741C93.5497 64.0477 92.8555 53.0376 92.8555 51.1335C92.4955 36.1102 78.8819 28.6093 64.5464 28.5455C50.2125 28.609 36.5985 36.1098 36.2378 51.1332Z" fill="#FED198"/>
<path d="M44.3724 121.162L24.2257 127.592L64.5461 183.386L98.8515 125.72L84.6164 121.208L72.082 130.057H57.0545L44.3724 121.162Z" fill="#CCCCCC"/>
<path d="M60.0486 129.245L61.7706 133.494L57.9428 181.912L61.8318 184.888C63.0591 185.351 64.2969 185.788 65.5473 186.201L71.1516 181.912L67.3238 133.494L69.0458 129.245L64.5468 129.066L60.0486 129.245Z" fill="#0E5E9A"/>
<path d="M44.7179 121.053L9.08294 132.426C9.08294 132.426 8.55396 132.702 7.80078 133.348C22.457 167.263 56.204 190.999 95.5 190.999C108.626 190.999 121.134 188.348 132.518 183.558C129.878 165.928 126.808 146.269 126.016 142.119C124.652 134.978 120.01 132.426 120.01 132.426L84.6171 121.208C71.1751 114.765 57.8652 114.237 44.7179 121.053Z" fill="#00526C"/>
<path d="M51.1216 108.762C46.2686 111.047 46.6462 113.391 46.6462 113.391L46.0982 120.467C57.6264 114.738 71.4657 114.737 82.9955 120.467L82.4474 113.391C82.4474 113.391 82.6959 111.303 77.9728 108.762C71.2982 105.171 59.019 105.042 51.1216 108.762Z" fill="white"/>
<path d="M44.7977 32.9333C37.7587 38.0653 29.0544 44.5366 32.2141 54.5667L38.6141 74.8918C41.5212 84.125 41.9506 100.921 55.5709 100.751L64.5629 100.638L73.5548 100.751C87.1751 100.921 87.6045 84.1265 90.512 74.8918L96.9124 54.5667C100.071 44.5355 91.3655 38.0653 84.3276 32.9333C76.3019 27.0832 52.8242 27.0825 44.7977 32.9333Z" fill="#666666"/>
<path d="M33.7066 65.0415H33.7063C32.257 65.2728 31.2609 66.6474 31.4919 68.0952L34.299 85.7038C34.5303 87.1519 35.905 88.1487 37.3543 87.9174H37.3547C38.8036 87.6865 39.8 86.3122 39.5691 84.8637L36.7615 67.2559C36.5299 65.807 35.1556 64.8102 33.7066 65.0415Z" fill="#807D7D"/>
<path d="M28.9279 68.557L31.4993 68.1471L34.2412 85.3419L31.6527 85.7545C30.2481 85.9783 28.9156 85.0129 28.6918 83.6087L26.7672 71.5381C26.5415 70.1238 27.5144 68.7827 28.9279 68.557Z" fill="#114A8E"/>
<path d="M96.1174 65.0415H96.1178C97.5671 65.2728 98.5638 66.6474 98.3325 68.0952L95.525 85.7038C95.2945 87.1519 93.9198 88.1487 92.4705 87.9174H92.4698C91.0212 87.6865 90.0248 86.3122 90.2557 84.8637L93.0633 67.2559C93.2938 65.807 94.6685 64.8102 96.1174 65.0415Z" fill="#807D7D"/>
<path d="M100.896 68.5571L98.3243 68.1471L95.5824 85.3419L98.1721 85.7545C99.5766 85.9783 100.909 85.0129 101.133 83.6087L103.058 71.5381C103.283 70.1239 102.31 68.7828 100.896 68.5571Z" fill="#114A8E"/>
<path d="M98.5325 68.1374C101.799 51.8401 95.4791 40.4495 85.5564 34.1319C79.4179 30.2235 71.9014 28.2311 64.4084 28.1968C56.9217 28.1628 49.4697 30.0844 43.4521 34.001C33.9025 40.2171 27.9643 51.5353 31.2915 68.1374L29.1364 68.5671C25.6011 50.9261 31.9966 38.8428 42.2587 32.163C48.6404 28.0087 56.5181 25.9712 64.4177 26.0077C72.3092 26.0435 80.2398 28.1512 86.7326 32.285C97.3749 39.061 104.164 51.2238 100.688 68.5675L98.5325 68.1374Z" fill="#114A8E"/>
</g>
<defs>
<clipPath id="clip0">
<rect width="191" height="191" fill="white"/>
</clipPath>
</defs>
</svg>
