<svg width="147" height="62" viewBox="0 0 147 62" fill="none" xmlns="http://www.w3.org/2000/svg">
<g filter="url(#filter0_d)">
<rect x="5.5" y="1.5" width="136" height="51" stroke="url(#paint0_linear)" stroke-width="3"/>
</g>
<path d="M34.53 32H24.81V28.22H27.24V16.88H24.81V13.1H34.53V16.88H32.1V28.22H34.53V32Z" fill="#4390EB"/>
<path d="M58.2879 32H53.4279V16.88H47.7579V13.1H63.9579V16.88H58.2879V32Z" fill="#114A8E"/>
<path d="M92.9861 32H78.0011V13.1H92.9861V16.88H82.8611V20.525H90.8261V24.305H82.8611V28.22H92.9861V32ZM121.87 31.73C117.856 32.09 114.526 32.27 111.88 32.27C110.116 32.27 108.82 31.856 107.992 31.028C107.164 30.2 106.75 28.904 106.75 27.14V18.5C106.75 16.61 107.173 15.242 108.019 14.396C108.883 13.532 110.26 13.1 112.15 13.1H121.87V16.88H113.23C112.15 16.88 111.61 17.42 111.61 18.5V27.14C111.61 27.554 111.727 27.887 111.961 28.139C112.213 28.373 112.528 28.49 112.906 28.49C113.284 28.49 113.698 28.49 114.148 28.49C114.598 28.472 115.066 28.454 115.552 28.436C116.038 28.418 116.524 28.4 117.01 28.382C117.514 28.364 118.153 28.328 118.927 28.274C119.719 28.22 120.7 28.157 121.87 28.085V31.73Z" fill="#5689C6"/>
<path d="M26.1113 37.832C26.4633 37.832 26.7953 37.892 27.1073 38.012C27.4273 38.132 27.6913 38.304 27.8993 38.528C28.1393 38.784 28.3153 39.068 28.4273 39.38C28.5553 39.74 28.6193 40.124 28.6193 40.532C28.6193 40.716 28.6033 40.828 28.5713 40.868C28.5313 40.924 28.4593 40.952 28.3553 40.952H24.3233C24.3233 41.336 24.3713 41.672 24.4673 41.96C24.5473 42.208 24.6833 42.44 24.8753 42.656C25.0513 42.856 25.2513 43 25.4753 43.088C25.7153 43.184 25.9713 43.232 26.2433 43.232C26.5313 43.232 26.7633 43.204 26.9393 43.148C27.1073 43.092 27.2753 43.024 27.4433 42.944C27.6193 42.856 27.7393 42.792 27.8033 42.752C27.9073 42.688 27.9873 42.656 28.0433 42.656C28.1313 42.656 28.1993 42.692 28.2473 42.764L28.5473 43.16C28.4353 43.304 28.2753 43.44 28.0673 43.568C27.8273 43.72 27.6313 43.82 27.4793 43.868C27.2393 43.948 27.0233 44.004 26.8313 44.036C26.5913 44.076 26.3713 44.096 26.1713 44.096C25.7553 44.096 25.3673 44.024 25.0073 43.88C24.6633 43.744 24.3553 43.532 24.0833 43.244C23.8273 42.98 23.6273 42.64 23.4833 42.224C23.3393 41.816 23.2673 41.352 23.2673 40.832C23.2673 40.416 23.3353 40.024 23.4713 39.656C23.6073 39.28 23.7953 38.96 24.0353 38.696C24.2833 38.424 24.5833 38.212 24.9353 38.06C25.2873 37.908 25.6793 37.832 26.1113 37.832ZM26.1353 38.612C25.6153 38.612 25.2113 38.76 24.9233 39.056C24.6273 39.368 24.4433 39.784 24.3713 40.304H27.6713C27.6713 40.056 27.6353 39.832 27.5633 39.632C27.4753 39.384 27.3793 39.204 27.2753 39.092C27.1393 38.948 26.9753 38.832 26.7833 38.744C26.5993 38.664 26.3793 38.624 26.1233 38.624L26.1353 38.612ZM32.0485 37.808C32.7205 37.808 33.2725 38.048 33.7045 38.528V36.032L32.9005 35.888C32.7805 35.864 32.7205 35.792 32.7205 35.672V35.144H34.7605V43.112C35.1605 43.184 35.3925 43.232 35.4565 43.256C35.5685 43.28 35.6245 43.352 35.6245 43.472V44H34.1365C33.9925 44 33.8965 43.924 33.8485 43.772L33.7525 43.04C33.1845 43.728 32.5045 44.072 31.7125 44.072C31.0005 44.072 30.4405 43.808 30.0325 43.28C29.6165 42.728 29.4085 41.96 29.4085 40.976C29.4085 40.056 29.6445 39.304 30.1165 38.72C30.6045 38.112 31.2485 37.808 32.0485 37.808ZM32.0725 43.22C32.7045 43.22 33.2485 42.912 33.7045 42.296V39.368C33.3445 38.888 32.8765 38.648 32.3005 38.648C31.7165 38.648 31.2725 38.848 30.9685 39.248C30.6645 39.648 30.5125 40.224 30.5125 40.976C30.5125 42.12 30.8085 42.824 31.4005 43.088C31.5845 43.168 31.8045 43.208 32.0605 43.208L32.0725 43.22ZM39.302 43.256C39.902 43.256 40.45 42.976 40.946 42.416V38.816C40.874 38.792 40.646 38.744 40.262 38.672C40.142 38.648 40.082 38.572 40.082 38.444V37.928H42.014V43.136C42.398 43.208 42.626 43.256 42.698 43.28C42.818 43.304 42.878 43.376 42.878 43.496V44.012H41.378C41.234 44.012 41.138 43.936 41.09 43.784L41.006 43.136C40.43 43.784 39.758 44.108 38.99 44.108C38.342 44.108 37.838 43.896 37.478 43.472C37.126 43.048 36.95 42.492 36.95 41.804V38.804C36.582 38.732 36.358 38.684 36.278 38.66C36.15 38.636 36.086 38.56 36.086 38.432V37.928H38.03V41.792C38.03 42.272 38.134 42.632 38.342 42.872C38.558 43.12 38.878 43.244 39.302 43.244V43.256ZM48.3793 43.148C47.8753 43.772 47.1233 44.084 46.1233 44.084C45.3553 44.084 44.7233 43.808 44.2273 43.256C43.7073 42.672 43.4473 41.904 43.4473 40.952C43.4473 40.024 43.6913 39.276 44.1793 38.708C44.6913 38.124 45.4033 37.832 46.3153 37.832C46.7713 37.832 47.3713 37.976 48.1153 38.264V39.848H47.6353C47.5233 39.848 47.4553 39.792 47.4313 39.68C47.4233 39.656 47.4073 39.504 47.3833 39.224L47.3473 38.828C47.2593 38.796 47.1713 38.772 47.0833 38.756C47.0033 38.74 46.9473 38.728 46.9153 38.72C46.6993 38.688 46.4753 38.672 46.2433 38.672C46.0353 38.672 45.8153 38.724 45.5833 38.828C45.3673 38.924 45.1793 39.072 45.0193 39.272C44.7153 39.672 44.5633 40.232 44.5633 40.952C44.5633 41.672 44.7233 42.24 45.0433 42.656C45.3553 43.056 45.7833 43.256 46.3273 43.256C46.8313 43.256 47.2753 43.088 47.6593 42.752C47.7233 42.688 47.8033 42.656 47.8993 42.656C47.9873 42.656 48.0513 42.688 48.0913 42.752L48.3793 43.148ZM54.2968 43.232C54.3528 43.24 54.3968 43.268 54.4288 43.316C54.4608 43.356 54.4768 43.404 54.4768 43.46V43.976H53.2288C53.1568 43.976 53.0728 43.96 52.9768 43.928C52.9208 43.912 52.8808 43.848 52.8568 43.736L52.7368 43.16L52.2568 43.556C52.1208 43.668 51.9608 43.764 51.7768 43.844C51.6008 43.924 51.4248 43.984 51.2488 44.024C51.0888 44.064 50.8728 44.084 50.6008 44.084C50.3768 44.084 50.1608 44.048 49.9528 43.976C49.7048 43.888 49.5248 43.792 49.4128 43.688C49.2688 43.56 49.1488 43.392 49.0528 43.184C48.9648 43 48.9208 42.76 48.9208 42.464C48.9208 42.208 48.9848 41.976 49.1128 41.768C49.2568 41.536 49.4728 41.336 49.7608 41.168C50.0808 40.984 50.4648 40.84 50.9128 40.736C51.3768 40.632 51.9608 40.58 52.6648 40.58V40.112C52.6648 39.64 52.5608 39.28 52.3528 39.032C52.1448 38.784 51.8448 38.66 51.4528 38.66C51.1968 38.66 50.9768 38.696 50.7928 38.768C50.5848 38.848 50.4328 38.92 50.3368 38.984C50.2888 39.016 50.2328 39.052 50.1688 39.092C50.1128 39.124 50.0528 39.16 49.9888 39.2C49.9008 39.264 49.8088 39.296 49.7128 39.296C49.6248 39.296 49.5608 39.28 49.5208 39.248C49.4728 39.208 49.4328 39.16 49.4008 39.104L49.2088 38.768C49.5208 38.464 49.8808 38.224 50.2888 38.048C50.6568 37.888 51.0888 37.808 51.5848 37.808C51.9448 37.808 52.2488 37.864 52.4968 37.976C52.7688 38.096 52.9888 38.248 53.1568 38.432C53.3328 38.616 53.4688 38.856 53.5648 39.152C53.6528 39.416 53.6968 39.728 53.6968 40.088V43.124C54.0808 43.204 54.2808 43.248 54.2968 43.256V43.232ZM52.6408 41.264C52.1208 41.264 51.7048 41.292 51.3928 41.348C51.0888 41.404 50.8088 41.488 50.5528 41.6C50.3288 41.704 50.1688 41.824 50.0728 41.96C49.9768 42.104 49.9288 42.256 49.9288 42.416C49.9288 42.544 49.9568 42.68 50.0128 42.824C50.0608 42.944 50.1328 43.04 50.2288 43.112C50.3248 43.184 50.4288 43.236 50.5408 43.268C50.6768 43.308 50.8088 43.328 50.9368 43.328C51.0968 43.328 51.2648 43.308 51.4408 43.268C51.6008 43.228 51.7488 43.176 51.8848 43.112C52.0048 43.056 52.1368 42.968 52.2808 42.848C52.3608 42.784 52.4808 42.672 52.6408 42.512V41.264ZM57.0259 44.096C56.5619 44.096 56.1939 43.96 55.9219 43.688C55.6659 43.432 55.5379 43.048 55.5379 42.536V38.816H54.8059C54.7339 38.816 54.6779 38.8 54.6379 38.768C54.5979 38.736 54.5779 38.676 54.5779 38.588V38.168L55.5739 38.036L55.8139 36.152C55.8139 36.088 55.8379 36.04 55.8859 36.008C55.9259 35.976 55.9819 35.96 56.0539 35.96H56.5939V38.048H58.3339V38.828H56.5939V42.476C56.5939 42.74 56.6539 42.932 56.7739 43.052C56.8939 43.172 57.0579 43.232 57.2659 43.232C57.3539 43.232 57.4539 43.216 57.5659 43.184C57.6379 43.16 57.7099 43.128 57.7819 43.088C57.8059 43.072 57.8299 43.056 57.8539 43.04C57.8779 43.024 57.9019 43.008 57.9259 42.992C57.9899 42.96 58.0299 42.944 58.0459 42.944C58.1019 42.944 58.1499 42.976 58.1899 43.04L58.5019 43.544C58.2859 43.728 58.0619 43.864 57.8299 43.952C57.5659 44.048 57.2979 44.096 57.0259 44.096ZM60.0293 36.548C59.9653 36.484 59.9093 36.404 59.8613 36.308C59.8213 36.228 59.8013 36.132 59.8013 36.02C59.8013 35.9 59.8213 35.8 59.8613 35.72C59.9173 35.608 59.9733 35.524 60.0293 35.468C60.0933 35.404 60.1733 35.348 60.2693 35.3C60.3493 35.26 60.4453 35.24 60.5573 35.24C60.6693 35.24 60.7653 35.26 60.8453 35.3C60.9413 35.348 61.0213 35.404 61.0853 35.468C61.1413 35.524 61.1973 35.608 61.2533 35.72C61.3013 35.816 61.3253 35.916 61.3253 36.02C61.3253 36.116 61.3013 36.212 61.2533 36.308C61.2053 36.404 61.1493 36.484 61.0853 36.548C61.0213 36.612 60.9413 36.668 60.8453 36.716C60.7653 36.756 60.6693 36.776 60.5573 36.776C60.4453 36.776 60.3493 36.756 60.2693 36.716C60.1733 36.668 60.0933 36.612 60.0293 36.548ZM61.7693 43.256C61.8253 43.264 61.8693 43.292 61.9013 43.34C61.9333 43.38 61.9492 43.428 61.9492 43.484V44H59.1533V43.484C59.1533 43.428 59.1693 43.38 59.2013 43.34C59.2333 43.292 59.2773 43.264 59.3333 43.256L60.0293 43.124V38.792L59.3333 38.66C59.2773 38.652 59.2333 38.628 59.2013 38.588C59.1693 38.54 59.1533 38.488 59.1533 38.432V37.928H61.0853V43.124L61.7693 43.256ZM65.418 37.832C65.858 37.832 66.258 37.904 66.618 38.048C66.97 38.192 67.278 38.4 67.542 38.672C67.79 38.928 67.982 39.256 68.118 39.656C68.254 40.048 68.322 40.48 68.322 40.952C68.322 41.424 68.254 41.856 68.118 42.248C67.982 42.648 67.79 42.976 67.542 43.232C67.278 43.504 66.97 43.712 66.618 43.856C66.258 44 65.858 44.072 65.418 44.072C64.978 44.072 64.578 44 64.218 43.856C63.866 43.712 63.558 43.504 63.294 43.232C63.054 42.984 62.858 42.656 62.706 42.248C62.578 41.904 62.514 41.472 62.514 40.952C62.514 40.432 62.578 40 62.706 39.656C62.858 39.248 63.054 38.92 63.294 38.672C63.558 38.4 63.866 38.192 64.218 38.048C64.578 37.904 64.978 37.832 65.418 37.832ZM65.418 43.256C66.034 43.256 66.482 43.056 66.762 42.656C67.058 42.24 67.206 41.676 67.206 40.964C67.206 40.252 67.058 39.688 66.762 39.272C66.482 38.872 66.034 38.672 65.418 38.672C65.106 38.672 64.842 38.72 64.626 38.816C64.418 38.912 64.234 39.064 64.074 39.272C63.922 39.48 63.81 39.72 63.738 39.992C63.658 40.312 63.618 40.64 63.618 40.976C63.618 41.296 63.658 41.616 63.738 41.936C63.81 42.208 63.922 42.448 64.074 42.656C64.21 42.84 64.394 42.984 64.626 43.088C64.882 43.2 65.146 43.256 65.418 43.256ZM70.8698 38.792C71.4698 38.144 72.1418 37.82 72.8858 37.82C73.5418 37.82 74.0458 38.032 74.3978 38.456C74.7418 38.872 74.9138 39.428 74.9138 40.124V43.112C75.2978 43.184 75.5258 43.232 75.5978 43.256C75.7258 43.28 75.7898 43.356 75.7898 43.484V44H73.8458V40.136C73.8458 39.16 73.4218 38.672 72.5738 38.672C71.9738 38.672 71.4218 38.956 70.9178 39.524V43.124C70.9498 43.124 71.1818 43.172 71.6138 43.268C71.7338 43.292 71.7938 43.368 71.7938 43.496V44H68.9978V43.496C68.9978 43.368 69.0538 43.292 69.1658 43.268L69.8618 43.136V38.804C69.4618 38.732 69.2298 38.684 69.1658 38.66C69.0538 38.636 68.9978 38.56 68.9978 38.432V37.928H70.4858C70.6298 37.928 70.7258 38 70.7738 38.144L70.8698 38.804V38.792ZM83.852 43.148C83.348 43.772 82.596 44.084 81.596 44.084C80.828 44.084 80.196 43.808 79.7 43.256C79.18 42.672 78.92 41.904 78.92 40.952C78.92 40.024 79.164 39.276 79.652 38.708C80.164 38.124 80.876 37.832 81.788 37.832C82.244 37.832 82.844 37.976 83.588 38.264V39.848H83.108C82.996 39.848 82.928 39.792 82.904 39.68C82.896 39.656 82.88 39.504 82.856 39.224L82.82 38.828C82.732 38.796 82.644 38.772 82.556 38.756C82.476 38.74 82.42 38.728 82.388 38.72C82.172 38.688 81.948 38.672 81.716 38.672C81.508 38.672 81.288 38.724 81.056 38.828C80.84 38.924 80.652 39.072 80.492 39.272C80.188 39.672 80.036 40.232 80.036 40.952C80.036 41.672 80.196 42.24 80.516 42.656C80.828 43.056 81.256 43.256 81.8 43.256C82.304 43.256 82.748 43.088 83.132 42.752C83.196 42.688 83.276 42.656 83.372 42.656C83.46 42.656 83.524 42.688 83.564 42.752L83.852 43.148ZM87.5782 37.832C88.0182 37.832 88.4182 37.904 88.7782 38.048C89.1302 38.192 89.4382 38.4 89.7022 38.672C89.9502 38.928 90.1422 39.256 90.2782 39.656C90.4142 40.048 90.4822 40.48 90.4822 40.952C90.4822 41.424 90.4142 41.856 90.2782 42.248C90.1422 42.648 89.9502 42.976 89.7022 43.232C89.4382 43.504 89.1302 43.712 88.7782 43.856C88.4182 44 88.0182 44.072 87.5782 44.072C87.1382 44.072 86.7382 44 86.3782 43.856C86.0262 43.712 85.7182 43.504 85.4542 43.232C85.2142 42.984 85.0182 42.656 84.8662 42.248C84.7382 41.904 84.6742 41.472 84.6742 40.952C84.6742 40.432 84.7382 40 84.8662 39.656C85.0182 39.248 85.2142 38.92 85.4542 38.672C85.7182 38.4 86.0262 38.192 86.3782 38.048C86.7382 37.904 87.1382 37.832 87.5782 37.832ZM87.5782 43.256C88.1942 43.256 88.6422 43.056 88.9222 42.656C89.2182 42.24 89.3662 41.676 89.3662 40.964C89.3662 40.252 89.2182 39.688 88.9222 39.272C88.6422 38.872 88.1942 38.672 87.5782 38.672C87.2662 38.672 87.0022 38.72 86.7862 38.816C86.5782 38.912 86.3942 39.064 86.2342 39.272C86.0822 39.48 85.9702 39.72 85.8982 39.992C85.8182 40.312 85.7782 40.64 85.7782 40.976C85.7782 41.296 85.8182 41.616 85.8982 41.936C85.9702 42.208 86.0822 42.448 86.2342 42.656C86.3702 42.84 86.5542 42.984 86.7862 43.088C87.0422 43.2 87.3062 43.256 87.5782 43.256ZM93.018 38.78C93.53 38.148 94.102 37.832 94.734 37.832C95.15 37.832 95.486 37.948 95.742 38.18C95.99 38.404 96.174 38.712 96.294 39.104C96.47 38.672 96.734 38.352 97.086 38.144C97.454 37.936 97.806 37.832 98.142 37.832C98.494 37.832 98.806 37.884 99.078 37.988C99.334 38.084 99.55 38.232 99.726 38.432C100.078 38.832 100.254 39.4 100.254 40.136V43.136C100.654 43.208 100.886 43.256 100.95 43.28C101.07 43.304 101.13 43.376 101.13 43.496V44.024H99.198V40.148C99.198 39.66 99.094 39.3 98.886 39.068C98.662 38.82 98.358 38.696 97.974 38.696C97.606 38.696 97.302 38.816 97.062 39.056C96.798 39.32 96.666 39.68 96.666 40.136V43.136C96.698 43.144 96.766 43.16 96.87 43.184C96.974 43.208 97.134 43.24 97.35 43.28C97.47 43.304 97.53 43.376 97.53 43.496V44.012H95.598V40.136C95.598 39.176 95.214 38.696 94.446 38.696C93.95 38.696 93.498 38.96 93.09 39.488V43.136L93.414 43.196L93.774 43.268C93.894 43.292 93.954 43.368 93.954 43.496V44H91.158V43.496C91.158 43.368 91.214 43.292 91.326 43.268L92.022 43.136V38.804C91.622 38.732 91.39 38.684 91.326 38.66C91.214 38.636 91.158 38.56 91.158 38.432V37.928H92.646C92.79 37.928 92.886 38 92.934 38.144L93.018 38.768V38.78ZM103.49 38.864C104.074 38.16 104.754 37.808 105.53 37.808C106.242 37.808 106.802 38.072 107.21 38.6C107.626 39.16 107.834 39.936 107.834 40.928C107.834 41.84 107.602 42.588 107.138 43.172C106.65 43.78 106.034 44.084 105.29 44.084C104.546 44.084 103.962 43.848 103.538 43.376V45.176L103.862 45.248L104.21 45.32C104.338 45.344 104.402 45.42 104.402 45.548V46.064H101.594V45.548C101.594 45.42 101.658 45.344 101.786 45.32L102.458 45.188V38.804C102.09 38.732 101.866 38.684 101.786 38.66C101.658 38.636 101.594 38.56 101.594 38.432V37.928H103.106C103.25 37.928 103.346 38 103.394 38.144L103.478 38.864H103.49ZM103.538 42.536C103.898 43.016 104.362 43.256 104.93 43.256C105.522 43.256 105.97 43.056 106.274 42.656C106.578 42.256 106.73 41.68 106.73 40.928C106.73 40.184 106.598 39.624 106.334 39.248C106.07 38.864 105.682 38.672 105.17 38.672C104.538 38.672 103.994 38.98 103.538 39.596V42.536ZM111.094 43.256C111.222 43.28 111.286 43.356 111.286 43.484V44H108.478V43.484C108.478 43.356 108.542 43.28 108.67 43.256L109.342 43.124V36.032C108.974 35.96 108.75 35.912 108.67 35.888C108.542 35.864 108.478 35.792 108.478 35.672V35.156H110.422V43.112C110.79 43.184 111.014 43.232 111.094 43.256ZM114.658 37.832C115.01 37.832 115.342 37.892 115.654 38.012C115.974 38.132 116.238 38.304 116.446 38.528C116.686 38.784 116.862 39.068 116.974 39.38C117.102 39.74 117.166 40.124 117.166 40.532C117.166 40.716 117.15 40.828 117.118 40.868C117.078 40.924 117.006 40.952 116.902 40.952H112.87C112.87 41.336 112.918 41.672 113.014 41.96C113.094 42.208 113.23 42.44 113.422 42.656C113.598 42.856 113.798 43 114.022 43.088C114.262 43.184 114.518 43.232 114.79 43.232C115.078 43.232 115.31 43.204 115.486 43.148C115.654 43.092 115.822 43.024 115.99 42.944C116.166 42.856 116.286 42.792 116.35 42.752C116.454 42.688 116.534 42.656 116.59 42.656C116.678 42.656 116.746 42.692 116.794 42.764L117.094 43.16C116.982 43.304 116.822 43.44 116.614 43.568C116.374 43.72 116.178 43.82 116.026 43.868C115.786 43.948 115.57 44.004 115.378 44.036C115.138 44.076 114.918 44.096 114.718 44.096C114.302 44.096 113.914 44.024 113.554 43.88C113.21 43.744 112.902 43.532 112.63 43.244C112.374 42.98 112.174 42.64 112.03 42.224C111.886 41.816 111.814 41.352 111.814 40.832C111.814 40.416 111.882 40.024 112.018 39.656C112.154 39.28 112.342 38.96 112.582 38.696C112.83 38.424 113.13 38.212 113.482 38.06C113.834 37.908 114.226 37.832 114.658 37.832ZM114.682 38.612C114.162 38.612 113.758 38.76 113.47 39.056C113.174 39.368 112.99 39.784 112.918 40.304H116.218C116.218 40.056 116.182 39.832 116.11 39.632C116.022 39.384 115.926 39.204 115.822 39.092C115.686 38.948 115.522 38.832 115.33 38.744C115.146 38.664 114.926 38.624 114.67 38.624L114.682 38.612ZM122.829 43.16C122.925 43.184 123.101 43.216 123.357 43.256C123.501 43.28 123.573 43.36 123.573 43.496V44.012H121.185V43.496C121.185 43.376 121.245 43.304 121.365 43.28C121.381 43.28 121.413 43.276 121.461 43.268C121.509 43.252 121.581 43.236 121.677 43.22L120.501 41.408C120.485 41.488 120.445 41.592 120.381 41.72L119.373 43.208C119.405 43.208 119.453 43.216 119.517 43.232L119.733 43.28C119.853 43.304 119.913 43.376 119.913 43.496V44.012H117.525V43.496C117.525 43.376 117.585 43.304 117.705 43.28C117.721 43.28 117.753 43.272 117.801 43.256C117.857 43.232 117.921 43.216 117.993 43.208C118.185 43.176 118.281 43.16 118.281 43.16L119.829 40.904L118.377 38.792C118.217 38.76 118.081 38.736 117.969 38.72C117.865 38.704 117.789 38.688 117.741 38.672C117.629 38.648 117.573 38.576 117.573 38.456V37.928H119.949V38.456C119.949 38.576 119.885 38.648 119.757 38.672C119.749 38.672 119.729 38.676 119.697 38.684C119.665 38.692 119.605 38.704 119.517 38.72L120.585 40.376C120.617 40.272 120.669 40.16 120.741 40.04L121.629 38.732L121.437 38.696L121.305 38.672C121.185 38.648 121.125 38.572 121.125 38.444V37.928H123.501V38.444C123.501 38.572 123.441 38.648 123.321 38.672C123.041 38.728 122.829 38.768 122.685 38.792L121.245 40.832L122.805 43.148L122.829 43.16Z" fill="url(#paint1_linear)"/>
<defs>
<filter id="filter0_d" x="0" y="0" width="147" height="62" filterUnits="userSpaceOnUse" color-interpolation-filters="sRGB">
<feFlood flood-opacity="0" result="BackgroundImageFix"/>
<feColorMatrix in="SourceAlpha" type="matrix" values="0 0 0 0 0 0 0 0 0 0 0 0 0 0 0 0 0 0 127 0"/>
<feOffset dy="4"/>
<feGaussianBlur stdDeviation="2"/>
<feColorMatrix type="matrix" values="0 0 0 0 0 0 0 0 0 0 0 0 0 0 0 0 0 0 0.25 0"/>
<feBlend mode="normal" in2="BackgroundImageFix" result="effect1_dropShadow"/>
<feBlend mode="normal" in="SourceGraphic" in2="effect1_dropShadow" result="shape"/>
</filter>
<linearGradient id="paint0_linear" x1="73.5" y1="0" x2="73.5" y2="54" gradientUnits="userSpaceOnUse">
<stop stop-color="#3357B9"/>
<stop offset="1" stop-color="#7685AB"/>
</linearGradient>
<linearGradient id="paint1_linear" x1="73.5" y1="33" x2="73.5" y2="47" gradientUnits="userSpaceOnUse">
<stop stop-color="#83A7D1"/>
<stop offset="1" stop-color="#365C88"/>
</linearGradient>
</defs>
</svg>
