<svg width="182" height="182" viewBox="0 0 182 182" fill="none" xmlns="http://www.w3.org/2000/svg">
<path d="M91 182C141.121 182 182 141.121 182 91C182 40.8793 141.121 0 91 0C40.8793 0 0 40.8793 0 91C0 141.121 40.8793 182 91 182Z" fill="#48B8E8"/>
<path d="M82.7047 73.0862H85.9996H95.9975H99.2923L100.637 87.066L103.024 88.9813L108.057 92.1869L90.9985 132.481L73.9399 92.1869L78.9734 88.9813L81.36 87.0678L82.7033 73.0865H82.7047V73.0862Z" fill="#F0B97D"/>
<path d="M77.2312 90.016L63.4824 94.405L90.9985 132.481L114.409 93.1278L104.695 90.0473L96.1408 96.086H85.8858L77.2298 90.0157H77.2312V90.016Z" fill="#F1F1F1"/>
<path d="M87.9295 95.5326L89.1046 98.4318L86.4923 131.474L90.9982 134.923L95.5059 131.474L92.8936 98.4318L94.0687 95.5326L90.9982 95.4107L87.9295 95.5326Z" fill="#FF5B61"/>
<path d="M77.467 89.9418L53.1483 97.7045C53.1483 97.7045 50.0003 99.3411 49.0508 104.319C48.1394 109.087 47.6698 113.959 46.951 120.533C58.5507 131.177 74.0154 137.676 90.9997 137.676C107.984 137.676 123.45 131.177 135.05 120.532C134.33 113.957 133.86 109.085 132.949 104.317C131.998 99.3379 128.85 97.7027 128.85 97.7027L104.696 90.0474L91 130.216L77.4688 89.9418H77.467Z" fill="#096389"/>
<path d="M77.4669 89.9418L72.2209 91.6164L71.2139 104.927C71.2139 104.927 71.4926 106.02 72.3247 105.923L77.0581 107.703C77.0581 107.703 77.3681 108.014 77.0912 108.405L73.0399 111.18L87.0379 137.564C88.35 137.64 89.6702 137.678 90.9986 137.678C92.3287 137.678 93.6489 137.64 94.9592 137.564L108.959 111.18L104.907 108.405C104.629 108.014 104.94 107.703 104.94 107.703L109.674 105.923C110.506 106.02 110.785 104.927 110.785 104.927L109.779 91.6591L104.695 90.047L90.9986 130.216L77.4669 89.9418Z" fill="#00D1FF"/>
<path d="M71.6802 44.6554C71.6802 45.9557 71.2057 47.2265 71.2419 48.4742C66.7968 47.6485 68.9428 60.8534 71.4595 62.6681C71.6589 62.8131 72.1502 62.49 72.5653 62.2262C73.4373 67.0816 80.8837 80.0594 85.6171 85.5215C86.9323 87.038 94.972 87.0131 96.2726 85.5791C101.122 80.2425 108.558 67.1114 109.435 62.2262C109.85 62.49 110.341 62.8131 110.541 62.6681C113.056 60.8534 115.202 47.6485 110.757 48.4742C110.791 47.2265 110.318 45.9557 110.318 44.6554C110.073 34.4023 100.782 29.2846 90.9985 29.2402C81.2167 29.2846 71.9259 34.4023 71.6788 44.6554H71.6802Z" fill="#FED198"/>
<path d="M77.6369 31.5112C76.236 31.3481 71.1727 32.899 70.5645 38.2573C69.9563 43.6157 70.2464 48.5517 70.2464 48.5517C70.2464 48.5517 73.2131 49.3 73.5871 52.341C73.9596 55.3835 73.6941 55.3835 73.6941 55.3835L74.7686 55.141L75.5333 49.9277C79.9716 47.1455 75.5002 43.027 79.9389 42.0626C91.9278 50.6067 102.507 49.1446 107.277 45.125C107.277 45.125 106.164 49.3295 107.023 50.8278C107.88 52.3275 107.369 54.6896 107.369 54.6896L108.483 54.637C108.483 54.637 108.281 48.4447 110.756 48.4728C120.163 32.942 90.3855 13.6518 77.6369 31.5112Z" fill="#666666"/>
<path d="M81.2463 85.0715C81.5939 85.0946 77.1851 90.0669 77.1851 90.0669L80.9381 102.916L90.9986 95.4103C85.4653 92.6942 82.1627 89.1772 81.2463 85.0715Z" fill="white"/>
<path d="M100.754 85.0715C100.404 85.0946 104.811 90.0669 104.811 90.0669L101.058 102.916L90.9978 95.4103C96.5325 92.6942 99.8351 89.1768 100.752 85.0715H100.754Z" fill="white"/>
<path d="M85.5247 73.5213L88.2771 71.649C89.1227 72.4367 93.0567 72.4253 93.8974 71.6408L96.4355 73.5213C97.6668 74.4327 98.9358 74.7458 99.2522 76.1599L100.259 80.6808C100.576 82.098 97.7706 86.8631 96.2261 86.8631H85.3153C83.7712 86.8631 81.6515 82.3159 81.8971 80.8819L82.708 76.1599C82.9536 74.7259 84.2557 74.385 85.5247 73.5213ZM90.288 74.5777L84.9495 77.3827C84.9495 77.3827 85.1966 80.4845 85.889 81.4571C86.5797 82.4279 89.2991 81.2691 89.2991 81.2691C89.2991 81.2691 89.2991 78.8398 90.0903 78.8775C90.0985 78.8775 91.862 78.8775 91.8687 78.8775C92.6582 78.8394 92.6582 81.2691 92.6582 81.2691C92.6582 81.2691 95.3776 82.4279 96.07 81.4571C96.7607 80.4845 97.0095 77.3827 97.0095 77.3827L91.6711 74.5777L90.979 74.7722L90.2869 74.5777H90.288Z" fill="#666666"/>
<path d="M55.3354 82.5284L71.682 78.8102V81.6202L55.9553 85.3384C55.5697 85.3715 53.0067 86.4148 52.2023 87.2189C51.3979 88.0233 50.897 89.1323 50.897 90.352C50.897 98.3571 50.9102 106.356 50.9102 114.348H49.4911H48.087V112.942V90.352C48.087 88.3578 48.9011 86.5431 50.2149 85.2311C51.5283 83.9176 54.2711 82.655 55.3358 82.5263V82.5284H55.3354Z" fill="white"/>
<path d="M62.238 79.288L74.8546 76.628C75.9061 76.4073 76.9476 77.0844 77.1701 78.1359L77.5558 79.9719C77.7783 81.0234 77.0994 82.0649 76.0479 82.286L63.4313 84.946C62.3798 85.1667 61.3383 84.4878 61.1172 83.4381L60.7297 81.6021C60.509 80.5506 61.1865 79.5091 62.238 79.288Z" fill="#0E7886"/>
<path d="M49.4877 108.456C53.229 108.456 56.2615 111.488 56.2615 115.229L56.2597 115.274H42.7153L42.7135 115.229C42.7139 111.49 45.7464 108.456 49.4877 108.456Z" fill="#0E7886"/>
<path d="M28.4474 114.307H153.551V123.472H28.4474V114.307Z" fill="#FBB429"/>
<path d="M44.7161 123.472H137.283V181.998H44.7161V123.472Z" fill="#FBB429"/>
<path d="M28.4474 123.472L44.7165 133.783V123.472H28.4474ZM153.551 123.472L137.282 133.783V123.472H153.551Z" fill="#FBAB08"/>
<path d="M44.7161 123.472H137.283V127.367H44.7161V123.472Z" fill="#FBAB08"/>
<path d="M136.959 149.185H44.7162V163.582H136.959V149.185Z" fill="#F7A713"/>
<path d="M90.8387 172.965C99.9958 172.965 107.419 165.541 107.419 156.384C107.419 147.227 99.9958 139.804 90.8387 139.804C81.6815 139.804 74.2582 147.227 74.2582 156.384C74.2582 165.541 81.6815 172.965 90.8387 172.965Z" fill="#FAAC1B"/>
</svg>
