<svg width="23" height="20" viewBox="0 0 23 20" fill="none" xmlns="http://www.w3.org/2000/svg">
<path d="M2.66895 5.38339L3.54787 6.04415C1.9475 8.97799 2.09902 11.766 4.10745 14.4533L3.26534 15.1849C1.03122 12.885 0.450664 8.47394 2.66895 5.38339Z" fill="url(#paint0_linear)"/>
<path d="M6.19622 12.8417L5.38012 13.547C3.65492 11.7883 3.32902 8.44168 4.77666 6.27038L5.64785 6.92911C5.15279 7.88105 4.94012 8.93334 5.03238 9.97439C5.12426 11.028 5.53853 11.9685 6.19622 12.8417Z" fill="url(#paint1_linear)"/>
<path d="M14.4987 15.5098C12.4263 15.9313 10.3348 16.2594 8.21724 16.2131C7.84197 16.211 7.46998 16.1624 7.11104 16.0686C6.91324 16.0127 6.64865 15.8163 6.63284 15.6586C6.6147 15.474 6.78725 15.2088 6.96136 15.0765C7.24069 14.8662 7.60432 14.7571 7.90324 14.5672C8.09817 14.4414 8.3231 14.2705 8.39559 14.0777C8.99305 12.4756 9.12104 10.8296 8.96511 9.16812C8.88872 8.34622 8.71595 7.52782 8.71609 6.70822C8.71535 5.09083 9.45328 3.80176 10.9726 2.91536C11.0355 2.86527 11.0863 2.80328 11.1214 2.73373C11.1565 2.66417 11.1751 2.58872 11.1759 2.51262C11.1773 1.91363 11.4677 1.47603 11.9762 1.37407C12.5122 1.26724 12.9465 1.56894 13.1706 2.15167C13.2044 2.22538 13.2548 2.29114 13.3185 2.34456C13.3822 2.39798 13.4578 2.43785 13.5401 2.4615C15.5081 2.85319 16.6705 4.00984 17.1023 5.79292C17.5149 7.49632 17.8869 9.20581 18.8261 10.7357C18.9366 10.9153 19.0565 11.092 19.1674 11.2737C19.5679 11.9571 20.0506 12.4824 21.0295 12.4082C21.4073 12.3785 21.9112 12.4435 21.9911 12.9199C22.0711 13.3963 21.6208 13.5983 21.2558 13.7339C19.9955 14.1791 18.7313 14.6297 17.4411 14.9824C16.4792 15.2277 15.4793 15.3352 14.4987 15.5098ZM12.7158 2.40343C12.598 2.05219 12.4346 1.78988 12.0525 1.89207C11.7222 1.98163 11.6256 2.25267 11.734 2.57828L12.7158 2.40343Z" fill="url(#paint2_linear)"/>
<path d="M13.3744 16.105L15.8319 15.6674C16.0542 16.4053 15.637 17.1102 14.9095 17.2648C14.1371 17.4297 13.4699 16.9372 13.3744 16.105Z" fill="url(#paint3_linear)"/>
<defs>
<linearGradient id="paint0_linear" x1="1.90639" y1="5.51919" x2="3.61668" y2="15.1223" gradientUnits="userSpaceOnUse">
<stop stop-color="#7890E4"/>
<stop offset="1" stop-color="#2F4AA7"/>
</linearGradient>
<linearGradient id="paint1_linear" x1="4.37129" y1="6.34258" x2="5.64595" y2="13.4997" gradientUnits="userSpaceOnUse">
<stop stop-color="#7890E4"/>
<stop offset="1" stop-color="#2F4AA7"/>
</linearGradient>
<linearGradient id="paint2_linear" x1="12.0105" y1="1.36772" x2="14.5335" y2="15.534" gradientUnits="userSpaceOnUse">
<stop stop-color="#7890E4"/>
<stop offset="1" stop-color="#2F4AA7"/>
</linearGradient>
<linearGradient id="paint3_linear" x1="14.6064" y1="15.8856" x2="14.8539" y2="17.2756" gradientUnits="userSpaceOnUse">
<stop stop-color="#7890E4"/>
<stop offset="1" stop-color="#2F4AA7"/>
</linearGradient>
</defs>
</svg>
