<svg width="182" height="182" viewBox="0 0 182 182" fill="none" xmlns="http://www.w3.org/2000/svg">
<path d="M90.9996 182C141.121 182 182 141.121 182 90.9996C182 40.8789 141.121 0 90.9996 0C40.8789 0 0 40.8789 0 90.9996C0 141.121 40.8789 182 90.9996 182Z" fill="#48B8E8"/>
<path d="M86.4546 37.1138H88.2604H93.7389H95.544L96.2808 44.7741L97.589 45.8235L100.347 47.5799L91 69.658L81.6536 47.5799L84.4117 45.8235L85.7198 44.7748L86.4557 37.1145L86.4546 37.1138Z" fill="#F0B97D"/>
<path d="M83.4552 46.3901L75.9217 48.7945L90.9986 69.6569L103.826 48.0935L98.5039 46.4068L93.8164 49.7151H88.1978L83.4552 46.3901Z" fill="#ECF0F1"/>
<path d="M89.3169 49.4116L89.961 51.0002L88.5299 69.1049L90.9993 70.9953L93.4688 69.1049L92.0377 51.0002L92.6818 49.4116L90.999 49.3451L89.3169 49.4116Z" fill="#FF5B61"/>
<path d="M83.5845 46.3485L70.2591 50.601C70.2591 50.601 68.534 51.4975 68.0129 54.225C67.5145 56.8373 67.2557 59.5065 66.8622 63.1089C73.2184 68.9414 81.6917 72.5021 90.9978 72.5021C100.304 72.5021 108.779 68.9414 115.134 63.1089C114.74 59.5069 114.482 56.8373 113.984 54.225C113.462 51.4975 111.737 50.601 111.737 50.601L98.5029 46.4065L90.9978 68.4156L83.5835 46.3485H83.5845Z" fill="#096389"/>
<path d="M83.5846 46.3485L80.7106 47.2663L80.1582 54.5591C80.1582 54.5591 80.3103 55.1577 80.7664 55.1048L83.3606 56.0798C83.3606 56.0798 83.5305 56.2497 83.3787 56.4648L81.1592 57.9862L88.8292 72.4424C89.5472 72.4833 90.2713 72.5043 90.9993 72.5043C91.728 72.5043 92.4507 72.484 93.1694 72.4424L100.84 57.9862L98.6205 56.4648C98.4684 56.2501 98.6394 56.0798 98.6394 56.0798L101.233 55.1048C101.689 55.1581 101.842 54.5591 101.842 54.5591L101.292 47.2898L98.5061 46.4072L91.0011 68.4164L83.5867 46.3492L83.5846 46.3485Z" fill="#00D1FF"/>
<path d="M80.4135 21.5343C80.4135 22.2459 80.1533 22.9427 80.1728 23.6269C77.7368 23.1748 78.9134 30.4086 80.2912 31.4042C80.401 31.4835 80.6698 31.3079 80.8969 31.1622C81.3743 33.8228 85.4544 40.934 88.0479 43.9263C88.7687 44.757 93.1744 44.7439 93.8868 43.9583C96.5446 41.0335 100.618 33.8392 101.099 31.1629C101.326 31.3086 101.596 31.4842 101.705 31.4049C103.083 30.4103 104.26 23.1755 101.824 23.6276C101.843 22.9434 101.583 22.2467 101.583 21.535C101.448 15.9172 96.3576 13.1129 90.9979 13.0887C85.6378 13.1122 80.5475 15.9172 80.4124 21.535L80.4135 21.5343Z" fill="#FED198"/>
<path d="M83.6777 14.3332C82.9102 14.244 80.1351 15.0936 79.802 18.0294C79.4696 20.9652 79.6289 23.67 79.6289 23.67C79.6289 23.67 81.2537 24.0805 81.4588 25.747C81.6632 27.413 81.5175 27.413 81.5175 27.413L82.1061 27.2815L82.5256 24.4239C84.9577 22.9004 82.5075 20.6431 84.9396 20.1149C91.5083 24.7961 97.305 23.9952 99.9187 21.7931C99.9187 21.7931 99.308 24.0965 99.7794 24.918C100.249 25.7395 99.9692 27.0341 99.9692 27.0341L100.581 27.005C100.581 27.005 100.469 23.612 101.826 23.6277C106.98 15.1184 90.6648 4.54893 83.6791 14.3339L83.6777 14.3332Z" fill="#666666"/>
<path d="M85.6551 43.68C85.8464 43.6942 83.431 46.4185 83.431 46.4185L85.4874 53.4589L90.9986 49.3458C87.9671 47.8582 86.1567 45.9301 85.6551 43.68Z" fill="white"/>
<path d="M96.3431 43.68C96.1525 43.6942 98.5673 46.4185 98.5673 46.4185L96.5116 53.4589L90.9986 49.3458C94.0318 47.8582 95.8415 45.9301 96.3431 43.68Z" fill="white"/>
<path d="M88.0002 37.352L89.5074 36.3261C89.9706 36.7587 92.1268 36.7516 92.5882 36.3222L93.9785 37.352C94.6524 37.851 95.3485 38.0227 95.5216 38.7987L96.074 41.2753C96.2471 42.052 94.7104 44.6625 93.8637 44.6625H87.8861C87.0397 44.6625 85.8774 42.1718 86.0121 41.3858L86.4564 38.7987C86.5918 38.0135 87.3049 37.8261 88.0002 37.352ZM90.6101 37.9321L87.6853 39.4681C87.6853 39.4681 87.8218 41.1679 88.2003 41.7C88.5789 42.2329 90.0697 41.598 90.0697 41.598C90.0697 41.598 90.0697 40.2664 90.5031 40.2878C90.5063 40.2885 91.4742 40.2885 91.4781 40.2878C91.9107 40.2664 91.9107 41.598 91.9107 41.598C91.9107 41.598 93.4005 42.2329 93.7801 41.7C94.1594 41.1672 94.2952 39.4681 94.2952 39.4681L91.3704 37.9321L90.9911 38.0387L90.6125 37.9321H90.6101Z" fill="#666666"/>
<path d="M71.4585 42.2873L80.4152 40.2504V41.7896L71.798 43.8265C71.5872 43.8439 70.182 44.4158 69.7416 44.857C69.3012 45.2974 69.0267 45.9056 69.0267 46.5742C69.0267 50.96 69.0339 55.3429 69.0339 59.7216H68.2564H67.4861V58.9513V46.5742C67.4861 45.4808 67.9337 44.4873 68.6524 43.7685C69.3712 43.0498 70.8745 42.3577 71.4585 42.2873Z" fill="#CCCCCC"/>
<path d="M75.2399 40.5114L82.1534 39.0543C82.7303 38.9327 83.3002 39.3053 83.4214 39.8804L83.6329 40.8867C83.7544 41.4637 83.383 42.0342 82.8068 42.1547L75.8932 43.6125C75.317 43.734 74.7476 43.3615 74.626 42.7864L74.4134 41.78C74.2918 41.2038 74.6644 40.6333 75.2395 40.5121V40.5114H75.2399Z" fill="#FBB429"/>
<path d="M68.2535 56.4936C70.3031 56.4936 71.9653 58.155 71.9653 60.2054L71.9646 60.2295H64.5431L64.5424 60.2054C64.5424 58.1557 66.2032 56.4936 68.2535 56.4936Z" fill="#666666"/>
<path d="M56.7253 59.6988H125.274V64.722H56.7253V59.6988Z" fill="#FBB429"/>
<path d="M65.6391 64.7213H116.36V96.7892C108.851 100.973 100.205 103.358 90.9997 103.358C81.7952 103.358 73.148 100.972 65.6398 96.7892V64.7213H65.6391Z" fill="#FBB429"/>
<path d="M56.7253 64.7213L65.6391 70.3704V64.7213H56.7253ZM125.274 64.7213L116.359 70.3704V64.7213H125.274Z" fill="#F5A209"/>
<path d="M65.6391 64.7213H116.36V66.8548H65.6391V64.7213Z" fill="#F5A209"/>
<path d="M55.959 100.783C55.959 101.363 55.7482 101.931 55.7631 102.486C52.5515 100.73 55.4443 108.124 56.5651 108.932C56.8747 109.154 57.4882 108.274 57.598 108.65C58.443 111.571 59.4209 113.2 60.5307 114.601L60.279 117.219L59.2129 118.073L56.9674 119.504H72.1872L69.9417 118.073L68.8774 117.219L68.6257 114.601C69.7341 113.2 70.712 111.571 71.5576 108.65C71.6664 108.274 72.2803 109.154 72.5899 108.932C73.7107 108.124 76.6035 100.73 73.3908 102.486C73.4072 101.931 73.1956 101.363 73.1956 100.783C73.0858 96.2094 72.9447 91.4418 64.5777 91.4219C56.2103 91.4415 56.0685 96.209 55.9597 100.783H55.959Z" fill="#FED198"/>
<path d="M70.8684 92.4354C74.3907 92.0248 75.6533 99.8426 73.5355 102.409L70.4489 111.669L68.3538 113.775L61.0212 113.807L58.898 112.065L55.7631 102.487C51.5668 95.5593 61.6319 85.3769 70.8677 92.4361L70.8684 92.4354Z" fill="#666666"/>
<path d="M58.5407 118.5L47.6929 121.964C47.6929 121.964 46.2877 122.694 45.8637 124.915C45.4577 127.041 45.2476 129.215 44.927 132.149H84.228L84.2287 132.147C83.9073 129.215 83.6972 127.041 83.2913 124.915C82.8672 122.695 81.4646 121.964 81.4646 121.964L70.6889 118.548L58.5422 118.502L58.5407 118.5Z" fill="#096389"/>
<path d="M60.4105 115.247H68.7722C69.2556 115.247 69.4877 115.63 69.6523 116.028L70.6867 118.548L58.5393 118.502L59.5293 116.029C59.6899 115.627 59.926 115.248 60.4094 115.248L60.4105 115.247Z" fill="white"/>
<path d="M108.803 100.783C108.803 101.363 108.592 101.931 108.607 102.486C105.396 100.73 108.289 108.124 109.409 108.932C109.719 109.154 110.332 108.274 110.442 108.65C111.287 111.571 112.264 113.2 113.374 114.601L113.123 117.219L112.057 118.073L109.811 119.504H125.031L122.786 118.073L121.722 117.219L121.47 114.601C122.578 113.2 123.556 111.571 124.402 108.65C124.511 108.274 125.125 109.154 125.434 108.932C126.555 108.124 129.448 100.73 126.235 102.486C126.251 101.931 126.04 101.363 126.04 100.783C125.93 96.2094 125.789 91.4418 117.421 91.4219C109.054 91.4415 108.913 96.209 108.803 100.783Z" fill="#FED198"/>
<path d="M123.712 92.4354C127.235 92.0248 128.497 99.8426 126.379 102.409L123.292 111.669L121.196 113.775L113.865 113.807L111.741 112.065L108.606 102.487C104.41 95.5593 114.475 85.3769 123.711 92.4361L123.712 92.4354Z" fill="#666666"/>
<path d="M111.385 118.5L100.536 121.964C100.536 121.964 99.132 122.694 98.708 124.915C98.302 127.041 98.0919 129.215 97.7706 132.149H137.072L137.072 132.147C136.751 129.215 136.541 127.041 136.135 124.915C135.712 122.695 134.308 121.964 134.308 121.964L123.532 118.548L111.386 118.502L111.385 118.5Z" fill="#096389"/>
<path d="M113.255 115.247H121.617C122.101 115.247 122.332 115.63 122.497 116.028L123.53 118.548L111.384 118.502L112.373 116.029C112.534 115.627 112.77 115.248 113.254 115.248L113.255 115.247Z" fill="white"/>
<path d="M26.4728 119.248C26.4728 119.976 26.2062 120.69 26.2258 121.39C22.1869 119.18 25.8245 128.478 27.2346 129.494C27.6242 129.775 28.3952 128.667 28.5324 129.14C29.5946 132.813 30.8241 134.861 32.2201 136.623L31.904 139.917L30.5639 140.991L27.7394 142.789H46.8785L44.0554 140.991L42.7167 139.917L42.4 136.623C43.7941 134.862 45.024 132.813 46.0876 129.14C46.2248 128.667 46.9976 129.775 47.3854 129.494C48.7945 128.478 52.4327 119.181 48.3932 121.39C48.4134 120.69 48.1479 119.977 48.1479 119.248C48.0093 113.494 47.8312 107.5 37.3093 107.476C26.786 107.501 26.6086 113.494 26.4718 119.248H26.4728Z" fill="#FED198"/>
<path d="M45.2216 108.75C49.6508 108.233 51.2387 118.065 48.5762 121.293L44.6952 132.936L42.0594 135.585L32.8393 135.625L30.1697 133.435L26.2276 121.389C20.9513 112.677 33.6078 99.8732 45.2216 108.75Z" fill="#666666"/>
<path d="M29.719 141.527L16.0779 145.881C16.0779 145.881 14.3123 146.8 13.7776 149.593C13.2675 152.267 13.0024 155 12.5996 158.689H62.0221L62.0228 158.688C61.6194 155 61.3542 152.267 60.8434 149.593C60.3106 146.8 58.5464 145.881 58.5464 145.881L44.9952 141.587L29.72 141.528L29.719 141.527Z" fill="#096389"/>
<path d="M32.0711 137.435H42.5866C43.1962 137.435 43.487 137.918 43.6939 138.418L44.9942 141.587L29.7183 141.528L30.9628 138.418C31.165 137.913 31.4611 137.436 32.07 137.436L32.0711 137.435Z" fill="white"/>
<path d="M80.1618 119.248C80.1618 119.976 79.8952 120.69 79.9148 121.39C75.876 119.18 79.5127 128.478 80.9236 129.494C81.3125 129.775 82.0842 128.667 82.2214 129.14C83.2843 132.813 84.5138 134.861 85.909 136.623L85.593 139.917L84.2529 140.991L81.4284 142.789H100.567L97.7443 140.991L96.4056 139.917L96.0889 136.623C97.4831 134.862 98.7137 132.813 99.7758 129.14C99.913 128.667 100.686 129.775 101.074 129.494C102.483 128.478 106.121 119.181 102.081 121.39C102.101 120.69 101.835 119.977 101.835 119.248C101.697 113.494 101.519 107.5 90.9979 107.476C80.4761 107.501 80.2983 113.494 80.1611 119.248H80.1618Z" fill="#FED198"/>
<path d="M98.9099 108.75C103.339 108.233 104.927 118.065 102.265 121.293L98.3831 132.936L95.748 135.585L86.5279 135.625L83.8576 133.435L79.9154 121.389C74.6396 112.677 87.2964 99.8732 98.9099 108.75Z" fill="#666666"/>
<path d="M83.4075 141.527L69.7657 145.881C69.7657 145.881 68.0001 146.8 67.4655 149.593C66.9561 152.267 66.6902 155 66.2875 158.689H115.71L115.711 158.688C115.308 155 115.042 152.267 114.531 149.593C113.999 146.8 112.234 145.881 112.234 145.881L98.6831 141.587L83.4079 141.528V141.527H83.4075Z" fill="#096389"/>
<path d="M85.7594 137.435H96.2748C96.8844 137.435 97.1763 137.918 97.3821 138.418L98.6824 141.587L83.4072 141.528L84.6517 138.418C84.854 137.913 85.1501 137.436 85.7583 137.436L85.7594 137.435Z" fill="white"/>
<path d="M133.85 119.248C133.85 119.976 133.584 120.69 133.603 121.39C129.564 119.18 133.201 128.478 134.611 129.494C135.001 129.775 135.772 128.667 135.909 129.14C136.971 132.813 138.202 134.861 139.598 136.623L139.282 139.917L137.941 140.991L135.117 142.789H154.256L151.434 140.991L150.094 139.917L149.778 136.623C151.172 134.862 152.402 132.813 153.465 129.14C153.602 128.667 154.375 129.775 154.763 129.494C156.174 128.478 159.81 119.181 155.771 121.39C155.791 120.69 155.525 119.977 155.525 119.248C155.388 113.494 155.209 107.5 144.688 107.476C134.166 107.501 133.988 113.494 133.85 119.248H133.85Z" fill="#FED198"/>
<path d="M152.598 108.75C157.028 108.233 158.616 118.065 155.953 121.293L152.071 132.936L149.436 135.585L140.216 135.625L137.545 133.435L133.604 121.389C128.326 112.677 140.984 99.8732 152.598 108.75Z" fill="#666666"/>
<path d="M137.096 141.527L123.454 145.881C123.454 145.881 121.688 146.8 121.155 149.593C120.644 152.267 120.379 155 119.976 158.689H169.399L169.4 158.688C168.997 155 168.732 152.267 168.221 149.593C167.688 146.8 165.923 145.881 165.923 145.881L152.372 141.587L137.097 141.528L137.096 141.527Z" fill="#096389"/>
<path d="M139.448 137.435H149.963C150.572 137.435 150.863 137.918 151.07 138.418L152.371 141.587L137.095 141.528L138.339 138.418C138.542 137.913 138.838 137.436 139.447 137.436L139.448 137.435Z" fill="white"/>
</svg>
