<svg width="17" height="23" viewBox="0 0 17 23" fill="none" xmlns="http://www.w3.org/2000/svg">
<g clip-path="url(#clip0)">
<g opacity="0.1">
<g opacity="0.1">
<path opacity="0.1" d="M16.6733 3.33907C13.9068 0.447652 8.37827 -0.168114 7.03519 1.78627C7.03519 1.78627 5.01833 3.87452 7.33415 6.4179L5.10311 10.1527C5.10311 10.1527 1.87703 11.7813 0.757054 13.874C0.757054 13.874 0.48933 16.3237 5.32622 18.9474L3.54139 23.9226L4.12592 24.1859L6.6336 19.5007C8.10162 19.9023 12.0461 20.759 13.9112 18.9563C14.4693 17.2309 14.3365 15.3563 13.5409 13.7268L14.2102 9.01929C14.2102 9.01929 16.0798 8.94344 16.6019 8.57309C17.1239 8.20273 19.4353 6.24835 16.6733 3.33907Z" fill="#C7D6E9"/>
</g>
</g>
<path d="M15.9189 2.67854C13.1569 -0.21734 7.62388 -0.815258 6.2808 1.13021C6.2808 1.13021 4.26394 3.21846 6.57976 5.76184L4.34872 9.49659C4.34872 9.49659 1.12711 11.1565 0.00266391 13.2313C0.00266391 13.2313 -0.265061 15.681 4.56736 18.3003L2.78254 23.2755L3.36707 23.5432L5.87921 18.8536C7.34724 19.2596 11.2917 20.1163 13.1569 18.3136C13.7121 16.5875 13.5778 14.7134 12.782 13.0841L13.4558 8.37661C13.4558 8.37661 15.321 8.30076 15.843 7.93041C16.3651 7.56005 18.6854 5.61013 15.9189 2.67854Z" fill="#C7D6E9"/>
<g opacity="0.1">
<g opacity="0.1">
<path opacity="0.1" d="M15.7442 3.1522C13.1314 0.421417 7.91002 -0.16014 6.64155 1.68567C6.64155 1.68567 4.73674 3.65791 6.9239 6.05999L4.81681 9.58726C4.81681 9.58726 1.76996 11.1254 0.712198 13.1019C0.712198 13.1019 0.459347 15.4155 5.02752 17.8934L3.34185 22.5922L3.8939 22.8409L6.26227 18.416C7.64874 18.7952 11.3741 19.6044 13.1356 17.9018C13.6627 16.2723 13.5373 14.5018 12.7858 12.9628L13.4179 8.51685C13.4179 8.51685 15.1837 8.44521 15.6767 8.09544C16.1698 7.74566 18.3528 5.89985 15.7442 3.1522Z" fill="url(#paint0_linear)"/>
</g>
</g>
<path d="M15.0315 2.52829C12.423 -0.206715 7.19738 -0.771416 5.92891 1.06597C5.92891 1.06597 4.0241 3.0382 6.21126 5.44029L4.10417 8.96755C4.10417 8.96755 1.06153 10.5352 -0.000444288 12.4948C-0.000444288 12.4948 -0.253295 14.8084 4.31066 17.2821L2.62499 21.9809L3.17705 22.2338L5.54963 17.8047C6.9361 18.1882 10.6614 18.9973 12.423 17.2948C12.9474 15.6645 12.8205 13.8946 12.069 12.3558L12.7053 7.9098C12.7053 7.9098 14.4668 7.83815 14.9599 7.48838C15.453 7.1386 17.6443 5.297 15.0315 2.52829Z" fill="url(#paint1_linear)"/>
</g>
<defs>
<linearGradient id="paint0_linear" x1="8.85529" y1="0.617172" x2="8.85529" y2="22.8409" gradientUnits="userSpaceOnUse">
<stop stop-color="#7890E4"/>
<stop offset="1" stop-color="#2F4AA7"/>
</linearGradient>
<linearGradient id="paint1_linear" x1="8.14296" y1="-0.00144958" x2="8.14296" y2="22.2338" gradientUnits="userSpaceOnUse">
<stop stop-color="#7890E4"/>
<stop offset="1" stop-color="#2F4AA7"/>
</linearGradient>
<clipPath id="clip0">
<rect width="17" height="22.8409" fill="white"/>
</clipPath>
</defs>
</svg>
