<svg width="28" height="26" viewBox="0 0 28 26" fill="none" xmlns="http://www.w3.org/2000/svg">
<g clip-path="url(#clip0)" filter="url(#filter0_d)">
<path d="M14.4775 11.5572C12.5988 13.0884 15.6289 15.927 16.7632 13.8701C16.7534 15.809 18.7753 15.9557 20.1607 15.6602C20.1586 18.7285 20.6047 17.8465 18.1045 17.9763C13.5338 17.9738 9.02587 17.9738 4.46682 17.9763C4.10877 17.9554 3.9638 18.0763 4.00802 17.5336C4.06636 15.5523 3.86088 14.0891 4.30845 12.8755C5.70914 11.239 8.00497 10.9154 9.82895 9.88478C10.2867 9.73843 9.99312 8.65139 10.0678 8.33531C9.73292 7.75385 9.36145 7.12528 9.29731 6.41833C8.53336 6.00911 8.39311 5.51612 8.52973 4.80664C8.63556 3.97347 9.06899 4.5276 8.95665 3.79727C7.87958 -1.21146 16.0065 -1.20822 15.2502 3.46969C15.2889 3.76599 15.0164 4.15291 15.3879 4.26942C16.4026 5.03139 13.6846 4.61642 13.6523 6.74412C13.8669 8.14364 15.2378 7.85885 13.3171 8.28245C11.6939 9.19976 12.6448 11.8046 14.4775 11.5572Z" fill="url(#paint0_linear)"/>
<path d="M22.7617 8.59851C24.5168 8.29789 23.9899 10.0915 23.6677 10.2257C22.9864 10.4989 21.9644 9.95057 21.9086 10.5795C21.1729 11.6255 23.6981 12.0517 22.6309 13.0711C21.1726 14.659 21.145 11.3677 19.7037 12.974C19.6313 13.5591 19.8545 14.3368 19.5359 14.6605C16.8288 15.4038 18.8274 12.9262 17.5938 12.8888C16.5392 12.1901 16.279 14.3663 15.2835 13.5328C14.1771 12.6061 15.0661 12.3357 15.6434 11.6029C15.3697 10.1937 14.7957 10.6561 14.0546 10.5543C13.9176 10.5657 13.7814 10.5246 13.674 10.4394C13.5666 10.3543 13.4961 10.2316 13.4769 10.0966C13.2319 7.83546 15.0795 9.66757 15.3078 8.44245C15.9123 7.48882 14.7388 7.45466 14.5551 6.70959C14.5261 6.54525 14.5645 6.41436 14.6547 6.26262C15.805 4.84475 15.9713 6.23205 16.8219 6.5769C18.9546 6.12885 16.4341 3.97634 19.0666 4.4341C19.7552 4.68581 19.2572 5.6844 19.4758 6.21982C20.6297 6.91383 20.5916 6.16193 21.349 5.57005C21.5708 5.40715 21.7879 5.40248 22.0253 5.5233C23.7376 6.79409 21.6448 7.08176 21.6248 7.90163C21.9535 8.81966 22.0478 8.56615 22.7617 8.59635V8.59851ZM17.1082 9.58019C17.1879 11.5849 19.9219 11.4407 20.0596 9.66757C20.0408 7.58735 17.1314 7.68551 17.11 9.58019H17.1082Z" fill="#C7D6E9"/>
</g>
<defs>
<filter id="filter0_d" x="0" y="0" width="28" height="26" filterUnits="userSpaceOnUse" color-interpolation-filters="sRGB">
<feFlood flood-opacity="0" result="BackgroundImageFix"/>
<feColorMatrix in="SourceAlpha" type="matrix" values="0 0 0 0 0 0 0 0 0 0 0 0 0 0 0 0 0 0 127 0"/>
<feOffset dy="4"/>
<feGaussianBlur stdDeviation="2"/>
<feColorMatrix type="matrix" values="0 0 0 0 0 0 0 0 0 0 0 0 0 0 0 0 0 0 0.25 0"/>
<feBlend mode="normal" in2="BackgroundImageFix" result="effect1_dropShadow"/>
<feBlend mode="normal" in="SourceGraphic" in2="effect1_dropShadow" result="shape"/>
</filter>
<linearGradient id="paint0_linear" x1="12.0953" y1="-3.05176e-05" x2="12.0953" y2="18" gradientUnits="userSpaceOnUse">
<stop stop-color="#7890E4"/>
<stop offset="1" stop-color="#2F4AA7"/>
</linearGradient>
<clipPath id="clip0">
<rect width="20" height="18" fill="white" transform="translate(4)"/>
</clipPath>
</defs>
</svg>
