<svg width="18" height="20" viewBox="0 0 18 20" fill="none" xmlns="http://www.w3.org/2000/svg">
<g opacity="0.1">
<g opacity="0.1">
<path opacity="0.1" d="M8.99967 2.00736C7.22022 2.0067 5.48055 2.53376 4.00067 3.52189C2.52079 4.51002 1.36719 5.91482 0.685768 7.55862C0.00434553 9.20242 -0.174289 11.0114 0.172458 12.7567C0.519205 14.5021 1.37576 16.1054 2.63378 17.3639C3.89181 18.6223 5.49479 19.4795 7.24 19.8269C8.9852 20.1743 10.7942 19.9963 12.4383 19.3155C14.0823 18.6347 15.4876 17.4816 16.4763 16.0021C17.4649 14.5226 17.9926 12.7831 17.9926 11.0037C17.9926 8.61829 17.0453 6.33055 15.3589 4.64351C13.6724 2.95647 11.3851 2.00825 8.99967 2.00736ZM3.28538 12.8371C3.3186 12.8051 3.35708 12.779 3.39913 12.7601C3.43137 12.7398 3.46627 12.724 3.50285 12.7133C3.55789 12.6925 3.61722 12.6856 3.67557 12.6931C3.73393 12.7007 3.78951 12.7226 3.83741 12.7568L3.98796 12.9107C6.51723 14.7173 10.01 15.6808 13.9144 12.9675C13.9377 12.9446 13.9635 12.9244 13.9913 12.9073C14.0114 12.8772 14.0314 12.8705 14.0582 12.8438C14.148 12.7571 14.268 12.7086 14.3928 12.7086C14.5176 12.7086 14.6375 12.7571 14.7273 12.8438C14.7712 12.8877 14.806 12.9398 14.8295 12.9973C14.8531 13.0547 14.8649 13.1162 14.8645 13.1783C14.8695 13.2071 14.8695 13.2365 14.8645 13.2653C14.8578 13.3579 14.8215 13.4459 14.7608 13.5162L14.7039 13.5564L14.5433 13.6668C9.84945 16.9789 5.81131 15.3898 3.26531 13.4794C3.19579 13.3815 3.15733 13.2649 3.1549 13.1449C3.15709 13.0293 3.20383 12.919 3.28538 12.8371ZM11.8869 7.32018H12.9307C13.4761 7.32018 13.9144 8.05286 13.9144 8.99298C13.9144 9.93309 13.4761 10.6658 12.9307 10.6658H11.8869C11.3449 10.6658 10.9033 9.93309 10.9033 8.99298C10.9033 8.05286 11.3449 7.32018 11.8869 7.32018ZM5.15557 7.32018H6.22282C6.81499 7.32018 7.29341 8.05286 7.29341 8.99298C7.29341 9.93309 6.81499 10.6658 6.22282 10.6658H5.15557C4.5634 10.6658 4.08163 9.93309 4.08163 8.99298C4.08163 8.05286 4.5634 7.32018 5.15557 7.32018Z" fill="white"/>
</g>
</g>
<path d="M8.99967 1.00369C7.22022 1.00302 5.48055 1.53009 4.00067 2.51821C2.52079 3.50634 1.36719 4.91114 0.685768 6.55494C0.00434553 8.19875 -0.174289 10.0077 0.172458 11.753C0.519205 13.4984 1.37576 15.1017 2.63378 16.3602C3.89181 17.6187 5.49479 18.4758 7.24 18.8232C8.9852 19.1706 10.7942 18.9926 12.4383 18.3118C14.0823 17.631 15.4876 16.4779 16.4763 14.9984C17.4649 13.5189 17.9926 11.7794 17.9926 10C17.9926 7.61461 17.0453 5.32687 15.3589 3.63983C13.6724 1.95279 11.3851 1.00457 8.99967 1.00369Z" fill="#C7D6E9"/>
<path d="M8.99967 6.22377e-07C7.22022 -0.000661128 5.48055 0.526401 4.00067 1.51453C2.52079 2.50265 1.36719 3.90745 0.685768 5.55126C0.00434553 7.19506 -0.174289 9.00402 0.172458 10.7494C0.519205 12.4947 1.37576 14.098 2.63378 15.3565C3.89181 16.615 5.49479 17.4721 7.24 17.8195C8.9852 18.1669 10.7942 17.989 12.4383 17.3081C14.0823 16.6273 15.4876 15.4743 16.4763 13.9948C17.4649 12.5152 17.9926 10.7758 17.9926 8.99632C17.9926 6.61093 17.0453 4.32318 15.3589 2.63614C13.6724 0.949103 11.3851 0.000887715 8.99967 6.22377e-07ZM3.28538 10.8297C3.3186 10.7977 3.35708 10.7717 3.39913 10.7528C3.43137 10.7324 3.46627 10.7167 3.50285 10.7059C3.55789 10.6851 3.61722 10.6782 3.67557 10.6858C3.73393 10.6934 3.78951 10.7152 3.83741 10.7494L3.98796 10.9033C6.51723 12.7099 10.01 13.6735 13.9144 10.9602C13.9377 10.9373 13.9635 10.9171 13.9913 10.9C14.0114 10.8699 14.0314 10.8632 14.0582 10.8364C14.148 10.7497 14.268 10.7013 14.3928 10.7013C14.5176 10.7013 14.6375 10.7497 14.7273 10.8364C14.7712 10.8803 14.806 10.9325 14.8295 10.9899C14.8531 11.0473 14.8649 11.1089 14.8645 11.171C14.8695 11.1997 14.8695 11.2292 14.8645 11.2579C14.8578 11.3506 14.8215 11.4386 14.7608 11.5089L14.7039 11.549L14.5433 11.6594C9.84945 14.9716 5.81131 13.3824 3.26531 11.4721C3.19579 11.3741 3.15733 11.2576 3.1549 11.1375C3.15709 11.0219 3.20383 10.9116 3.28538 10.8297ZM11.8869 5.31281H12.9307C13.4761 5.31281 13.9144 6.0455 13.9144 6.98561C13.9144 7.92573 13.4761 8.65841 12.9307 8.65841H11.8869C11.3449 8.65841 10.9033 7.92573 10.9033 6.98561C10.9033 6.0455 11.3449 5.31281 11.8869 5.31281ZM5.15557 5.31281H6.22282C6.81499 5.31281 7.29341 6.0455 7.29341 6.98561C7.29341 7.92573 6.81499 8.65841 6.22282 8.65841H5.15557C4.5634 8.65841 4.08163 7.92573 4.08163 6.98561C4.08163 6.0455 4.5634 5.31281 5.15557 5.31281Z" fill="url(#paint0_linear)"/>
<defs>
<linearGradient id="paint0_linear" x1="8.99632" y1="0" x2="8.99632" y2="17.9926" gradientUnits="userSpaceOnUse">
<stop stop-color="#7890E4"/>
<stop offset="1" stop-color="#2F4AA7"/>
</linearGradient>
</defs>
</svg>
