<svg width="28" height="28" viewBox="0 0 28 28" fill="none" xmlns="http://www.w3.org/2000/svg">
<g clip-path="url(#clip0)" filter="url(#filter0_d)">
<g opacity="0.1">
<g opacity="0.1">
<path opacity="0.1" d="M22.4771 6.00033H9.72601C9.53914 5.9903 9.35221 6.01884 9.17622 6.08427C9.00023 6.14971 8.83873 6.25071 8.70123 6.38134C8.56374 6.51197 8.45301 6.66958 8.37558 6.84491C8.29815 7.02023 8.25558 7.20973 8.25037 7.40224V15.7196C8.252 15.9168 8.29157 16.1116 8.36677 16.2929C8.44198 16.4743 8.55134 16.6385 8.68854 16.776C8.82573 16.9136 8.98805 17.0219 9.16612 17.0945C9.34419 17.1672 9.53448 17.2029 9.72601 17.1994H18.4191L22.7892 20.0162L21.5595 17.1994H22.4771C22.8661 17.2075 23.2428 17.0591 23.5272 16.7858C23.8116 16.5125 23.9812 16.1358 24 15.7358V7.40224C23.978 7.00873 23.8054 6.64022 23.52 6.37745C23.2345 6.11468 22.8595 5.97907 22.4771 6.00033Z" fill="#686868"/>
<path opacity="0.1" d="M19.7465 5.35129V3.33928C19.7413 3.14747 19.6988 2.95868 19.6214 2.78408C19.5441 2.60949 19.4335 2.45264 19.2962 2.32283C19.1589 2.19302 18.9977 2.09288 18.8221 2.02834C18.6465 1.9638 18.4601 1.93618 18.274 1.94711H5.52294C5.33405 1.93525 5.14475 1.96189 4.96588 2.0255C4.78702 2.08911 4.62211 2.18843 4.48063 2.31777C4.33914 2.44711 4.22385 2.60392 4.14137 2.77922C4.0589 2.95451 4.01085 3.14484 4 3.33928V11.6534C4.01719 12.0551 4.1859 12.4341 4.47028 12.7098C4.75466 12.9856 5.13229 13.1363 5.52294 13.13H7.46839V7.28866C7.46839 6.20153 8.44585 5.36752 9.72915 5.36752L19.7465 5.35129Z" fill="#686868"/>
</g>
</g>
<path d="M22.4771 5.02677H9.72601C9.53914 5.01675 9.35221 5.04529 9.17622 5.11072C9.00023 5.17616 8.83873 5.27716 8.70123 5.40779C8.56374 5.53841 8.45301 5.69603 8.37558 5.87136C8.29815 6.04668 8.25558 6.23618 8.25037 6.42869V14.7461C8.252 14.9432 8.29157 15.1381 8.36677 15.3194C8.44198 15.5007 8.55134 15.6649 8.68854 15.8025C8.82573 15.9401 8.98805 16.0483 9.16612 16.121C9.34419 16.1937 9.53448 16.2293 9.72601 16.2259H18.4191L22.7892 19.0427L21.5595 16.2259H22.4771C22.8661 16.2339 23.2428 16.0856 23.5272 15.8123C23.8116 15.539 23.9812 15.1623 24 14.7623V6.42869C23.978 6.03518 23.8054 5.66667 23.52 5.4039C23.2345 5.14113 22.8595 5.00552 22.4771 5.02677Z" fill="#C7D6E9"/>
<path d="M19.7465 4.37774V2.36573C19.7413 2.17392 19.6988 1.98513 19.6214 1.81053C19.5441 1.63594 19.4335 1.47909 19.2962 1.34928C19.1589 1.21946 18.9977 1.11932 18.8221 1.05479C18.6465 0.990248 18.4601 0.962625 18.274 0.973553H5.52294C5.33405 0.9617 5.14475 0.988341 4.96588 1.05195C4.78702 1.11555 4.62211 1.21487 4.48063 1.34421C4.33914 1.47355 4.22385 1.63037 4.14137 1.80566C4.0589 1.98096 4.01085 2.17129 4 2.36573V10.6799C4.01719 11.0816 4.1859 11.4606 4.47028 11.7363C4.75466 12.012 5.13229 12.1627 5.52294 12.1564H7.46839V6.31511C7.46839 5.22797 8.44585 4.39397 9.72915 4.39397L19.7465 4.37774Z" fill="#C7D6E9"/>
<path d="M22.4771 4.05322H9.72601C9.53914 4.04319 9.35221 4.07174 9.17622 4.13717C9.00023 4.2026 8.83873 4.30361 8.70123 4.43423C8.56374 4.56486 8.45301 4.72248 8.37558 4.8978C8.29815 5.07313 8.25558 5.26262 8.25037 5.45514V13.7725C8.252 13.9697 8.29157 14.1645 8.36677 14.3458C8.44198 14.5272 8.55134 14.6913 8.68854 14.8289C8.82573 14.9665 8.98805 15.0748 9.16612 15.1474C9.34419 15.2201 9.53448 15.2558 9.72601 15.2523H18.4191L22.7892 18.0691L21.5595 15.2523H22.4771C22.8661 15.2604 23.2428 15.112 23.5272 14.8387C23.8116 14.5654 23.9812 14.1887 24 13.7887V5.45514C23.978 5.06162 23.8054 4.69312 23.52 4.43035C23.2345 4.16757 22.8595 4.03196 22.4771 4.05322Z" fill="url(#paint0_linear)"/>
<path d="M19.7465 3.4036V1.39159C19.7413 1.19978 19.6988 1.01099 19.6214 0.836391C19.5441 0.661796 19.4335 0.504949 19.2962 0.375136C19.1589 0.245322 18.9977 0.145183 18.8221 0.0806452C18.6465 0.0161079 18.4601 -0.0115148 18.274 -0.000587347H5.52294C5.33405 -0.0124402 5.14475 0.0142005 4.96588 0.077807C4.78702 0.141414 4.62211 0.240735 4.48063 0.370074C4.33914 0.499414 4.22385 0.656228 4.14137 0.831523C4.0589 1.00682 4.01085 1.19715 4 1.39159V9.70572C4.01719 10.1074 4.1859 10.4864 4.47028 10.7621C4.75466 11.0379 5.13229 11.1886 5.52294 11.1823H7.46839V5.34097C7.46839 4.25383 8.44585 3.41982 9.72915 3.41982L19.7465 3.4036Z" fill="url(#paint1_linear)"/>
</g>
<defs>
<filter id="filter0_d" x="0" y="0" width="28" height="28" filterUnits="userSpaceOnUse" color-interpolation-filters="sRGB">
<feFlood flood-opacity="0" result="BackgroundImageFix"/>
<feColorMatrix in="SourceAlpha" type="matrix" values="0 0 0 0 0 0 0 0 0 0 0 0 0 0 0 0 0 0 127 0"/>
<feOffset dy="4"/>
<feGaussianBlur stdDeviation="2"/>
<feColorMatrix type="matrix" values="0 0 0 0 0 0 0 0 0 0 0 0 0 0 0 0 0 0 0.25 0"/>
<feBlend mode="normal" in2="BackgroundImageFix" result="effect1_dropShadow"/>
<feBlend mode="normal" in="SourceGraphic" in2="effect1_dropShadow" result="shape"/>
</filter>
<linearGradient id="paint0_linear" x1="16.1252" y1="4.05105" x2="16.1252" y2="18.0691" gradientUnits="userSpaceOnUse">
<stop stop-color="#7890E4"/>
<stop offset="1" stop-color="#2F4AA7"/>
</linearGradient>
<linearGradient id="paint1_linear" x1="11.8732" y1="-0.00333023" x2="11.8732" y2="11.1825" gradientUnits="userSpaceOnUse">
<stop stop-color="#7890E4"/>
<stop offset="1" stop-color="#2F4AA7"/>
</linearGradient>
<clipPath id="clip0">
<rect width="20" height="20" fill="white" transform="translate(4)"/>
</clipPath>
</defs>
</svg>
