<svg width="19" height="17" viewBox="0 0 19 17" fill="none" xmlns="http://www.w3.org/2000/svg">
<path d="M10.4987 15.5098C8.4263 15.9313 6.33485 16.2594 4.21724 16.2131C3.84197 16.211 3.46998 16.1624 3.11104 16.0686C2.91324 16.0127 2.64865 15.8163 2.63284 15.6586C2.6147 15.474 2.78725 15.2088 2.96136 15.0765C3.24069 14.8662 3.60432 14.7571 3.90324 14.5672C4.09817 14.4414 4.3231 14.2705 4.39559 14.0777C4.99305 12.4756 5.12104 10.8296 4.96511 9.16812C4.88872 8.34622 4.71595 7.52782 4.71609 6.70822C4.71535 5.09083 5.45328 3.80176 6.9726 2.91536C7.0355 2.86527 7.08627 2.80328 7.12138 2.73373C7.1565 2.66417 7.1751 2.58872 7.1759 2.51262C7.17727 1.91363 7.46767 1.47603 7.97624 1.37407C8.51218 1.26724 8.94653 1.56894 9.17064 2.15167C9.20438 2.22538 9.25478 2.29114 9.31849 2.34456C9.3822 2.39798 9.45776 2.43785 9.54014 2.4615C11.5081 2.85319 12.6705 4.00984 13.1023 5.79292C13.5149 7.49632 13.8869 9.20581 14.8261 10.7357C14.9366 10.9153 15.0565 11.092 15.1674 11.2737C15.5679 11.9571 16.0506 12.4824 17.0295 12.4082C17.4073 12.3785 17.9112 12.4435 17.9911 12.9199C18.0711 13.3963 17.6208 13.5983 17.2558 13.7339C15.9955 14.1791 14.7313 14.6297 13.4411 14.9824C12.4792 15.2277 11.4793 15.3352 10.4987 15.5098ZM8.71576 2.40343C8.59796 2.05219 8.4346 1.78988 8.05253 1.89207C7.72224 1.98163 7.62564 2.25267 7.73397 2.57828L8.71576 2.40343Z" fill="url(#paint0_linear)"/>
<defs>
<linearGradient id="paint0_linear" x1="8.0105" y1="1.36772" x2="10.5335" y2="15.534" gradientUnits="userSpaceOnUse">
<stop stop-color="#7890E4"/>
<stop offset="1" stop-color="#2F4AA7"/>
</linearGradient>
</defs>
</svg>
